<svg width="180" height="180" viewBox="0 0 180 180" fill="none" xmlns="http://www.w3.org/2000/svg">
<path d="M167.208 68.8323C167.602 68.0003 167.807 67.0926 167.807 66.1737C167.807 65.2548 167.602 64.3472 167.208 63.5151C166.494 61.9692 166.297 60.2379 166.647 58.5735C166.966 56.3806 168.483 54.8635 170.016 55.0438C171.548 55.224 172.732 57.0414 172.398 59.2494C172.151 60.7902 171.739 62.3007 171.169 63.7555C169.199 68.0032 168.917 72.8296 170.38 77.2736C171.275 77.529 171.503 76.6728 172.019 76.2973C172.55 75.8474 173.113 75.4358 173.703 75.0657C174.11 74.7517 174.616 74.5913 175.131 74.613C175.646 74.6347 176.136 74.8371 176.514 75.1841C176.892 75.5311 177.133 75.9999 177.193 76.5067C177.254 77.0134 177.13 77.5249 176.845 77.9495C176.222 79.3108 175.261 80.494 174.052 81.3892C172.037 82.8235 170.665 84.9785 170.228 87.3972C169.712 90.176 167.709 92.2788 165.873 94.3816C163.986 96.2866 162.555 98.586 161.685 101.111C162.792 100.48 163.415 100.074 164.067 99.7589C164.851 99.3409 165.675 98.9988 166.525 98.7375C167.049 98.5295 167.627 98.4932 168.173 98.6338C168.719 98.7743 169.205 99.0844 169.56 99.5185C169.862 99.9684 170.012 100.501 169.99 101.04C169.968 101.579 169.776 102.098 169.439 102.523C168.608 103.886 167.47 105.043 166.116 105.902C165.311 106.458 164.462 106.954 163.445 107.599C164.008 108.415 164.737 109.105 165.585 109.627C169.743 112.871 173.87 116.146 178.089 119.315C178.729 119.767 179.241 120.375 179.573 121.08C179.906 121.786 180.048 122.565 179.986 123.341C179.834 140.343 179.773 157.346 179.697 174.409C179.697 174.89 179.697 175.386 179.697 175.911C179.697 178.119 179.364 178.405 177.087 178.585C176.404 178.585 175.691 178.585 174.993 178.585C150.136 179.156 125.264 179.141 100.392 179.426C95.7031 179.426 91.014 179.681 86.3248 179.967C85.2919 180.063 84.2499 179.949 83.2633 179.631C82.2767 179.314 81.3664 178.799 80.5886 178.119C68.2159 167.956 55.7874 157.857 43.3034 147.823C42.3188 147.094 41.5282 146.139 40.9995 145.04C40.4708 143.941 40.2199 142.731 40.2683 141.515C40.1773 126.194 39.9648 110.859 39.7979 95.5382C39.7979 94.8473 39.7979 94.1563 39.7979 93.4654C39.9041 92.1286 39.3426 91.5728 37.9769 91.3626C34.4226 90.7762 30.9528 89.7676 27.6426 88.3585C8.87095 80.4879 -2.07032 61.893 0.32735 41.1501C2.26977 24.6279 10.7679 11.7706 24.471 2.21775C26.5001 0.768162 28.9495 0.00920351 31.4515 0.0548421C59.2119 0.0548421 86.9774 0.0548421 114.748 0.0548421C115.046 0.077334 115.345 0.077334 115.643 0.0548421C117.419 -0.245562 118.177 0.715732 118.526 2.26281C119.558 6.76887 120.621 11.2749 121.653 15.781C126.923 39.0022 132.179 62.2284 137.42 85.4596C137.756 87.2818 138.802 88.9002 140.333 89.9657C145.69 93.931 150.956 98.1066 156.176 102.177C156.885 102.951 157.827 103.478 158.862 103.679C159.408 100.227 160.845 96.9725 163.035 94.2314C161.745 93.3603 160.577 92.6393 159.469 91.8282C158.361 91.0171 157.769 90.3262 158.392 89.0645C159.014 87.8028 160.273 87.8929 161.533 88.2233C163.069 88.8706 164.512 89.7139 165.827 90.7317C166.48 89.6803 165.63 89.3799 165.175 88.9744C163.856 87.9254 162.814 86.5749 162.14 85.0391C161.827 84.4155 161.723 83.7094 161.843 83.0233C161.963 82.3373 162.301 81.707 162.808 81.2239C163.839 80.4579 165.175 80.6231 166.632 81.7647C167.315 82.3054 167.922 82.9513 168.862 83.8375C169.057 81.234 168.743 78.6178 167.937 76.1321C167.739 75.336 166.905 75.2609 166.313 74.9455C164.957 74.3178 163.692 73.5148 162.55 72.5573C161.774 71.9224 161.178 71.0997 160.82 70.1691C160.649 69.8062 160.58 69.4044 160.621 69.0062C160.662 68.608 160.811 68.228 161.052 67.9065C161.293 67.585 161.617 67.3338 161.99 67.1795C162.363 67.0252 162.771 66.9735 163.172 67.0299C164.462 67.2852 165.569 68.2315 167.208 68.8323ZM126.539 88.0281V87.5775C125.583 87.3071 124.627 87.0518 123.686 86.7664C116.357 84.735 109.562 81.147 103.776 76.2523C90.5132 64.5215 86.2035 50.0571 90.9533 33.0842C93.5937 23.6065 99.0568 15.7509 106.022 8.87169C106.977 8.19946 107.719 7.27217 108.162 6.19809C83.2595 6.37834 58.6454 6.31825 34.0769 6.78388C33.9026 7.95374 33.9489 9.14547 34.2134 10.2986C37.9465 35.7328 41.6948 61.152 45.4582 86.5561C45.8376 89.1246 45.8224 89.1246 48.4022 89.1396C49.1003 89.1396 49.7983 89.1396 50.4963 89.1396L124.202 88.2083C124.961 88.1182 125.75 88.0732 126.539 88.0281ZM131 123.686L86.6435 124.377C83.9424 124.377 83.8665 124.452 83.8665 126.615C83.8665 142.837 83.9019 159.049 83.9727 175.25C83.9727 177.894 84.261 177.939 86.9319 177.924C98.1008 177.804 109.239 176.422 120.408 177.699C121.137 177.774 121.926 177.699 122.169 176.903C122.227 176.742 122.248 176.569 122.229 176.399C122.21 176.229 122.153 176.066 122.061 175.921C121.968 175.776 121.844 175.654 121.697 175.564C121.55 175.474 121.384 175.418 121.212 175.401C119.27 175.265 119.483 174.154 119.923 172.937C122.7 165.127 126.964 161.026 134.582 160.531L135.765 160.41C137.269 160.279 138.71 159.754 139.94 158.888C141.169 158.022 142.143 156.847 142.761 155.484C143.156 154.688 143.565 153.892 143.914 153.081C144.053 152.669 144.312 152.307 144.657 152.04C145.003 151.773 145.42 151.612 145.857 151.578C147.557 151.308 147.936 150.587 147.223 148.845C147.04 148.508 146.981 148.119 147.055 147.743C147.13 147.368 147.334 147.03 147.632 146.787C148.697 145.597 150.013 144.653 151.487 144.023C153.636 143.209 155.909 142.762 158.209 142.702C159.565 142.71 160.909 142.448 162.16 141.932C163.411 141.416 164.545 140.656 165.494 139.698C166.237 138.916 166.829 138.196 168.195 138.196C168.452 138.217 168.709 138.166 168.939 138.05C169.168 137.933 169.36 137.755 169.493 137.537C169.626 137.318 169.694 137.066 169.69 136.811C169.685 136.556 169.609 136.307 169.469 136.093C168.68 134.786 169.394 134.065 170.016 133.194C171.532 130.973 173.63 129.202 176.086 128.072C176.837 127.704 177.424 127.073 177.732 126.302C178.04 125.531 178.049 124.673 177.755 123.896C177.361 122.304 175.995 123.07 175.039 122.92C174.438 122.875 173.834 122.875 173.233 122.92L131 123.686ZM48.6146 91.0772L48.387 91.693C49.1306 92.3088 49.9045 92.9547 50.6329 93.5405C60.4512 101.186 70.3606 108.726 80.0575 116.491C82.2733 118.314 85.1021 119.242 87.9789 119.09C108.359 118.744 128.724 118.534 149.104 118.264C153.9 118.189 158.695 118.114 163.49 117.993C164.113 117.993 164.902 118.279 165.311 117.498C165.311 117.363 165.311 117.227 165.205 117.182C154.583 108.801 144.355 99.9391 133.96 91.2875C132.859 90.4308 131.469 90.0225 130.075 90.1459C103.7 90.4764 77.326 90.7868 50.9516 91.0772H48.6146ZM81.7116 175.956V170.534C81.7116 155.904 81.7116 141.275 81.8178 126.66C81.8738 125.884 81.7258 125.106 81.388 124.404C81.0503 123.701 80.5344 123.096 79.8906 122.65C67.9124 113.267 55.9645 103.839 44.0469 94.3666C43.4703 93.916 42.9998 93.15 42.0286 93.3452C41.725 94.2861 41.6522 95.2849 41.8162 96.2592C41.9679 111.475 42.1804 126.69 42.2714 141.921C42.2234 142.735 42.383 143.549 42.7357 144.286C43.0884 145.024 43.6228 145.662 44.2897 146.141C56.0505 155.619 67.7657 165.187 79.496 174.68C80.052 175.359 80.8402 175.813 81.7116 175.956ZM26.5348 3.73478C26.3278 3.76402 26.1244 3.81436 25.9278 3.885C25.5788 4.08026 25.2449 4.29054 24.9111 4.51584C16.9756 9.93625 10.6805 17.3925 6.7009 26.0848C0.919176 38.867 0.0542018 51.9196 5.92698 64.882C11.997 78.1748 22.6196 86.0154 36.8387 89.1846C39.8738 89.8455 39.8738 89.7104 39.6158 86.7364C39.5247 85.745 39.3882 84.7687 39.2212 83.7323C36.8084 69.5082 34.9115 55.194 32.9084 40.9098C31.315 29.4493 29.6305 18.004 27.673 6.60365C27.6461 5.54467 27.2431 4.52893 26.5348 3.73478V3.73478ZM91.105 45.6862C91.1572 51.0811 92.3744 56.4025 94.675 61.2935C96.9756 66.1846 100.306 70.532 104.444 74.0443C111.465 80.1349 119.988 84.2803 129.149 86.0604C132.017 86.6763 132.184 86.5561 131.516 83.7774C131.516 83.5821 131.41 83.4019 131.365 83.2066C127.874 67.6857 124.379 52.1649 120.879 36.644C118.724 27.1212 116.559 17.6084 114.384 8.10566C113.898 5.98782 113.079 5.68742 111.349 6.91908C111.031 7.15743 110.727 7.41317 110.438 7.6851C105.603 11.8312 101.442 16.6896 98.1008 22.0895C93.6869 29.1978 91.2717 37.3442 91.105 45.6862V45.6862ZM160.82 105.767C164.538 105.106 166.662 103.439 167.36 100.69C164.603 101.506 162.264 103.333 160.82 105.797V105.767ZM167.208 87.8629C167.216 86.9979 167.005 86.1448 166.594 85.3813C166.183 84.6179 165.586 83.9683 164.856 83.492C164.729 83.4395 164.592 83.4125 164.454 83.4125C164.316 83.4125 164.179 83.4395 164.052 83.492C163.733 83.6272 163.764 83.9726 163.855 84.243C164.125 85.0462 164.563 85.7838 165.141 86.4076C165.719 87.0314 166.423 87.5274 167.208 87.8629V87.8629ZM129.984 166.569C129.548 166.595 129.136 166.775 128.822 167.075C128.507 167.375 128.311 167.776 128.269 168.206C128.231 168.6 128.351 168.993 128.604 169.299C128.857 169.606 129.222 169.801 129.62 169.843C129.837 169.876 130.059 169.861 130.27 169.801C130.482 169.74 130.677 169.634 130.843 169.491C131.009 169.349 131.142 169.172 131.232 168.973C131.322 168.774 131.367 168.559 131.365 168.341C131.404 168.133 131.398 167.92 131.348 167.715C131.298 167.509 131.205 167.317 131.074 167.149C130.944 166.982 130.78 166.844 130.592 166.744C130.404 166.644 130.197 166.584 129.984 166.569ZM161.032 177.158C161.943 177.158 162.55 176.767 162.625 175.836C162.701 174.905 162.276 174.259 161.305 174.334C160.907 174.315 160.516 174.442 160.208 174.692C159.899 174.942 159.696 175.296 159.636 175.686C159.608 175.879 159.625 176.075 159.683 176.26C159.742 176.446 159.842 176.616 159.976 176.759C160.11 176.901 160.274 177.012 160.457 177.084C160.639 177.156 160.836 177.186 161.032 177.173V177.158ZM179.075 154.628C179.075 154.312 179.075 153.832 178.969 153.336C178.863 152.84 178.605 151.834 177.755 151.984C176.905 152.134 176.632 153.005 176.92 153.877C177.075 154.342 177.268 154.794 177.497 155.228C177.74 155.664 178.089 156.07 178.681 155.799C179.273 155.529 179.182 155.258 179.075 154.658V154.628ZM166.935 72.9178C166.75 71.94 166.216 71.0606 165.431 70.4402C164.645 69.8197 163.66 69.4996 162.656 69.5382C163.035 70.403 163.619 71.1645 164.358 71.7581C165.098 72.3516 165.972 72.7598 166.905 72.9478L166.935 72.9178ZM172.884 166.298C172.717 165.682 172.368 165.082 171.564 165.127C171.371 165.122 171.18 165.16 171.003 165.236C170.827 165.313 170.67 165.427 170.542 165.57C170.415 165.713 170.321 165.882 170.267 166.065C170.213 166.248 170.199 166.44 170.228 166.629C170.236 166.973 170.378 167.301 170.623 167.544C170.869 167.788 171.201 167.928 171.548 167.936C172.489 168.071 172.702 167.215 172.853 166.328L172.884 166.298ZM179.075 138.15C179.151 137.414 178.954 136.769 178.271 136.769C177.042 136.769 177.027 137.835 176.89 138.646C176.862 138.793 176.863 138.944 176.895 139.091C176.926 139.237 176.986 139.376 177.073 139.499C177.159 139.622 177.269 139.727 177.396 139.808C177.524 139.888 177.667 139.943 177.816 139.968C179.015 140.013 178.878 138.917 179.045 138.181L179.075 138.15ZM141.335 176.392C141.209 176.051 140.976 175.759 140.67 175.559C140.364 175.359 140.001 175.261 139.635 175.28C138.785 175.28 137.981 175.596 138.118 176.542C138.254 177.488 139.134 177.578 139.908 177.624C140.08 177.636 140.252 177.614 140.415 177.561C140.578 177.507 140.729 177.422 140.859 177.31C140.988 177.198 141.095 177.062 141.171 176.91C141.248 176.758 141.293 176.592 141.304 176.422L141.335 176.392ZM149.165 162.784C148.995 162.757 148.821 162.77 148.657 162.821C148.492 162.872 148.342 162.959 148.217 163.077C148.092 163.195 147.997 163.339 147.937 163.499C147.878 163.659 147.857 163.831 147.875 164C147.875 164.977 148.437 165.397 149.393 165.337C150.349 165.277 150.758 164.961 150.728 164.12C150.698 163.279 150.045 162.799 149.135 162.814L149.165 162.784ZM169.181 62.4487C169.697 61.6496 170.023 60.7455 170.136 59.804C170.249 58.8625 170.146 57.9078 169.834 57.0114C169.157 57.7381 168.728 58.656 168.605 59.6366C168.483 60.6171 168.674 61.6109 169.151 62.4787L169.181 62.4487ZM164.173 156.64C164.917 156.475 165.463 156.13 165.357 155.288C165.251 154.447 164.932 154.177 164.234 154.282C163.536 154.387 162.914 154.748 163.005 155.604C163.024 155.893 163.158 156.164 163.376 156.358C163.594 156.551 163.88 156.653 164.173 156.64ZM172.322 79.752C172.831 79.5841 173.282 79.2808 173.628 78.8753C173.973 78.4699 174.199 77.978 174.28 77.4539C173.785 77.6431 173.346 77.9529 173.004 78.3546C172.661 78.7563 172.427 79.2369 172.322 79.752V79.752Z" fill="#383838"/>
<path d="M28.0527 150.046C30.162 154.627 35.6402 155.679 37.7192 160.23C38.9029 159.629 38.9788 158.533 39.4795 157.782C40.3956 156.118 41.8338 154.795 43.5768 154.012C44.1603 153.713 44.821 153.595 45.4731 153.673C46.1252 153.751 46.7387 154.02 47.234 154.447C47.751 154.922 48.1083 155.543 48.2575 156.225C48.4068 156.907 48.3409 157.618 48.0687 158.262C47.7222 159.358 47.1136 160.355 46.2946 161.168C45.4756 161.982 44.4704 162.587 43.3644 162.934C40.0865 163.955 39.5402 165.938 40.0106 168.942C40.2079 170.203 40.5721 170.669 41.8165 170.624C43.8172 170.521 45.8228 170.683 47.7803 171.105C48.5998 171.3 49.4192 171.57 49.2978 172.607C49.1764 173.643 48.448 173.928 47.6438 174.109C42.8185 174.947 37.8871 174.998 33.0453 174.259C32.1196 174.094 31.1636 173.793 31.0877 172.757C31.0118 171.72 32.1499 171.18 33.106 170.954C34.0756 170.727 35.0686 170.611 36.0651 170.609C37.3095 170.609 37.871 170.068 37.871 168.822C37.9178 166.037 37.1368 163.3 35.625 160.951C34.7752 159.704 33.8951 159.179 32.4079 160.005C31.1737 160.682 29.7602 160.97 28.3562 160.831C27.1421 160.726 25.8826 160.44 25.5791 159.028C25.2756 157.616 26.2316 156.865 27.4456 156.385L29.3729 155.634C28.7111 154.462 27.7821 153.459 26.6598 152.706C25.5375 151.952 24.2529 151.468 22.9083 151.293C21.312 151.1 19.7865 150.528 18.462 149.626C17.081 148.694 16.5347 147.448 16.9444 146.396C17.2168 145.861 17.6671 145.434 18.2197 145.188C18.7723 144.941 19.3937 144.891 19.9795 145.045C20.6696 145.134 21.3502 145.285 22.013 145.495C22.5744 145.66 23.1207 145.916 24.1982 146.321C23.6519 142.386 24.3044 138.811 24.3044 135.206C24.3044 133.99 23.7277 133.704 22.6048 133.885C21.7236 134.052 20.8307 134.153 19.9339 134.185C18.631 134.274 17.3275 134.02 16.1551 133.451C14.9827 132.881 13.983 132.015 13.2569 130.941C12.7302 130.333 12.416 129.574 12.3613 128.775C12.3066 127.976 12.5143 127.182 12.9534 126.51C13.4364 125.869 14.1121 125.395 14.8836 125.158C15.6551 124.92 16.4828 124.931 17.2479 125.188C18.6068 125.529 19.8887 126.12 21.0266 126.93C21.755 127.411 22.2861 128.207 23.4091 128.432C23.0904 125.248 21.0114 123.04 19.4484 120.637C18.1585 118.639 16.4133 116.987 15.2145 114.899C14.7592 114.103 13.955 114.013 13.2569 113.652C12.1181 113.108 11.1594 112.254 10.493 111.19C9.82656 110.126 9.47989 108.896 9.49347 107.644C9.42282 106.847 9.62132 106.048 10.0579 105.374C10.4945 104.7 11.1446 104.189 11.9063 103.919C12.6402 103.745 13.4109 103.808 14.1067 104.097C14.8025 104.385 15.3872 104.886 15.776 105.526C17.0912 107.183 17.7254 109.27 17.5515 111.369C17.248 114.719 18.902 116.957 21.1631 119.03C22.2709 118.774 22.5896 117.663 23.4394 117.152C23.8261 116.834 24.3045 116.646 24.806 116.613C25.3075 116.581 25.8065 116.707 26.2316 116.972C26.641 117.265 26.9484 117.677 27.1114 118.15C27.2745 118.624 27.2852 119.136 27.1421 119.615C26.9092 120.812 26.2393 121.881 25.2604 122.619C24.6383 123.13 23.9857 123.641 24.441 124.587C26.8083 129.544 26.3986 134.786 26.1709 140.028C26.1709 141.365 26.1709 142.716 26.1709 144.534C27.4456 143.422 28.2499 142.596 29.206 141.935C30.8145 140.794 32.241 140.809 33.3032 141.83C33.7659 142.418 34.0172 143.143 34.0172 143.888C34.0172 144.633 33.7659 145.358 33.3032 145.946C32.1499 147.763 30.162 148.709 28.0527 150.046ZM22.5744 131.256C21.9764 130.243 21.1797 129.358 20.2311 128.653C19.2824 127.949 18.2011 127.44 17.0507 127.155C16.2768 126.945 15.3814 126.825 14.911 127.666C14.7572 128.031 14.7126 128.431 14.7826 128.82C14.8525 129.209 15.0341 129.57 15.3055 129.859C16.7927 131.932 19.5546 132.503 22.5744 131.241V131.256ZM40.0714 162.198C42.1328 161.596 43.983 160.436 45.413 158.848C46.02 158.052 46.5967 157.031 45.7772 156.174C44.9577 155.318 43.9107 156.054 43.1823 156.64C41.5109 158.061 40.4076 160.027 40.0714 162.183V162.198ZM15.5332 110.543C15.4856 109.263 15.0926 108.018 14.395 106.938C14.0005 106.353 13.4845 105.752 12.7258 105.962C11.967 106.172 11.7546 107.104 11.8001 107.9C11.8327 108.631 12.0498 109.343 12.4315 109.97C12.8131 110.597 13.3473 111.119 13.9853 111.489C14.3053 111.704 14.6961 111.79 15.0779 111.73C15.6849 111.565 15.4573 110.994 15.5332 110.543ZM27.8857 147.643C29.4506 146.995 30.7866 145.903 31.725 144.504C31.892 144.173 32.0741 143.753 31.725 143.437C31.5707 143.313 31.3778 143.245 31.1787 143.245C30.9797 143.245 30.7867 143.313 30.6324 143.437C29.9082 143.915 29.2907 144.535 28.8182 145.258C28.3458 145.982 28.0284 146.793 27.8857 147.643V147.643ZM19.5849 147.192C20.1276 147.809 20.8075 148.293 21.5711 148.606C22.3348 148.919 23.1613 149.052 23.9857 148.995C23.461 148.356 22.784 147.857 22.0157 147.543C21.2474 147.228 20.412 147.108 19.5849 147.192ZM31.0725 157.812C30.6104 157.675 30.1204 157.659 29.65 157.764C29.1795 157.869 28.7444 158.092 28.3865 158.413C28.8353 158.635 29.3483 158.697 29.8381 158.588C30.3279 158.478 30.7641 158.204 31.0725 157.812V157.812ZM23.3635 121.057C24.441 120.742 24.881 120.216 24.9873 119.375C24.9873 119.3 24.6686 119.105 24.5927 119.15C24.2471 119.345 23.9546 119.621 23.7405 119.954C23.5264 120.286 23.397 120.665 23.3635 121.057V121.057Z" fill="#383838"/>
<path d="M38.5081 178.78C34.6654 178.556 30.851 177.988 27.1116 177.083C25.8548 176.815 24.6636 176.305 23.6061 175.581C23.2806 175.389 23.0063 175.123 22.8062 174.805C22.6062 174.486 22.4863 174.125 22.4565 173.751C22.4268 173.378 22.4881 173.002 22.6354 172.657C22.7826 172.311 23.0114 172.006 23.3026 171.766C24.6379 170.575 26.3026 169.806 28.0828 169.558C28.2034 169.522 28.3303 169.511 28.4554 169.526C28.5804 169.541 28.7009 169.582 28.8093 169.646C28.9177 169.709 29.0116 169.794 29.0851 169.895C29.1586 169.997 29.21 170.112 29.2361 170.234C29.2891 170.476 29.2483 170.73 29.1219 170.944C28.9955 171.158 28.7926 171.317 28.5533 171.391C27.5517 171.841 26.5046 172.172 25.5182 172.697C24.5318 173.223 24.6077 173.914 25.5941 174.395C27.4177 175.181 29.3433 175.712 31.3151 175.972C33.9556 176.452 36.6416 176.557 39.3124 176.783C40.2078 176.858 41.7253 176.648 41.6039 177.984C41.4825 179.321 40.0864 178.765 39.1303 178.841L38.5081 178.78Z" fill="#383838"/>
<path d="M52.029 177.368C51.2399 177.368 50.7846 177.143 50.6784 176.617C50.6287 176.371 50.6788 176.114 50.8178 175.904C50.9568 175.693 51.1737 175.545 51.4219 175.491C52.971 175.139 54.432 174.48 55.7165 173.553C55.8825 173.44 56.0853 173.393 56.2848 173.421C56.4843 173.448 56.666 173.549 56.794 173.703C56.9668 173.887 57.0628 174.129 57.0628 174.379C57.0628 174.63 56.9668 174.872 56.794 175.055C55.5648 176.722 53.6375 176.948 52.029 177.368Z" fill="#383838"/>
<path d="M54.7607 171.18C54.7314 171.3 54.6759 171.411 54.5982 171.507C54.5205 171.603 54.4225 171.681 54.3111 171.736C54.1997 171.79 54.0776 171.82 53.9534 171.822C53.8292 171.825 53.706 171.801 53.5923 171.751C52.3577 171.145 51.1571 170.473 49.9958 169.738C49.8296 169.625 49.7114 169.456 49.6638 169.262C49.6162 169.068 49.6425 168.863 49.7378 168.687C49.8204 168.506 49.964 168.359 50.1439 168.272C50.3238 168.184 50.529 168.161 50.7242 168.206C52.2929 168.491 53.699 169.342 54.6697 170.595C54.7759 170.73 54.7304 170.97 54.7607 171.18Z" fill="#383838"/>
<path d="M103.594 23.757C103.487 24.0938 103.339 24.4166 103.154 24.7183C101.322 27.6557 99.8835 30.8164 98.8747 34.1209C98.7997 34.4062 98.7085 34.687 98.6015 34.9621C98.2828 35.5929 97.9186 36.2688 97.084 35.9234C96.2494 35.5779 96.5073 34.9921 96.6136 34.4213C96.6348 34.3236 96.6653 34.228 96.7046 34.1359C97.6913 30.8218 99.0611 27.6315 100.787 24.6282C101.196 23.9673 101.545 23.1261 102.304 22.8858C103.063 22.6455 103.473 22.8708 103.594 23.757Z" fill="#383838"/>
<path d="M96.6442 45.506C96.7352 46.8579 96.8414 48.0445 96.9173 49.216C96.9173 49.8168 96.9173 50.4627 96.1586 50.6129C95.3998 50.7631 95.0356 50.2374 94.9294 49.6366C94.4617 46.8259 94.3954 43.9642 94.7321 41.1352C94.7377 41.0127 94.7684 40.8926 94.8225 40.7823C94.8766 40.672 94.9528 40.5737 95.0466 40.4936C95.1403 40.4134 95.2496 40.3531 95.3678 40.3162C95.4859 40.2793 95.6104 40.2666 95.7337 40.279C95.9847 40.2982 96.2179 40.4147 96.3827 40.6031C96.5475 40.7916 96.6306 41.0367 96.6138 41.2854C96.6745 42.7574 96.6442 44.2293 96.6442 45.506Z" fill="#383838"/>
</svg>
