<svg width="81" height="80" viewBox="0 0 81 80" fill="none" xmlns="http://www.w3.org/2000/svg">
<path d="M79.7772 38.4882C80.7746 39.836 80.7517 39.8303 79.3759 40.6094C76.1084 42.4885 73.0561 44.7137 70.2727 47.2462C69.8943 47.5817 69.8542 47.8149 70.2154 48.1845C71.1727 49.1855 72.1071 50.2034 73.03 51.2328C73.758 52.046 73.7351 52.1768 72.9039 52.9389L71.081 54.5711C70.4562 55.1398 70.1179 55.1398 69.5733 54.5085C68.8625 53.6725 68.2205 52.8024 67.5498 51.9096C67.3778 51.6878 67.2001 51.466 67.0453 51.2271C66.7701 50.8063 66.5237 50.8745 66.2141 51.2271C63.4583 54.0389 61.0893 57.1998 59.1689 60.6278C59.0517 60.8423 58.9925 61.0833 58.9969 61.3273C58.9953 61.7004 58.9059 62.068 58.7357 62.4008C58.5655 62.7335 58.3192 63.0222 58.0166 63.2438C57.4964 63.7303 56.8634 64.0823 56.1736 64.2688C55.4838 64.4552 54.7583 64.4704 54.0612 64.3129C53.6435 64.2397 53.214 64.271 52.8115 64.4039C48.9471 65.3906 45.2622 66.9718 41.8911 69.09C37.3789 71.8648 33.2559 75.2188 29.6293 79.0651C28.3911 80.3617 27.7318 80.3105 26.6656 78.9058L3.34008 48.2244C2.80123 47.5192 2.29104 46.7912 1.69486 46.1372C1.54662 46.0133 1.45337 45.8366 1.43514 45.6452C1.41691 45.4537 1.47518 45.2628 1.59742 45.1136C1.82899 44.7569 2.10434 44.4303 2.41716 44.1411C2.99041 43.6122 2.99041 43.6065 2.49168 42.9582C2.09614 42.4179 1.71207 41.8606 1.28213 41.3431C1.06446 41.1104 0.93376 40.8108 0.911853 40.4941C0.889946 40.1774 0.978143 39.8628 1.16174 39.6028C2.04966 37.9933 3.08799 36.4701 4.26304 35.0532C6.70196 32.1011 9.51947 29.478 12.6439 27.2506C16.0095 24.8542 19.8849 23.2567 23.9714 22.5816C24.8828 22.4223 25.7828 22.2062 26.6886 22.0129C26.8624 21.9994 27.0276 21.9325 27.1612 21.8213C27.2948 21.7102 27.3901 21.5605 27.4338 21.393C27.7263 20.6381 28.1114 19.9219 28.5803 19.2604C32.0891 13.7144 36.5905 8.85165 41.8625 4.912C44.7249 2.74154 47.9922 1.1547 51.4759 0.242957C53.1956 -0.177883 53.1956 -0.172208 54.2676 1.24386L79.7428 35.2238L80.1211 35.7357C81.2332 37.1574 81.2103 37.3508 79.7772 38.4882ZM56.3256 60.8439C56.4259 60.7367 56.5161 60.6206 56.595 60.4969C58.4199 56.1161 61.0566 52.1134 64.3682 48.6964C64.758 48.2869 64.695 48.0139 64.3682 47.6215C62.895 45.7221 61.4504 43.7942 59.9829 41.889C59.4555 41.2066 59.4096 41.218 58.6071 41.6559C56.4164 42.8433 53.8949 43.2889 51.4256 42.9251C48.9563 42.5613 46.6742 41.4078 44.9259 39.64C43.1777 37.8722 42.0588 35.5866 41.7392 33.1304C41.4197 30.6742 41.917 28.1816 43.1555 26.0314C44.3941 23.8811 46.3062 22.1906 48.6015 21.2168C50.8967 20.2429 53.4496 20.0388 55.8725 20.6355C58.2953 21.2323 60.4556 22.5972 62.0252 24.523C63.5948 26.4488 64.4879 28.8302 64.5689 31.3055C64.6785 33.9048 63.8672 36.4601 62.2759 38.528C61.7886 39.1763 61.7657 39.0967 62.3504 39.7223C63.9899 41.4284 65.6236 43.1629 67.223 44.9088C67.6013 45.324 67.8421 45.3297 68.2606 44.9714C71.6084 42.0994 75.1396 39.4607 79.267 37.8001C80.316 37.3792 80.316 37.1802 79.6339 36.2702L71.4192 25.3113C65.4574 17.3495 59.4975 9.38768 53.5395 1.42585C53.3899 1.15712 53.1471 0.951387 52.8561 0.846803C52.5652 0.74222 52.2458 0.745892 51.9574 0.857147C49.0923 1.56716 46.3756 2.77227 43.9319 4.41723C37.4714 8.67681 32.5185 14.3468 28.5057 20.8698C28.267 21.1868 28.1467 21.5762 28.1656 21.9715C28.1844 22.3668 28.3411 22.7433 28.6089 23.0365C37.6204 35.2902 46.6013 47.5628 55.5516 59.8543C55.7924 60.1557 56.0332 60.4571 56.3256 60.8439ZM55.609 61.3557C55.4361 60.9248 55.1898 60.5266 54.881 60.1785C46.0911 48.1485 37.3013 36.1262 28.5115 24.1114C27.1414 22.2347 27.7949 22.5588 25.6452 22.974C23.1975 23.4346 20.7268 23.8441 18.4452 24.8734C11.3885 28.0582 6.03435 33.1139 2.01588 39.6597C1.84664 39.8784 1.76325 40.1506 1.78117 40.4257C1.7991 40.7008 1.91715 40.9601 2.11335 41.1554C10.6586 52.5332 19.2057 63.93 27.7548 75.3458C28.6433 76.5344 28.6548 76.5457 29.6752 75.4652C33.1165 71.7845 37.079 68.6197 41.4383 66.0702C43.924 64.6175 46.5915 63.4952 49.372 62.732C51.4263 62.1691 53.5079 61.7097 55.609 61.3557ZM61.9663 31.7092C61.9788 29.9512 61.4651 28.229 60.4904 26.7607C59.5156 25.2924 58.1236 24.1441 56.4906 23.4612C54.8576 22.7783 53.057 22.5914 51.3169 22.9243C49.5768 23.2572 47.9754 24.0949 46.7154 25.3313C45.4555 26.5677 44.5937 28.1471 44.2392 29.8697C43.8847 31.5923 44.0534 33.3805 44.7239 35.0079C45.3945 36.6353 46.5367 38.0287 48.006 39.0117C49.4753 39.9947 51.2056 40.523 52.9778 40.5298C55.3481 40.5404 57.6258 39.6176 59.311 37.9639C60.9962 36.3102 61.9512 34.0607 61.9663 31.7092ZM65.2854 48.9523C64.97 49.1081 64.6997 49.341 64.5001 49.6291C61.4557 52.8583 59.0261 56.6078 57.3287 60.696C57.2008 61.0926 56.9571 61.4427 56.6285 61.7019C56.2999 61.961 55.9012 62.1176 55.4829 62.1519C50.4555 62.9253 45.6344 64.3186 41.2605 67.0086C37.8129 69.0834 34.6262 71.5575 31.7675 74.379C31.0452 75.1069 30.3344 75.8519 29.6006 76.5685C28.6376 77.4955 28.3796 77.4727 27.6057 76.449L27.2217 75.9372L4.13691 45.1079C3.42608 44.1524 3.20824 44.1581 2.52608 45.0453C2.46696 45.0986 2.41974 45.1636 2.38742 45.2361C2.3551 45.3085 2.3384 45.3869 2.3384 45.4661C2.3384 45.5454 2.3551 45.6238 2.38742 45.6962C2.41974 45.7687 2.46696 45.8337 2.52608 45.887C2.69232 46.069 2.82419 46.2794 2.97897 46.4557L17.8204 66.0134L26.6083 77.5694C28.0815 79.5087 28.1045 79.5144 29.7382 77.831C32.7208 74.7454 36.0304 71.9883 39.6096 69.6076C43.7198 66.8892 48.0708 64.694 52.9147 63.5679C53.3211 63.4494 53.7512 63.4357 54.1644 63.5281C54.7731 63.6741 55.4095 63.6618 56.012 63.4925C56.6146 63.3231 57.1628 63.0024 57.6039 62.5613C57.9013 62.3507 58.1063 62.0354 58.1771 61.6799C58.3205 60.3377 59.037 59.2401 59.7307 58.1425C61.4058 55.558 63.3253 53.1377 65.4632 50.9143C66.2542 50.067 66.2542 50.067 65.5491 49.2082C65.4691 49.1152 65.3809 49.0296 65.2854 48.9523ZM79.5651 39.5687C78.9918 38.7327 78.9918 38.7213 78.1663 39.091C74.6122 40.7004 71.5969 43.1003 68.6504 45.5856C68.3466 45.8415 68.3179 46.0519 68.5816 46.3761C69.2007 47.1211 69.2466 47.1495 69.9631 46.5069C72.5448 44.1992 75.3393 42.1371 78.3097 40.3478C78.7592 40.1456 79.181 39.8876 79.5651 39.5801V39.5687Z" fill="#383838"/>
<path d="M45.1657 35.9216C44.3005 34.3872 43.9107 32.6304 44.0458 30.8741C44.1808 29.1178 44.8347 27.4412 45.9243 26.0572C47.0139 24.6731 48.4901 23.644 50.1656 23.1005C51.8412 22.5569 53.6404 22.5234 55.335 23.0043C57.0296 23.4851 58.5431 24.4586 59.6834 25.8011C60.8238 27.1437 61.5395 28.7947 61.7398 30.5448C61.9401 32.2949 61.6159 34.065 60.8084 35.6304C60.0009 37.1959 58.7465 38.4862 57.2043 39.3375C55.1521 40.4676 52.737 40.7427 50.4831 40.1032C48.2293 39.4637 46.3186 37.9611 45.1657 35.9216V35.9216ZM49.3117 25.3057C48.4018 25.8257 47.6189 26.5414 47.0196 27.4011C46.4884 28.1542 46.6306 28.0392 47.2741 28.33C51.239 30.127 55.2128 31.9163 59.1957 33.698C59.8743 34.0051 59.8951 34.187 60.0819 33.2302C60.6698 30.205 59.7914 27.6567 57.3265 25.8085C54.8084 23.9251 52.0811 23.8787 49.3117 25.3057ZM59.1816 35.4735C59.1145 35.4141 59.0429 35.36 58.9674 35.3117C54.7793 33.407 50.5905 31.5052 46.4009 29.6062C46.0098 29.4295 46.0008 29.4457 45.8805 29.8774C45.8557 29.9612 45.8396 30.0474 45.8219 30.1308C45.5814 31.2615 45.6132 32.4332 45.9149 33.5492C46.2165 34.6651 46.7793 35.6933 47.5567 36.5489C48.3342 37.4045 49.304 38.0628 50.386 38.4696C51.4681 38.8764 52.6314 39.02 53.7799 38.8885C56.0951 38.6204 57.8729 37.4659 59.1816 35.4735Z" fill="#CE1055" stroke="#CE1055"/>
<path d="M12.5008 11.8276C12.8218 11.8276 12.9995 12.0721 13.2174 12.2484L19.0072 17.0426C19.3626 17.3326 19.7238 17.6113 20.0677 17.9184C20.2569 18.0776 20.4632 18.288 20.2282 18.5383C19.9932 18.7885 19.7811 18.5781 19.5747 18.4473C19.4887 18.3904 19.4084 18.3165 19.3282 18.2539C17.1728 16.4796 15.0212 14.7033 12.8734 12.9252C12.6525 12.7521 12.4593 12.5469 12.3002 12.3167C12.1568 12.1119 12.2772 11.9186 12.5008 11.8276Z" fill="#383838"/>
<path d="M21.8165 15.8313C21.8098 15.8737 21.7937 15.9141 21.7694 15.9496C21.7451 15.9851 21.7131 16.0148 21.6758 16.0366C21.6385 16.0583 21.5968 16.0716 21.5537 16.0755C21.5106 16.0793 21.4673 16.0736 21.4267 16.0588C21.2287 15.977 21.0648 15.8305 20.9623 15.6436L18.6693 12.584C18.5841 12.4715 18.5093 12.3516 18.4457 12.2257C18.3972 12.1499 18.3802 12.0583 18.3984 11.9702C18.4166 11.8822 18.4685 11.8045 18.5432 11.7537C18.6228 11.7121 18.7147 11.6995 18.8027 11.7183C18.8907 11.737 18.9693 11.7857 19.0247 11.8561C19.0996 11.9304 19.1685 12.0102 19.2311 12.0949C20.0164 13.1414 20.796 14.1935 21.5757 15.2399C21.6565 15.3153 21.7199 15.4073 21.7615 15.5094C21.803 15.6115 21.8218 15.7213 21.8165 15.8313V15.8313Z" fill="#383838"/>
<path d="M14.5702 17.5887C14.5702 17.7479 14.4842 17.8901 14.3352 17.8844C13.6329 17.845 12.9627 17.5795 12.4263 17.128C12.2256 16.9688 12.3173 16.73 12.5696 16.6503C13.2917 16.748 13.9735 17.039 14.5415 17.492C14.5702 17.5204 14.5702 17.5603 14.5702 17.5887Z" fill="#383838"/>
<path d="M23.2779 12.1855C23.1977 12.4585 23.0544 12.5722 22.8079 12.4755C22.6257 12.347 22.4782 12.1761 22.3782 11.9778C22.2783 11.7795 22.229 11.5598 22.2346 11.3381C22.2977 11.0879 22.5098 10.9912 22.7047 11.1505C22.992 11.4337 23.191 11.7931 23.2779 12.1855V12.1855Z" fill="#383838"/>
<path d="M58.4294 19.1121C58.4294 19.2827 58.2688 19.3339 58.1255 19.351C57.8758 19.3502 57.6321 19.2749 57.4262 19.1349C55.8612 18.3693 54.1315 17.9944 52.3873 18.0429C52.0949 18.0429 51.6421 18.1738 51.6191 17.7302C51.5962 17.2866 52.0548 17.315 52.3529 17.3093C54.3487 17.2491 56.3255 17.71 58.0854 18.6458C58.3892 18.8107 58.458 18.9358 58.4294 19.1121Z" fill="#383838"/>
<path d="M56.6694 16.1835C56.6615 16.2383 56.6415 16.2907 56.6108 16.3369C56.5801 16.3831 56.5394 16.4221 56.4917 16.4509C56.4441 16.4797 56.3905 16.4977 56.335 16.5035C56.2795 16.5094 56.2234 16.503 56.1707 16.4849C55.4541 16.3143 54.7318 16.1266 54.0153 15.9162C53.9449 15.9019 53.8816 15.8643 53.8357 15.8095C53.7899 15.7547 53.7642 15.686 53.763 15.6148C53.7595 15.5438 53.7828 15.4741 53.8284 15.4194C53.8741 15.3647 53.9387 15.3289 54.0095 15.319C54.8938 15.2786 55.7718 15.4855 56.5433 15.9162C56.6121 15.9673 56.635 16.1095 56.6694 16.1835Z" fill="#383838"/>
<path d="M76.2283 15.6874C76.0629 15.6874 75.8738 15.6874 75.6848 15.6327C75.5896 15.6186 75.5014 15.5746 75.4334 15.507C75.3653 15.4395 75.3209 15.3521 75.3068 15.2576C75.2888 15.1617 75.307 15.0626 75.3578 14.979C75.4086 14.8955 75.4885 14.8334 75.5824 14.8044C76.1786 14.6326 76.8068 14.6005 77.4176 14.7106C77.5123 14.7261 77.5975 14.7766 77.656 14.8521C77.7145 14.9275 77.7419 15.0222 77.7327 15.117C77.7322 15.2143 77.6972 15.3084 77.6339 15.3827C77.5705 15.457 77.4828 15.5067 77.3861 15.5233C77.0159 15.5936 76.6378 15.6327 76.2283 15.6874Z" fill="#383838"/>
<path d="M26.2414 65.7009C25.9949 63.8242 27.3879 62.9654 28.6548 62.0669C29.337 61.5835 29.6006 61.6745 30.2255 62.2944C31.3319 63.392 32.421 64.5066 33.5159 65.6156C33.6879 65.7862 33.814 66.0251 34.1236 65.9511C34.2237 65.9305 34.3165 65.8837 34.3923 65.8155C34.4681 65.7473 34.5241 65.6602 34.5545 65.5633C34.5849 65.4664 34.5887 65.3632 34.5653 65.2644C34.5419 65.1656 34.4924 65.0748 34.4217 65.0014C34.0777 64.5578 33.7051 64.1256 33.344 63.6877C31.9223 61.9816 30.5178 60.2357 29.0675 58.5694C28.8299 58.3097 28.6499 58.0034 28.5393 57.6703C28.4287 57.3372 28.3899 56.9847 28.4255 56.6358C28.4607 56.2843 28.4703 55.9308 28.4541 55.578C28.4023 55.1927 28.441 54.8006 28.5674 54.4326C28.6937 54.0646 28.9041 53.7306 29.1822 53.4567C29.9437 52.616 30.9423 52.0216 32.0484 51.7506C32.2786 51.7237 32.5118 51.7631 32.7201 51.8639C32.9285 51.9647 33.1032 52.1228 33.2236 52.3193C34.5191 53.8207 35.8376 55.305 37.1331 56.8064C38.4287 58.3078 39.5694 59.6499 40.7905 61.0773C40.9223 61.2309 40.9911 61.4527 41.272 61.4356C41.7191 61.4015 41.8854 61.0432 41.6045 60.6338C40.4236 58.9277 39.2771 57.1647 38.0274 55.5154C37.3108 54.5657 36.9726 53.6558 37.4026 52.4956C37.6261 51.8871 37.586 51.2047 38.2166 50.744C39.0593 50.1355 39.8676 49.5327 40.9567 49.4303C41.1651 49.3929 41.3799 49.4153 41.5759 49.4949C41.7719 49.5745 41.9409 49.708 42.0631 49.8796C42.6363 50.6701 43.307 51.4265 43.8745 52.234C45.3994 54.4065 46.8898 56.596 48.386 58.7798C48.6956 59.2291 48.6038 59.4452 48.0535 59.5987C41.3694 61.447 35.8376 65.1891 30.856 69.8354L30.3229 70.3472C29.4573 71.1775 29.2624 71.1832 28.4771 70.2164C27.9038 69.4771 27.3306 68.6866 26.7573 67.9416C26.4785 67.6472 26.2838 67.2844 26.1931 66.8906C26.1025 66.4968 26.1191 66.0862 26.2414 65.7009V65.7009ZM40.4179 61.8565C40.1427 61.5096 39.9535 61.2536 39.7471 61.0148C37.5535 58.467 35.358 55.9249 33.1605 53.3885C32.1401 52.217 32.014 52.2056 30.7414 53.0757C30.5393 53.2152 30.3477 53.3692 30.1682 53.5363C29.3083 54.3041 29.2968 54.3496 30.0191 55.2425C32.1936 57.8471 34.3701 60.4499 36.5484 63.0507C36.6631 63.1872 36.7777 63.318 36.8866 63.4602C36.9223 63.5212 36.9712 63.5736 37.0297 63.6136C37.0882 63.6536 37.155 63.6803 37.2251 63.6917C37.2953 63.7032 37.3671 63.699 37.4354 63.6796C37.5038 63.6603 37.567 63.6261 37.6204 63.5796C38.509 62.9996 39.4147 62.4593 40.4179 61.8565ZM44.9121 59.758C45.4223 59.5873 45.9612 59.394 46.5 59.2177C47.4115 58.9163 47.4574 58.848 46.9529 58.0803C45.3937 55.7202 43.8402 53.3544 42.0975 51.1251C41.1 49.8512 40.7962 49.8057 39.4204 50.7327L39.2484 50.8521C38.5319 51.3867 38.5147 51.4549 39.0421 52.1942C40.5707 54.3439 42.1223 56.4936 43.6968 58.6433C43.9261 58.9561 44.1898 59.2404 44.4363 59.5418C44.484 59.6217 44.5551 59.6852 44.6401 59.7238C44.7252 59.7625 44.8201 59.7744 44.9121 59.758V59.758ZM30.8904 68.5273C30.9883 68.5231 31.0843 68.4987 31.1721 68.4556C31.26 68.4125 31.3378 68.3517 31.4006 68.2771C31.8822 67.862 32.3408 67.4241 32.8452 67.0373C33.2522 66.7245 33.2637 66.4686 32.914 66.0933C32.0885 65.2687 31.2917 64.427 30.4662 63.6024C29.1707 62.3057 29.165 62.3057 27.8637 63.6536C27.8121 63.7047 27.7662 63.7616 27.7146 63.8071C27.3592 64.0801 27.3765 64.3474 27.6631 64.6829C28.6433 65.8203 29.6007 67.0146 30.5637 68.1804C30.6726 68.2885 30.7987 68.4307 30.8904 68.5273ZM29.337 55.9135C29.1961 56.2957 29.1612 56.7083 29.2358 57.1084C29.3104 57.5085 29.4918 57.8814 29.7612 58.1883C31.2115 59.8262 32.5701 61.5494 33.9688 63.2384C34.3529 63.6991 34.7427 64.1597 35.1153 64.626C35.1529 64.6848 35.203 64.7346 35.2622 64.7719C35.3214 64.8091 35.3882 64.833 35.4577 64.8417C35.5273 64.8504 35.5979 64.8437 35.6646 64.8222C35.7312 64.8006 35.7923 64.7647 35.8433 64.717C36.4166 64.3417 36.5026 64.2166 36.0554 63.682C33.9573 61.1494 31.8554 58.6262 29.7497 56.1126C29.7109 56.0403 29.6501 55.9822 29.576 55.9464C29.5018 55.9106 29.4181 55.8991 29.337 55.9135V55.9135ZM38.3312 52.7459C38.1182 53.0001 38.0054 53.3224 38.0138 53.653C38.0223 53.9835 38.1514 54.2997 38.3771 54.5429C39.6555 56.3287 40.8822 58.1428 42.1319 59.9456C42.2075 60.0657 42.2897 60.1816 42.3784 60.2925C42.7166 60.6963 42.9516 60.7077 43.4733 60.3778C43.9949 60.048 43.5306 59.8091 43.3873 59.6101C41.893 57.5059 40.3854 55.4074 38.8644 53.3146C38.7396 53.0822 38.5558 52.8862 38.3312 52.7459V52.7459ZM27.2618 65.3767L27.0267 65.5018C26.895 65.9742 26.9171 66.4758 27.0898 66.935C27.6986 67.9327 28.3827 68.8833 29.1363 69.7785C29.3312 70.0173 29.5605 70.0572 29.7612 69.8183C29.9618 69.5794 30.4892 69.4088 30.1682 68.988C29.228 67.7539 28.2363 66.5824 27.2618 65.3767V65.3767Z" fill="#383838"/>
<path d="M11.788 35.9579C12.0111 35.9076 12.3607 36.1643 12.3665 36.349C12.3686 36.4215 12.3221 36.4615 12.2639 36.4973C10.9092 37.324 9.95762 38.5102 9.14898 39.8223C9.12178 39.8684 9.09458 39.9145 9.06494 39.9577C8.98133 40.0791 8.9195 40.2495 8.73803 40.2226C8.64216 40.2032 8.55181 40.1643 8.4729 40.1084C8.39399 40.0525 8.32829 39.9808 8.28011 39.8981C8.22272 39.8102 8.26274 39.7178 8.30521 39.6282C8.76101 38.6529 9.52882 37.8876 10.3109 37.1315C10.7105 36.7391 11.0431 36.2941 11.5541 36.0558C11.6375 36.0126 11.734 35.9805 11.788 35.9579Z" fill="#383838"/>
<path d="M17.6709 31.5939C17.8996 31.5961 18.1811 31.926 18.1445 32.1071C18.1299 32.1782 18.0755 32.2065 18.0107 32.228C16.5027 32.7226 15.3048 33.6594 14.2173 34.7516C14.1802 34.7902 14.1432 34.8289 14.1044 34.8641C13.9953 34.9632 13.8961 35.1149 13.7256 35.0471C13.6367 35.0063 13.5576 34.9478 13.4936 34.8753C13.4296 34.8028 13.3821 34.718 13.3541 34.6265C13.3183 34.5278 13.3785 34.4469 13.4403 34.3695C14.1073 33.5245 15.0299 32.9552 15.9643 32.3983C16.4431 32.1078 16.8687 31.7507 17.4208 31.6357C17.5118 31.6128 17.6131 31.6036 17.6709 31.5939Z" fill="#383838"/>
<path d="M24.8308 28.6298C25.0501 28.6947 25.2302 29.0893 25.1453 29.2534C25.1117 29.3177 25.0516 29.33 24.9834 29.3328C23.3975 29.3942 21.9884 29.966 20.6427 30.7174C20.5965 30.7444 20.5503 30.7714 20.5033 30.7947C20.3711 30.8599 20.2341 30.9785 20.0888 30.8666C20.0145 30.8029 19.9546 30.7249 19.9129 30.6376C19.8713 30.5504 19.8489 30.4558 19.8471 30.3601C19.8398 30.2554 19.9199 30.1941 20.0006 30.1367C20.874 29.5073 21.9175 29.2134 22.969 28.9345C23.5091 28.7867 24.0164 28.5603 24.5789 28.6013C24.6727 28.6043 24.7726 28.6232 24.8308 28.6298Z" fill="#383838"/>
<path d="M37.6664 43.0094C37.6687 44.2979 37.2859 45.5582 36.5664 46.6309C35.847 47.7037 34.8231 48.5408 33.6242 49.0365C32.4254 49.5322 31.1053 49.6642 29.8308 49.4158C28.5564 49.1675 27.3847 48.5499 26.4639 47.6412C25.5431 46.7325 24.9145 45.5733 24.6575 44.3103C24.4005 43.0473 24.5266 41.737 25.02 40.545C25.5134 39.3531 26.3518 38.333 27.4294 37.6136C28.5069 36.8943 29.7753 36.5079 31.0741 36.5034C32.8165 36.5034 34.4881 37.1878 35.7235 38.4069C36.9588 39.626 37.6573 41.2808 37.6664 43.0094V43.0094ZM30.0766 37.3906C29.2349 37.5273 28.4346 37.8485 27.7339 38.331C27.0332 38.8135 26.4499 39.4449 26.0264 40.1794C25.603 40.9139 25.3501 41.7329 25.2862 42.5766C25.2222 43.4204 25.3489 44.2677 25.6569 45.0567C26.0894 46.1946 26.8732 47.168 27.8964 47.8378C28.9195 48.5077 30.1298 48.8398 31.3545 48.7868C32.5793 48.7339 33.7558 48.2985 34.7164 47.5429C35.6769 46.7873 36.3723 45.75 36.7034 44.579C37.0015 43.5326 36.9155 43.4018 35.8722 43.3165C34.5308 43.2141 33.1932 43.1193 31.8594 43.0321C30.7129 42.9639 30.7129 42.9696 30.5753 41.8435C30.3403 40.3877 30.3804 38.8977 30.0766 37.3906ZM31.0339 38.9602C31.0798 39.4834 31.1544 40.4332 31.2461 41.3829C31.3206 42.2075 31.332 42.2303 32.1977 42.3099C33.5104 42.435 34.8174 42.5317 36.1301 42.617C36.8582 42.6625 36.9098 42.5772 36.7951 41.8435C36.563 40.751 36.0192 39.7477 35.2284 38.9532C34.4377 38.1587 33.4334 37.6064 32.3352 37.3622C30.9881 37.0892 30.9078 37.1631 31.0339 38.9602V38.9602Z" fill="#383838"/>
</svg>