<svg width="120" height="120" viewBox="0 0 120 120" fill="none" xmlns="http://www.w3.org/2000/svg">
<path d="M0.488941 48.42C0.333857 33.4492 0.171733 18.4534 0.00255118 3.43261C0.00255118 2.89794 0.00255118 2.36326 0.00255118 1.83928C-0.009305 1.63897 0.020253 1.43836 0.0893546 1.25026C0.158456 1.06216 0.26558 0.890691 0.40388 0.746802C0.54218 0.602913 0.708629 0.489763 0.892593 0.414573C1.07656 0.339382 1.27398 0.303807 1.4723 0.310112C1.93756 0.310112 2.39223 0.310112 2.85748 0.310112L72.5711 0C72.8354 0 73.0998 0 73.3641 0C75.3732 0 75.4789 0.139013 75.1723 2.20285C74.9765 4.18334 74.9765 6.17864 75.1723 8.15912C75.1723 9.04668 75.6693 9.22847 76.4412 9.22847C79.1375 9.22847 81.8232 9.22846 84.5196 9.30331C85.8307 9.30331 87.1419 9.45302 88.4531 9.45302C89.3096 9.45302 89.648 9.84869 89.6585 10.6507C89.6585 11.1747 89.6585 11.72 89.6585 12.244L89.1509 70.1705C89.1509 70.502 89.1509 70.8335 89.1509 71.165C89.1509 72.6621 89.151 72.737 90.8216 72.5766C96.9862 71.9777 103.013 72.3627 108.522 75.7205C112.83 78.3118 116.204 82.2287 118.153 86.8985C120.101 91.5683 120.521 96.746 119.352 101.675C118.182 106.603 115.484 111.024 111.652 114.291C107.82 117.558 103.055 119.499 98.0542 119.831C94.1911 120.242 90.2859 119.901 86.5498 118.826C80.9445 117.11 76.2052 113.282 73.3113 108.132C73.0821 107.601 72.6928 107.157 72.199 106.863C71.7053 106.57 71.1324 106.441 70.5621 106.496C53.1046 106.753 35.6683 106.945 18.1791 107.17C15.0069 107.17 14.954 107.17 15.0069 104.015C15.0069 102.026 15.0069 100.037 14.9435 98.0484C14.9435 96.6155 14.88 96.5834 13.4948 96.6048C10.4072 96.6048 7.33023 96.7545 4.24266 96.8401C3.65501 96.8882 3.06448 96.8882 2.47684 96.8401C2.11321 96.8018 1.77405 96.6369 1.51748 96.3735C1.26091 96.1101 1.10288 95.7647 1.07049 95.3964C1.02298 94.9347 1.0018 94.4705 1.00705 94.0063C0.837869 78.8144 0.665172 63.619 0.488941 48.42ZM71.4503 104.914C71.4912 104.327 71.3665 103.741 71.0908 103.224C69.2484 97.4214 69.7046 91.122 72.3634 85.6527C75.0221 80.1834 79.6757 75.971 85.3444 73.9026C85.8282 73.7044 86.3224 73.5331 86.8247 73.3893C86.9703 73.3672 87.1101 73.316 87.236 73.2388C87.3618 73.1615 87.4712 73.0597 87.5578 72.9393C87.6444 72.8189 87.7064 72.6823 87.7403 72.5374C87.7742 72.3925 87.7793 72.2422 87.7552 72.0954C87.7552 71.6997 87.7552 71.2934 87.7552 70.8977C87.9597 51.8633 88.1535 32.8254 88.3368 13.7839C88.3368 10.6828 89.0029 10.6935 85.2703 10.6721C72.8672 10.5758 60.464 10.4475 48.0714 10.7897C43.6092 10.9073 39.1471 10.886 34.6955 11.2816C33.2428 11.3661 31.8452 11.8733 30.6709 12.7421C29.4966 13.611 28.5955 14.8046 28.0762 16.1792C27.5721 17.3346 27.2853 18.5748 27.2303 19.8364C27.1246 21.7933 26.9131 21.9751 24.9463 21.7077C24.1024 21.5817 23.251 21.5138 22.398 21.5046C17.8724 21.665 15.8845 23.7716 15.9057 28.327L16.3498 102.754C16.3498 103.01 16.3498 103.278 16.3498 103.545C16.4767 105.801 16.519 105.855 18.7289 105.833L69.7161 105.127C70.3026 105.222 70.9034 105.148 71.4503 104.914V104.914ZM73.4382 5.75309C73.343 5.38951 73.0681 5.4002 72.8143 5.34673C71.6452 5.17434 70.4637 5.10279 69.2826 5.13287C68.8808 5.13287 68.4367 5.02594 68.405 4.53404C68.3733 4.04214 68.8174 3.87104 69.2192 3.86034C70.2766 3.86034 71.334 3.86034 72.3914 3.86034C73.4487 3.86034 73.7448 3.52884 73.6708 2.41672C73.5968 1.3046 72.6134 1.42223 71.9367 1.42223L3.20644 1.59332C1.36658 1.59332 1.34541 1.59333 1.36656 3.46469C1.43 9.88077 1.53575 16.2006 1.60977 22.5739C1.88469 46.0568 2.14904 69.5432 2.40281 93.0332C2.40281 93.493 2.4028 93.9635 2.45567 94.4233C2.45476 94.5742 2.48547 94.7236 2.54573 94.8617C2.60599 94.9997 2.69444 95.1233 2.8053 95.2243C2.91616 95.3253 3.04692 95.4014 3.18895 95.4477C3.33098 95.494 3.48108 95.5093 3.62939 95.4927C4.75022 95.4927 5.86049 95.4927 6.98132 95.4285C7.09579 95.4449 7.21243 95.4351 7.32263 95.3997C7.43284 95.3644 7.53378 95.3045 7.61802 95.2244C7.70227 95.1444 7.76764 95.0462 7.80934 94.9372C7.85104 94.8281 7.868 94.711 7.85894 94.5944C7.85894 94.0705 7.85894 93.5251 7.85894 93.0011C7.85894 87.7613 7.91182 82.5215 7.96469 77.2817C7.96469 76.6722 7.77435 75.6884 8.6837 75.7312C9.59306 75.7739 9.27584 76.747 9.27584 77.3566C9.27584 82.6106 9.25116 87.854 9.20181 93.0867C9.20181 93.5465 9.20181 94.017 9.20181 94.4768C9.20181 94.9366 9.32871 95.2788 9.83625 95.3002C10.3438 95.3216 10.6187 94.9366 10.6187 94.4019C10.6187 93.8673 10.6187 93.5999 10.6187 93.2043C10.238 80.6715 10.1112 68.1281 10.09 55.5954C10.09 55.328 10.09 55.0607 10.09 54.7933C10.09 54.3228 10.09 53.7775 10.7139 53.724C11.3378 53.6705 11.4435 54.1838 11.4646 54.665C11.4646 55.5205 11.5387 56.3867 11.5281 57.2528C11.4329 69.2616 11.729 81.2597 11.9722 93.2684C11.9722 93.6641 11.9722 94.0704 11.9722 94.4661C11.9724 94.6318 12.0279 94.7926 12.1296 94.9226C12.2312 95.0526 12.3732 95.1441 12.5326 95.1826C13.8966 95.6424 14.806 95.0222 14.8377 93.5999C14.8377 93.4075 14.8377 93.2043 14.8377 93.0011C14.7425 75.8916 14.6685 58.782 14.5205 41.6725C14.5205 36.3257 14.5205 30.979 14.2456 25.5574C14.1168 23.2774 14.5682 21.0021 15.5567 18.9488C17.9676 13.848 22.1442 11.2495 27.5052 10.255C30.7577 9.82238 34.038 9.64008 37.3178 9.70967C48.7376 9.35679 60.1468 9.07876 71.5772 9.16431H72.9518C73.4911 9.16431 73.7871 8.92905 73.7765 8.31952C73.791 8.20457 73.78 8.08781 73.7443 7.97771C73.7086 7.86761 73.649 7.76693 73.5701 7.68298C73.4911 7.59902 73.3947 7.5339 73.2877 7.49233C73.1808 7.45076 73.066 7.4338 72.9518 7.44266C71.9684 7.44266 70.9744 7.3785 69.9911 7.38919C66.3854 7.38919 62.7903 7.89179 59.174 7.79555C58.5501 7.79555 57.5879 7.95594 57.5562 7.12185C57.5562 6.05251 58.6136 6.36262 59.2163 6.384C63.89 6.51232 68.5213 5.79587 73.1844 5.95627C73.269 5.96696 73.3641 5.81725 73.4382 5.75309V5.75309ZM96.2672 73.817C90.4061 73.8624 84.8028 76.2606 80.6901 80.484C76.5774 84.7074 74.2921 90.41 74.337 96.3375C74.3819 102.265 76.7532 107.931 80.9293 112.091C85.1055 116.25 90.7445 118.561 96.6056 118.516C102.467 118.47 108.07 116.072 112.183 111.849C116.295 107.625 118.581 101.923 118.536 95.9953C118.491 90.0679 116.12 84.4012 111.943 80.242C107.767 76.0828 102.128 73.7716 96.2672 73.817V73.817ZM29.7786 11.5489C22.8633 11.5489 16.3392 16.8315 16.1912 22.2424C19.1942 20.4138 20.4207 20.1037 23.3814 20.1679C23.8361 20.1679 24.2908 20.1679 24.7454 20.2427C25.2001 20.3176 25.7182 20.1465 25.8028 19.43C26.0634 16.3799 27.4897 13.5526 29.7786 11.5489V11.5489Z" fill="#383838"/>
<path d="M52.111 33.5128C45.4812 33.5128 38.8619 33.5128 32.2426 33.5128C28.4783 33.5128 28.8801 32.7536 29.0705 29.7701C29.1445 28.4441 29.7895 27.9201 31.1112 27.8239C31.8937 27.7704 32.6867 27.8239 33.4692 27.8239C45.6609 27.8239 57.8526 27.8987 70.0548 27.6421C71.2285 27.6421 72.4128 27.7276 73.5865 27.7169C74.7602 27.7062 75.1409 28.2302 75.1409 29.2889C75.1558 29.4861 75.1805 29.6824 75.2149 29.877C75.5321 32.946 75.2149 33.3631 72.2014 33.3738H52.111V33.5128Z" fill="#383838"/>
<path d="M52.4388 45.2868C45.3014 45.2868 38.1535 45.2868 31.0055 45.2868C30.2336 45.2868 28.8907 45.7359 28.8273 44.6666C28.7639 43.5972 30.1491 43.9822 30.8892 43.9715C44.3815 43.7469 57.8843 43.7042 71.3872 43.7683C72.6984 43.7683 73.999 43.886 75.3101 43.9822C75.7225 43.9822 76.1031 44.2068 76.082 44.6987C76.0608 45.1906 75.6485 45.2868 75.2467 45.3082C74.8449 45.3296 74.718 45.3082 74.4536 45.3082C67.1154 44.966 59.7771 45.0836 52.4388 45.2868Z" fill="#383838"/>
<path d="M51.3603 50.9331C58.9735 50.6871 65.7831 50.3663 72.6032 50.5053C73.1935 50.5033 73.7833 50.5391 74.3691 50.6123C74.4971 50.6386 74.6126 50.7078 74.697 50.8087C74.7814 50.9096 74.8298 51.0363 74.8343 51.1684C74.8369 51.3022 74.7973 51.4334 74.7212 51.5429C74.6452 51.6525 74.5366 51.7348 74.4113 51.7779C73.9169 51.9562 73.3865 52.0076 72.8676 51.9276C66.0474 51.7137 59.2378 52.0559 52.4282 52.2377C45.6187 52.4195 38.5342 52.4088 31.5871 52.366C30.9996 52.437 30.4038 52.3599 29.853 52.1414C29.7296 52.0965 29.6234 52.0135 29.5494 51.9041C29.4754 51.7947 29.4373 51.6645 29.4406 51.5319C29.4536 51.3981 29.5107 51.2726 29.6028 51.1756C29.6948 51.0786 29.8165 51.0158 29.9482 50.9973C30.5352 50.9436 31.1247 50.9222 31.714 50.9331H51.3603Z" fill="#383838"/>
<path d="M40.0354 59.2206H31.7984C31.3331 59.2206 30.8785 59.2206 30.4238 59.2206C30.2574 59.2243 30.0957 59.1649 29.9704 59.0541C29.8452 58.9432 29.7655 58.789 29.7471 58.6217C29.7471 58.2261 30.0114 58.0443 30.3498 57.9908C30.7386 57.9354 31.1308 57.9068 31.5235 57.9053C37.2122 57.9053 42.901 57.809 48.5897 57.7877C49.2453 57.7877 50.3133 57.4562 50.3556 58.4507C50.3979 59.4451 49.2982 59.1885 48.6743 59.1992C45.7982 59.1992 42.9115 59.1992 40.0354 59.1992V59.2206Z" fill="#383838"/>
<path d="M11.5709 48.1213C11.4123 48.9126 11.9833 50.153 11.0528 50.26C9.84738 50.3776 10.2492 49.0195 10.1435 48.2603C10.0251 47.1953 9.97213 46.1239 9.98486 45.0523C9.97612 44.9696 9.98419 44.886 10.0085 44.8067C10.0329 44.7273 10.073 44.6538 10.1265 44.5907C10.18 44.5276 10.2457 44.4763 10.3195 44.4398C10.3933 44.4033 10.4737 44.3825 10.5558 44.3786C10.7224 44.3727 10.8845 44.4334 11.0071 44.5475C11.1298 44.6615 11.2032 44.8198 11.2114 44.9881C11.3278 46.0681 11.4546 47.1268 11.5709 48.1213Z" fill="#383838"/>
<path d="M52.5654 5.79552C53.1681 5.90246 53.7496 5.96662 54.3206 6.09494C54.4851 6.11631 54.6354 6.19989 54.7413 6.32886C54.8473 6.45783 54.901 6.62262 54.8916 6.79002C54.885 6.87258 54.8621 6.95296 54.8243 7.02642C54.7865 7.09989 54.7346 7.16495 54.6715 7.21777C54.6084 7.2706 54.5355 7.31013 54.4571 7.334C54.3787 7.35787 54.2963 7.36561 54.2149 7.35678C53.3161 7.27123 52.4173 7.13221 51.5291 6.97181C51.4488 6.95944 51.3719 6.93019 51.3035 6.88595C51.2351 6.84171 51.1766 6.78345 51.1317 6.71495C51.0869 6.64645 51.0568 6.56921 51.0433 6.48821C51.0297 6.40721 51.0332 6.32423 51.0533 6.24465C51.0533 5.91315 51.3705 5.83831 51.6243 5.80623C51.9376 5.78674 52.2517 5.78316 52.5654 5.79552V5.79552Z" fill="#383838"/>
<path d="M64.8954 4.92981C64.261 4.74802 63.5208 4.92981 63.1085 4.2989C63.0667 4.21611 63.0449 4.1245 63.0449 4.03156C63.0449 3.93862 63.0667 3.847 63.1085 3.76422C63.6689 3.24024 64.3456 3.53966 64.9695 3.55036C65.5933 3.56105 65.9528 3.70006 65.8788 4.30958C65.8048 4.91911 65.3078 4.87634 64.8954 4.92981Z" fill="#383838"/>
<path d="M105.086 84.3392C105.839 84.2778 106.589 84.4902 107.201 84.9381C108.418 85.8487 109.46 86.9756 110.278 88.2638C110.564 88.7156 110.696 89.2496 110.654 89.7843C110.612 90.3191 110.398 90.8253 110.045 91.2258C109.257 92.2909 108.316 93.2315 107.254 94.0168C103.299 97.2249 99.3234 100.337 95.3582 103.502C95.007 103.802 94.6061 104.038 94.1739 104.197L86.7722 106.838C86.5862 106.907 86.3954 106.96 86.2012 106.999C85.0487 107.234 84.6046 106.774 84.8689 105.587C84.9769 105.215 85.1259 104.856 85.313 104.518C86.455 102.122 87.6287 99.7592 88.739 97.3532C88.9773 96.8205 89.3402 96.3544 89.7964 95.9951L102.485 85.6652C103.205 84.9747 104.109 84.5135 105.086 84.3392V84.3392ZM93.9625 101.844C94.0259 101.149 94.0259 100.657 93.0848 100.775C91.2661 100.957 91.2555 100.903 91.0969 99.0214C91.0441 98.337 90.4414 98.0162 89.9232 98.4332C89.6751 98.6471 89.4765 98.9136 89.3417 99.2139C88.7601 100.401 88.1997 101.588 87.6287 102.775C87.4766 102.99 87.4087 103.254 87.438 103.517C87.4673 103.779 87.5917 104.022 87.7873 104.197C87.9483 104.404 88.1728 104.551 88.4255 104.615C88.6781 104.679 88.9447 104.656 89.1831 104.55C90.4731 104.069 91.7525 103.566 93.0637 103.149C93.3502 103.089 93.6032 102.921 93.7704 102.678C93.9376 102.435 94.0064 102.137 93.9625 101.844ZM105.721 85.8791C105.458 85.8573 105.195 85.9027 104.955 86.0111C104.715 86.1195 104.505 86.2874 104.346 86.4993C103.955 87.0233 104.505 87.3227 104.78 87.6328C105.678 88.7022 106.609 89.6753 107.529 90.7019C107.983 91.2258 108.375 91.1724 108.776 90.6163C109.04 90.3642 109.198 90.0186 109.215 89.6519C109.233 89.2851 109.11 88.9257 108.872 88.6487C108.195 87.8574 107.486 87.0982 106.757 86.3389C106.626 86.1923 106.466 86.0755 106.288 85.9962C106.109 85.9169 105.916 85.877 105.721 85.8791V85.8791ZM96.8069 99.4064C97.621 99.3529 100.878 96.733 101.036 96.0058C101.132 95.5139 100.867 95.1717 100.381 95.3321C98.7212 95.9302 97.2847 97.0319 96.2676 98.4867C95.9186 98.9145 96.2253 99.3743 96.8069 99.4064ZM103.151 94.2842C103.564 94.2842 103.891 94.0703 103.849 93.5891C103.807 93.1079 103.542 93.0758 103.183 93.1079C103.025 93.1107 102.874 93.1762 102.764 93.2902C102.653 93.4042 102.591 93.5576 102.591 93.7174C102.517 94.0917 102.696 94.3162 103.109 94.2842H103.151Z" fill="#383838"/>
<path d="M79.2646 93.376C79.3387 93.0231 79.381 92.6916 79.455 92.3708C80.967 85.6446 85.3552 81.5063 91.3506 78.8008C91.5878 78.691 91.8416 78.6223 92.1014 78.5976C92.2311 78.5732 92.3653 78.595 92.481 78.6594C92.5966 78.7237 92.6867 78.8266 92.7358 78.9505C92.7938 79.0715 92.8065 79.2097 92.7715 79.3395C92.7365 79.4693 92.6562 79.5818 92.5454 79.6563C92.0383 79.9581 91.516 80.2329 90.9805 80.4797C88.1188 81.8175 85.6086 83.8176 83.6528 86.3183C82.3452 88.0647 81.4124 90.0679 80.9142 92.1997C80.7979 92.6488 80.7027 93.1087 80.5758 93.5471C80.4489 93.9855 80.2692 94.3277 79.7933 94.2529C79.3175 94.178 79.3069 93.7396 79.2646 93.376Z" fill="#383838"/>
<path d="M111.419 105.277C111.419 105.277 111.271 105.694 111.092 106.036C109.63 108.727 107.296 110.827 104.483 111.982C104.303 112.063 104.115 112.124 103.923 112.164C103.531 112.228 103.108 112.27 102.981 111.747C102.886 111.383 103.119 111.137 103.436 110.977C103.753 110.816 104.261 110.57 104.663 110.367C106.865 109.301 108.684 107.567 109.865 105.405C110.032 105.03 110.233 104.672 110.468 104.336C110.55 104.23 110.667 104.158 110.798 104.135C110.929 104.111 111.063 104.137 111.176 104.208C111.419 104.421 111.546 104.635 111.419 105.277Z" fill="#383838"/>
<path d="M96.2042 79.0148C95.6544 79.0148 94.6182 79.4104 94.6182 78.3625C94.6182 77.3145 95.7707 77.6139 96.4686 77.5925C97.1665 77.5711 98.393 77.4963 98.3719 78.4266C98.3719 79.6564 97.1664 78.8437 96.5109 78.9934L96.2042 79.0148Z" fill="#383838"/>
<path d="M99.7885 112.164C99.9982 112.161 100.207 112.183 100.412 112.228C100.542 112.249 100.658 112.32 100.736 112.425C100.815 112.531 100.851 112.663 100.835 112.795C100.835 112.966 100.719 113.233 100.582 113.276C99.7534 113.669 98.8193 113.77 97.9275 113.565C97.7649 113.533 97.62 113.441 97.5219 113.306C97.4238 113.171 97.3799 113.004 97.3988 112.837C97.3988 112.442 97.7477 112.313 98.0861 112.281C98.4245 112.249 98.9954 112.217 99.7885 112.164Z" fill="#383838"/>
</svg>
