<svg width="180" height="180" viewBox="0 0 180 180" fill="none" xmlns="http://www.w3.org/2000/svg">
<path d="M86.0913 31.4417C89.0522 29.6199 92.3227 28.3514 95.7419 27.6987C99.0975 27.1296 102.534 27.2367 105.847 28.0137C109.16 28.7906 112.283 30.2215 115.029 32.2215C117.776 34.2215 120.091 36.7499 121.837 39.6566C123.582 42.5633 124.723 45.7892 125.192 49.1428C125.654 52.4574 125.442 55.8306 124.568 59.0622C123.694 62.2937 122.177 65.3177 120.105 67.9547C118.891 69.6209 118.891 69.5123 120.227 70.8284C122.096 72.6878 123.966 74.5352 125.799 76.4188C126.428 77.1086 127.294 77.5394 128.226 77.6263C132.945 77.9702 137.625 78.7258 142.211 79.8842C153.6 83.0342 163.539 90.0119 170.338 99.63C177.138 109.248 180.376 120.912 179.503 132.638C178.63 144.364 173.7 155.426 165.551 163.943C157.401 172.46 146.537 177.906 134.806 179.353C123.516 180.79 112.312 179.993 101.654 175.344C92.1969 171.297 84.1737 164.528 78.6161 155.908C73.0586 147.288 70.2209 137.211 70.4681 126.974C70.4681 124.088 71.0993 124.258 67.6639 124.221C53.7645 124.088 39.8652 124.825 25.9536 124.789C22.5195 124.878 19.0863 124.578 15.7203 123.895C6.36096 121.698 1.04399 114.562 1.15324 105.035C1.23821 93.4316 0.959014 81.8281 0.813343 70.2246C0.546281 47.8065 0.275155 25.3924 0 2.98238C0 0.470903 -2.86102e-06 0.181108 2.50067 0.482968C8.78878 1.2678 15.0769 0.808978 21.365 0.748606C41.2612 0.579565 61.1573 0.253562 81.0535 0H81.7697C84.5496 0 84.7196 0.156982 84.8774 2.95824C85.3751 11.845 85.9577 20.7317 85.7757 29.6306C85.6848 30.2523 85.7954 30.8867 86.0913 31.4417ZM2.33074 55.3128C2.56544 72.2169 2.80011 89.1211 3.0348 106.025C3.0348 109.116 4.24874 110.239 7.29568 110.638C8.17239 110.731 9.05859 110.678 9.91775 110.481C14.4578 109.527 14.2393 110.65 14.7734 113.813C15.1484 116.671 16.4579 119.327 18.5001 121.372C18.9186 121.844 19.4345 122.221 20.0126 122.478C20.5908 122.734 21.2176 122.863 21.8506 122.857C25.6016 122.857 29.3526 123.002 33.1036 122.99C36.8546 122.978 40.6178 122.833 44.3688 122.772L67.8461 122.434C70.7838 122.434 70.808 122.434 71.3179 119.621C72.884 110.81 76.7853 102.573 82.6195 95.762C83.4963 94.7322 83.9818 93.4288 83.9912 92.0793C84.2947 86.1266 84.2825 80.1619 84.3189 74.2092C84.3621 73.5994 84.2591 72.9881 84.0186 72.4255C83.778 71.863 83.4067 71.3653 82.9351 70.9733C78.2268 66.7863 75.3442 60.9391 74.8989 54.6728C74.5388 50.8988 75.053 47.0928 76.4018 43.5472C77.7507 40.0015 79.8984 36.8104 82.6802 34.2188C83.0575 33.9319 83.3686 33.5679 83.5926 33.1514C83.8167 32.7348 83.9484 32.2754 83.979 31.8039C84.2788 22.6711 84.0681 13.5288 83.3478 4.41923C83.1536 1.20744 83.7241 1.48516 80.228 1.52138C54.9056 1.83532 29.5873 2.16132 4.27299 2.49941C3.87239 2.49941 3.4718 2.49941 3.05907 2.49941C1.99082 2.41489 1.6388 2.97029 1.71163 3.94831C1.71163 4.26225 1.71163 4.57619 1.71163 4.9022L2.33074 55.3128ZM129.914 80.017L129.416 80.6569C130.176 81.1097 130.895 81.6268 131.565 82.2025C136.42 87.1127 141.276 92.0511 146.132 97.0177C147.722 98.6478 147.698 98.7081 146.593 100.64C145.473 102.682 143.719 104.309 141.592 105.277C139.759 106.134 139.419 106.074 138.193 104.443C132.378 96.6555 125.908 89.3988 119.705 81.9126C119.404 81.4546 118.955 81.1119 118.432 80.9408C117.909 80.7697 117.344 80.7803 116.828 80.9708C98.8496 85.8006 86.5404 96.9453 81.187 114.683C75.8337 132.42 79.8517 148.491 92.2094 162.34C92.5372 162.714 92.8043 163.294 93.6055 163.161C95.9726 157.679 100.634 154.987 106.109 153.369C108.015 152.801 109.957 152.355 111.887 151.848C113.994 151.38 116.063 150.759 118.078 149.988C119.599 149.447 120.849 148.339 121.562 146.897C122.351 145.207 122.254 144.784 120.664 143.854C118.066 142.403 115.987 140.184 114.716 137.503C114.178 136.027 113.11 134.801 111.717 134.062C109.702 133.036 109.289 130.983 109.581 128.906C109.872 126.829 110.54 125.103 112.882 124.789C113.878 124.656 113.951 123.992 114.096 123.328C114.634 121.087 115.449 118.921 116.524 116.88C117.5 115.003 118.874 113.358 120.55 112.059C122.227 110.761 124.167 109.839 126.236 109.358C128.083 108.803 130.052 108.793 131.905 109.329C133.758 109.864 135.415 110.923 136.675 112.376C138.528 114.37 139.829 116.808 140.451 119.452C140.924 121.384 141.276 123.328 141.665 125.272C145.173 125.574 146.35 127.095 145.853 130.597C145.793 131.676 145.424 132.715 144.789 133.592C144.155 134.47 143.281 135.148 142.272 135.547C141.938 135.666 141.632 135.85 141.371 136.088C141.111 136.327 140.901 136.615 140.754 136.936C139.354 139.823 137.078 142.2 134.248 143.734C133.034 144.41 133.034 145.158 133.483 146.257C134.046 147.669 134.959 148.917 136.137 149.883C137.315 150.85 138.719 151.505 140.22 151.787C142.927 152.439 145.658 152.995 148.365 153.719C150.348 154.201 152.206 155.096 153.815 156.344C155.424 157.593 156.749 159.168 157.7 160.964C158.356 162.171 158.914 163.379 159.558 164.586C159.825 165.117 159.825 165.793 160.456 166.119C174.89 154.673 182.695 132.408 174.683 111.398C167.57 92.7072 146.897 78.2179 129.877 80.017H129.914ZM120.688 52.4995C120.664 48.4647 119.438 44.5276 117.165 41.1858C114.892 37.844 111.674 35.2474 107.917 33.7243C104.161 32.2013 100.035 31.8201 96.0607 32.6289C92.0866 33.4377 88.4427 35.4002 85.5897 38.2684C82.7366 41.1366 80.8024 44.7817 80.0316 48.743C79.2608 52.7043 79.688 56.804 81.2591 60.5239C82.8303 64.2438 85.4749 67.4168 88.8586 69.6421C92.2424 71.8674 96.2134 73.0449 100.27 73.0259C105.708 72.9876 110.908 70.8046 114.729 66.9562C118.551 63.1077 120.681 57.9084 120.652 52.4995H120.688ZM127.972 178.073C128.445 178.073 128.931 178.146 129.404 178.158C129.877 178.17 130.363 178.158 130.836 178.158C140.305 177.713 149.444 174.57 157.166 169.102C159.036 167.798 159.06 167.737 158.222 165.6C155.977 159.805 152.153 155.82 145.695 154.733C143.498 154.343 141.322 153.843 139.176 153.236C137.578 152.841 136.099 152.068 134.865 150.983C133.631 149.899 132.678 148.534 132.087 147.006C131.965 146.716 131.844 146.414 131.747 146.112C131.54 145.496 131.188 145.195 130.533 145.388C128.744 145.828 126.88 145.877 125.07 145.533C124.281 145.4 123.856 145.533 123.686 146.354C122.837 149.541 120.47 151.183 117.495 152.077C115.371 152.729 113.198 153.284 111.05 153.84C108.085 154.495 105.194 155.441 102.419 156.665C99.4745 157.972 97.0826 160.261 95.657 163.137C94.8072 164.924 94.8315 164.997 96.3975 166.337C100.338 169.707 104.797 172.426 109.605 174.39C115.384 176.835 121.607 178.072 127.887 178.025L127.972 178.073ZM129.477 110.952C127.538 110.81 125.596 111.171 123.84 112.001C122.085 112.831 120.576 114.1 119.462 115.685C117.562 118.262 116.207 121.196 115.479 124.309C114.751 127.422 114.665 130.649 115.225 133.796C116.719 141.983 126.818 148.032 135.474 141.041C137.306 139.673 138.737 137.842 139.616 135.737C140.496 133.633 140.792 131.332 140.475 129.075C140.135 126.238 139.637 123.424 139.091 120.623C138.71 118.502 137.833 116.5 136.53 114.779C134.66 112.4 132.609 110.444 129.477 110.952ZM116.063 77.747C115.459 77.0301 114.896 76.2803 114.376 75.5012C113.635 74.2937 112.858 74.3541 111.62 74.9578C107.92 76.8753 103.796 77.8431 99.6242 77.7735C95.4523 77.704 91.3639 76.5991 87.7301 74.5593C87.2202 74.2937 86.7589 73.6659 86.0427 74.1247C85.6057 80.0774 85.7392 89.7127 86.3462 91.7533C94.5268 84.1307 104.893 79.2348 116.002 77.747H116.063ZM16.8128 122.205C14.7351 119.885 13.3885 117.009 12.9404 113.934C12.9404 113.548 12.8433 113.149 12.7583 112.727C12.6248 112.111 12.297 111.676 11.5444 111.857C9.05061 112.501 6.42433 112.43 3.96951 111.652C5.30482 116.916 10.2819 121.106 16.7521 122.205H16.8128ZM142.15 133.603C144.165 132.275 145.015 129.486 144.007 127.807C143.918 127.588 143.757 127.404 143.55 127.286C143.343 127.168 143.102 127.122 142.866 127.155C142.746 127.165 142.629 127.2 142.523 127.258C142.417 127.315 142.324 127.395 142.251 127.49C142.177 127.586 142.125 127.696 142.097 127.813C142.07 127.93 142.067 128.051 142.089 128.17C142.199 129.979 142.199 131.794 142.089 133.603H142.15ZM113.271 132.903C113.271 130.838 113.271 129.124 113.271 127.397C113.271 127.071 113.162 126.757 112.785 126.745C112.558 126.759 112.343 126.853 112.178 127.01C110.637 128.471 111.001 131.381 113.21 132.903H113.271Z" fill="#383838"/>
<path d="M80.0009 52.2916C80.0422 48.2294 81.2895 44.2711 83.5844 40.919C85.8794 37.567 89.1186 34.9723 92.8908 33.4645C96.663 31.9566 100.798 31.6035 104.771 32.45C108.745 33.2964 112.377 35.3043 115.207 38.2187C118.037 41.1331 119.937 44.8227 120.667 48.8191C121.396 52.8154 120.922 56.9385 119.304 60.6647C117.686 64.391 114.997 67.5526 111.579 69.7482C108.161 71.9437 104.168 73.0742 100.106 72.9962C94.7043 72.8868 89.5634 70.6513 85.7993 66.7751C82.0352 62.8988 79.9516 57.6945 80.0009 52.2916V52.2916ZM100.523 35.8697C98.106 35.859 95.717 36.3857 93.5287 37.4117C91.5993 38.3034 92.0159 38.2376 92.966 39.5604C98.8127 47.7214 104.686 55.8776 110.587 64.0288C111.588 65.4247 111.42 65.8121 112.896 64.1165C117.559 58.7522 118.743 52.6497 115.951 46.116C113.093 39.4508 107.7 36.2132 100.523 35.8697ZM108.511 67.5588C108.446 67.3627 108.365 67.1721 108.27 66.9887C102.102 58.3551 95.9283 49.7263 89.7503 41.1025C89.1729 40.2985 89.1364 40.3205 88.3982 41.044C88.2521 41.1829 88.1205 41.3363 87.989 41.4825C86.2047 43.4635 84.9172 45.8405 84.2329 48.4172C83.5485 50.9939 83.4868 53.6965 84.053 56.3017C84.6192 58.907 85.7969 61.3402 87.489 63.4005C89.1811 65.4607 91.339 67.089 93.7845 68.1508C98.7177 70.2848 103.6 70.029 108.511 67.5588Z" fill="#CE1055" stroke="#CE1055"/>
<path d="M160.136 24.2297H176.657C178.624 24.2297 178.818 24.3747 178.842 26.4152C178.915 33.9658 178.967 41.5122 179 49.0547C179 51.3368 178.769 51.5903 176.354 51.6627C173.477 51.7593 170.6 51.7835 167.723 51.7835C161.823 51.7835 155.915 51.7835 149.999 51.7835C148.734 51.7491 147.481 52.0358 146.358 52.6166C143.25 54.2346 140.021 55.6111 136.828 57.0842C136.331 57.3136 135.796 57.6879 135.287 57.217C134.777 56.7461 135.068 56.0096 135.372 55.5024C136.585 53.3653 137.799 51.2039 139.098 49.1151C139.822 47.9718 140.182 46.6376 140.13 45.2875C140.033 39.6487 140.021 34.01 139.948 28.3833C139.948 25.8356 140.312 25.3406 142.898 25.1715C148.64 24.7489 154.382 24.5074 160.136 24.2297ZM138.091 54.0897L138.467 54.4761C140.23 53.7742 141.948 52.9678 143.614 52.0612C146.32 50.5469 149.417 49.8661 152.512 50.1052C160.172 50.238 167.832 50.3346 175.479 49.9723C177.312 49.8878 177.361 49.8516 177.349 48.0767C177.349 41.3311 177.296 34.5856 177.191 27.84C177.191 25.9926 177.118 25.9685 175.322 25.9805C169.252 25.9805 163.183 25.9805 157.113 26.1737C152.488 26.3186 147.851 26.2945 143.25 26.8016C141.563 26.9948 141.55 27.031 141.623 28.6611C141.89 34.2877 141.805 39.9265 141.842 45.5652C141.883 46.9941 141.494 48.4026 140.725 49.6101C139.802 51.0711 138.965 52.5925 138.091 54.0897Z" fill="#383838"/>
<path d="M118.498 30.7388C118.826 30.944 119.19 31.1131 119.494 31.3425C123.764 34.4447 126.958 38.7909 128.634 43.7791L128.719 43.9965C128.889 44.5398 129.132 45.2039 128.452 45.4454C127.773 45.6869 127.384 45.0349 127.117 44.4794C126.984 44.2017 126.886 43.8998 126.777 43.598C125.3 39.5611 122.723 36.0121 119.336 33.3468C118.788 32.8924 118.265 32.4087 117.77 31.8979C117.71 31.8447 117.662 31.7795 117.63 31.7067C117.597 31.6339 117.58 31.555 117.58 31.4753C117.58 31.3955 117.597 31.3167 117.63 31.2439C117.662 31.1711 117.71 31.1059 117.77 31.0527C117.995 30.9109 118.24 30.8049 118.498 30.7388Z" fill="#383838"/>
<path d="M125.2 32.0667C125.434 32.1382 125.659 32.2396 125.867 32.3685C127.644 33.7094 128.966 35.5591 129.655 37.6691C129.8 38.1642 129.752 38.6472 129.193 38.8766C128.635 39.106 128.271 38.6834 128.125 38.2246C127.43 36.4559 126.313 34.8814 124.872 33.6363C124.532 33.3103 124.241 32.8877 124.605 32.4289C124.726 32.2115 124.993 32.1632 125.2 32.0667Z" fill="#383838"/>
<path d="M43.1255 57.0737H62.0263C62.5847 57.0737 63.1431 57.0737 63.7015 57.0737C65.838 57.1461 66.0444 57.3272 66.1293 59.3799C66.1293 60.8047 66.1293 62.2415 66.1293 63.6663C66.1293 67.6267 66.1293 71.5992 66.1293 75.5716C66.1293 78.0831 65.9472 78.2642 63.3859 78.2763H28.6799C26.5312 78.2763 24.3704 78.2763 22.2218 78.2159C20.5709 78.1435 20.2431 77.8295 20.231 76.1995C20.231 70.4118 20.231 64.6202 20.231 58.8245C20.231 57.1944 20.5102 57.0133 22.2946 57.0012H43.1255V57.0737ZM43.0405 76.61H62.1841C64.3692 76.61 64.3934 76.61 64.4056 74.3642C64.4056 69.7639 64.4056 65.1635 64.4056 60.5632C64.4056 58.8124 64.4056 58.7882 62.4633 58.7762C59.3556 58.7762 56.2359 58.7762 53.1282 58.7762H23.9456C21.979 58.7762 21.9547 58.7761 21.9547 60.7684C21.9547 65.2963 21.9547 69.8121 21.9547 74.34C21.9547 76.5617 21.9547 76.5859 24.1398 76.5859L43.0405 76.61Z" fill="#383838"/>
<path d="M42.3614 23.4453H26.0706C24.1404 23.4453 23.5577 22.9382 23.4363 21.1995C23.2785 18.9778 23.934 17.867 25.6335 17.5772C26.5077 17.4741 27.3875 17.4257 28.2678 17.4323C38.7196 17.1304 49.1836 17.3719 59.6476 17.4323C61.6505 17.4323 61.7719 17.6013 61.8569 19.6298C61.8569 19.7868 61.8569 19.9438 61.8569 20.1007C61.8569 22.8054 61.687 23.0348 58.8828 23.1797C53.3838 23.4695 47.8726 23.5298 42.3614 23.4453ZM42.2885 21.7187C47.0835 21.7187 51.8663 21.7187 56.6492 21.7187C57.5354 21.7187 58.4094 21.6462 59.2834 21.5617C59.4239 21.5611 59.5625 21.5294 59.6891 21.4689C59.8157 21.4085 59.9273 21.3207 60.0156 21.2121C60.1039 21.1034 60.1668 20.9766 60.1997 20.8408C60.2327 20.7049 60.2348 20.5635 60.206 20.4267C60.206 19.7385 60.036 19.1348 59.162 19.1348H58.4458C49.3414 18.9899 40.237 18.8933 31.1447 19.0744C29.5545 19.0744 27.9643 19.2555 26.3619 19.3521C25.7792 19.3521 25.3058 19.5091 25.148 20.2094C24.893 21.3565 25.2451 21.7911 26.7382 21.8032C31.9216 21.7187 37.1172 21.7187 42.2885 21.7187Z" fill="#383838"/>
<path d="M42.6286 85.3266H17.731C16.9199 85.3261 16.1094 85.2818 15.3032 85.1938C15.1164 85.1938 14.9374 85.12 14.8053 84.9887C14.6733 84.8573 14.5991 84.6792 14.5991 84.4935C14.5991 84.3077 14.6733 84.1296 14.8053 83.9983C14.9374 83.8669 15.1164 83.7932 15.3032 83.7932C15.7038 83.7932 16.1044 83.7207 16.5171 83.7207C33.1964 83.7207 49.8756 83.1653 66.5549 83.4068C67.7688 83.4068 68.9828 83.4913 70.136 83.5758C70.5366 83.5758 70.925 83.8173 70.9129 84.3244C70.913 84.4227 70.8931 84.52 70.8542 84.6103C70.8154 84.7007 70.7584 84.7822 70.6869 84.85C70.6153 84.9177 70.5307 84.9703 70.4381 85.0045C70.3455 85.0387 70.2468 85.0538 70.1482 85.0489C69.5169 85.1093 68.9342 85.1093 68.2301 85.1093H42.6164L42.6286 85.3266Z" fill="#383838"/>
<path d="M42.5069 99.538C35.0049 99.868 27.5028 99.9324 20.0008 99.7311C19.1268 99.7311 18.2528 99.7915 17.3787 99.8398C16.7422 99.9335 16.0921 99.8542 15.4971 99.6104C15.1208 99.4172 14.8295 99.1395 14.9023 98.6928C14.936 98.5343 15.0205 98.3909 15.1431 98.2842C15.2656 98.1775 15.4197 98.1133 15.5821 98.1011C16.3847 97.9721 17.197 97.9115 18.01 97.92C25.1114 98.2701 32.2128 98.1252 39.3143 98.0407C48.8881 97.92 58.4659 97.9441 68.0478 98.1132C68.8368 98.1132 70.2086 97.6543 70.2207 98.8256C70.2329 99.9968 68.849 99.8277 67.9385 99.8157C63.3863 99.7432 58.8463 99.5983 54.2941 99.538C50.3367 99.4897 46.4278 99.538 42.5069 99.538Z" fill="#383838"/>
<path d="M42.3612 92.2337C34.147 92.3545 25.9288 92.4752 17.7065 92.596C16.9138 92.7218 16.1017 92.6385 15.3515 92.3545C15.2025 92.2951 15.0799 92.1843 15.0064 92.0424C14.9328 91.9004 14.9131 91.7369 14.9509 91.5817C14.9854 91.4718 15.0434 91.3707 15.1209 91.2852C15.1984 91.1997 15.2937 91.132 15.4 91.0867C15.9435 90.9769 16.4964 90.9202 17.051 90.9176C33.8152 90.9176 50.5673 90.2173 67.3194 90.3742H69.2374C69.6745 90.3742 70.0629 90.6037 70.0993 91.0384C70.1357 91.473 69.6745 91.8232 69.1646 91.8715C68.6874 91.8958 68.2093 91.8958 67.7322 91.8715H42.3612V92.2337Z" fill="#383838"/>
<path d="M66.5669 46.8942C66.7154 43.5517 67.7181 40.3019 69.4803 37.452C71.1455 34.839 73.1405 32.449 75.4164 30.3402C75.5378 30.2315 75.647 30.1108 75.7684 30.0142C76.2661 29.652 76.7881 29 77.4072 29.5795C78.0263 30.1591 77.4072 30.7145 76.9823 31.1613C76.5574 31.608 76.3026 31.8254 75.9505 32.1514C74.5331 33.5427 73.23 35.0447 72.0538 36.643C69.7998 39.5506 68.4874 43.0709 68.2907 46.7372C68.2907 47.5945 68.5942 49.0917 67.3438 49.0313C66.0935 48.971 66.9432 47.4617 66.5669 46.8942Z" fill="#383838"/>
<path d="M64.4909 39.8309C64.9401 37.0088 66.1012 34.346 67.8656 32.0913C68.1841 31.7481 68.5428 31.4441 68.9339 31.1857C69.0711 31.0988 69.2371 31.0691 69.3961 31.103C69.5551 31.1369 69.6943 31.2316 69.7836 31.3668C69.849 31.4608 69.8936 31.5675 69.9146 31.6799C69.9355 31.7923 69.9322 31.9078 69.905 32.0188C69.7427 32.3796 69.5257 32.7136 69.2616 33.0089C67.94 34.603 67.0165 36.4856 66.5667 38.5028C66.4089 39.1065 66.2632 39.7102 66.0447 40.3139C65.8262 40.9176 65.5834 41.2074 65.0008 41.0142C64.4181 40.8211 64.406 40.3381 64.4909 39.8309Z" fill="#383838"/>
<path d="M169.022 128.215C169.24 138.334 166.096 147.438 160.597 155.817C160.597 155.89 160.512 155.962 160.464 156.023C159.978 156.578 159.614 157.689 158.667 157.025C157.72 156.361 158.667 155.733 159.019 155.189C160.346 153.113 161.561 150.969 162.661 148.766C166.537 140.95 168.07 132.19 167.08 123.53C166.922 121.804 166.63 120.077 166.424 118.338C166.36 117.87 166.331 117.398 166.339 116.926C166.325 116.766 166.375 116.607 166.477 116.483C166.579 116.359 166.725 116.28 166.885 116.262C167.043 116.222 167.21 116.242 167.353 116.318C167.497 116.394 167.607 116.52 167.662 116.672C167.88 117.266 168.05 117.875 168.172 118.495C168.673 121.713 168.957 124.96 169.022 128.215V128.215Z" fill="#383838"/>
<path d="M83.5621 124.774C84.1803 118.983 86.03 113.39 88.9883 108.365C91.7697 103.896 95.1605 99.8326 99.0638 96.2903C99.7557 95.6503 100.678 94.2376 101.492 95.0828C102.584 96.2057 100.836 96.7249 100.205 97.3286C96.409 100.866 93.0878 104.875 90.3236 109.258C87.7309 113.656 86.047 118.525 85.3708 123.578C85.2979 124.049 85.2615 124.532 85.1523 124.991C85.043 125.45 84.8003 126.199 84.1083 126.054C83.4164 125.909 83.4528 125.341 83.5621 124.774Z" fill="#383838"/>
<path d="M85.2129 133.202C85.128 133.938 85.5771 135.11 84.521 135.182C83.3071 135.279 83.5984 133.975 83.4892 133.202C83.4346 132.656 83.4346 132.106 83.4892 131.56C83.4892 131.065 83.6834 130.582 84.2904 130.582C84.8973 130.582 85.043 131.101 85.1158 131.56C85.1887 132.019 85.1765 132.659 85.2129 133.202Z" fill="#383838"/>
<path d="M165.659 111.709C165.533 111.701 165.412 111.659 165.309 111.586C165.206 111.514 165.126 111.414 165.076 111.299C164.822 110.734 164.619 110.148 164.469 109.548C164.434 109.456 164.418 109.358 164.421 109.26C164.424 109.161 164.446 109.064 164.487 108.975C164.527 108.885 164.585 108.804 164.657 108.737C164.729 108.669 164.814 108.617 164.906 108.582C165.092 108.514 165.297 108.52 165.478 108.599C165.659 108.677 165.802 108.823 165.878 109.004C166.264 109.6 166.447 110.302 166.4 111.009C166.375 111.311 166.254 111.625 165.659 111.709Z" fill="#383838"/>
<path d="M121.715 126.67C121.715 127.237 121.654 127.877 120.938 127.877C120.222 127.877 120.113 127.262 120.016 126.67C120.016 126.513 120.016 126.356 120.016 126.199C120.016 125.619 120.016 124.992 120.683 124.859C121.533 124.738 121.63 125.499 121.715 126.066C121.703 126.356 121.703 126.513 121.715 126.67Z" fill="#383838"/>
<path d="M132.495 125.245C133.236 125.245 133.406 125.752 133.539 126.284C133.673 126.815 133.709 127.636 132.944 127.817C132.18 127.998 132.022 127.37 131.937 126.803C131.852 126.235 131.742 125.559 132.495 125.245Z" fill="#383838"/>
<path d="M158.922 39.3959H151.541C150.985 39.4082 150.428 39.3718 149.878 39.2872C149.78 39.2789 149.684 39.25 149.597 39.2024C149.511 39.1547 149.435 39.0895 149.376 39.0109C149.316 38.9323 149.274 38.842 149.252 38.7461C149.23 38.6502 149.228 38.5506 149.247 38.454C149.247 38.0797 149.611 37.959 149.915 37.8986C150.227 37.8366 150.544 37.8043 150.862 37.8021C156.106 37.7055 161.35 37.5968 166.643 37.5485C167.505 37.5485 168.925 37.2587 168.828 38.5869C168.755 39.6736 167.42 39.2268 166.606 39.2389C164.057 39.2389 161.52 39.2389 158.971 39.2389L158.922 39.3959Z" fill="#383838"/>
<path d="M158.825 35.0008H151.165C150.558 35.0008 149.708 35.2423 149.623 34.3609C149.538 33.4794 150.412 33.3225 151.141 33.2621C151.869 33.2017 152.258 33.2621 152.816 33.2621C157.599 33.2621 162.394 33.3345 167.165 32.8757H167.407C168.087 32.8757 169.058 32.6584 169.083 33.6485C169.107 34.6386 168.136 34.5661 167.444 34.5782C164.567 34.5782 161.702 34.5782 158.825 34.5782V35.0008Z" fill="#383838"/>
<path d="M153.896 43.6825C152.901 43.7429 151.711 43.8274 150.534 43.8757C150.334 43.9057 150.13 43.8605 149.961 43.7489C149.793 43.6372 149.672 43.4672 149.623 43.272C149.526 42.7045 149.915 42.3906 150.425 42.3181C152.781 42.0037 155.169 42.0037 157.526 42.3181C157.726 42.3357 157.91 42.4315 158.039 42.5843C158.167 42.7372 158.23 42.9346 158.212 43.1331C158.194 43.3317 158.098 43.5151 157.944 43.643C157.791 43.771 157.592 43.8329 157.392 43.8153C156.288 43.8274 155.183 43.7429 153.896 43.6825Z" fill="#383838"/>
</svg>
