<svg width="180" height="180" viewBox="0 0 180 180" fill="none" xmlns="http://www.w3.org/2000/svg">
<path d="M150.514 116.649C152.287 118.467 154.182 120.333 155.943 122.224C157.704 124.114 157.582 123.958 156.114 125.969C154.814 127.794 153.102 129.298 151.114 130.364C149.561 131.17 149.157 131.11 148.02 129.762C146.479 127.931 145 126.053 143.484 124.211C141.968 122.368 142.004 122.453 140.121 123.849C133.747 128.562 127.401 133.298 121.084 138.058L67.2843 178.445C64.2886 180.697 62.5891 180.516 60.0458 177.819C46.2658 163.164 32.4614 148.534 19.3784 133.266C13.7294 126.667 8.28836 119.876 2.12589 113.711C1.03505 112.525 0.387986 111.009 0.291819 109.412C0.291819 109.026 0.218455 108.629 0.157319 108.208C-0.117901 107.078 -0.0304776 105.893 0.40753 104.814C0.845538 103.736 1.61255 102.818 2.60275 102.187C7.05342 98.9117 11.2718 95.3474 15.7592 92.1324C17.2509 91.0607 17.2386 91.0487 16.126 89.5917C15.9456 89.3288 15.7409 89.0829 15.5146 88.8571C11.9076 85.8709 12.0788 81.7889 12.1399 77.7309C12.1399 76.4184 13.0814 75.7923 13.9984 75.1421L26.9348 65.9545L116.193 1.71385C119.568 -0.694424 119.665 -0.694422 122.306 2.5447C141.12 25.4714 159.95 48.3942 178.796 71.3129C179.281 71.9128 179.632 72.607 179.826 73.3499C180.02 74.0928 180.052 74.8677 179.921 75.6237C179.676 79.5612 177.708 82.1501 174.504 84.2935C171.301 86.4369 168.5 88.809 165.517 91.1209C164.038 92.2649 163.854 92.4816 165.114 93.6857C168.329 96.7924 166.935 100.26 166.226 103.704C166.067 104.475 165.358 104.812 164.796 105.245L151.505 115.529C151.054 115.779 150.704 116.174 150.514 116.649V116.649ZM74.7061 151.508C75.4595 151.279 76.1411 150.865 76.6869 150.304L127.955 111.049C128.395 110.712 128.86 110.387 129.276 110.014C130.633 108.81 130.633 108.81 129.52 107.377C128.004 105.426 126.439 103.499 124.947 101.537C123.725 99.875 123.847 99.9232 121.903 100.983C117.109 103.664 111.558 104.729 106.093 104.017C100.67 103.3 95.6181 100.908 91.6633 97.1839C87.7085 93.4601 85.055 88.597 84.0844 83.294C82.0546 72.1076 87.4713 60.7647 97.4242 55.8638C106.619 51.3242 115.765 51.7457 124.128 57.6339C132.492 63.5221 136.062 71.9029 134.876 82.0658C134.388 86.183 132.83 90.1066 130.352 93.457C129.618 94.4684 129.52 95.1307 130.474 96.0579C132.528 98.0568 134.472 100.188 136.49 102.223C137.713 103.427 137.713 103.427 139.07 102.392C143.031 99.4054 146.985 96.4151 150.93 93.4208C159.326 86.9988 167.718 80.5767 176.106 74.1547C176.656 73.7332 177.328 73.4442 177.659 72.5893C177.157 71.9511 176.619 71.2647 176.069 70.5904C168.904 61.8805 161.743 53.1746 154.586 44.4727C153.265 42.8712 152.055 41.1734 149.854 40.6436C149.145 40.475 148.949 39.8248 148.558 39.3311C148.465 39.1214 148.314 38.942 148.121 38.814C147.929 38.6861 147.703 38.6148 147.471 38.6084C147.239 38.6021 147.009 38.6611 146.81 38.7784C146.611 38.8957 146.449 39.0665 146.345 39.2708C144.527 41.1628 142.356 42.6918 139.95 43.7743C138.63 44.4125 137.126 45.147 135.683 43.8586C135.563 43.7539 135.413 43.6875 135.254 43.6681C135.094 43.6488 134.933 43.6774 134.79 43.7502C133.69 44.2439 132.907 43.5455 132.186 42.9676C131.195 42.1608 130.315 41.2336 129.386 40.3546C127.564 38.6206 126.5 38.3918 124.189 39.4876C122.661 40.198 121.279 41.2215 119.739 41.8959C116.596 43.2445 113.393 45.3879 110.128 42.0524C108.282 42.1246 107.573 40.6917 106.656 39.5237C105.029 37.4646 104.21 37.1877 101.679 38.0547C100.004 38.6206 98.3779 39.319 96.715 39.909C94.8411 40.6475 92.8234 40.9643 90.8093 40.8362C89.8433 40.752 88.8407 40.7038 88.7918 39.3311C88.7918 38.8253 88.2416 38.3316 87.8136 38.4641C86.0407 39.0421 86.0285 37.4165 85.4782 36.5977C84.6106 36.9246 83.814 37.4109 83.1306 38.0306C68.0016 48.9079 52.8766 59.7974 37.7558 70.6988C32.3025 74.6243 26.8247 78.5377 21.3959 82.4873C19.464 83.8961 19.5006 83.9563 20.9679 85.7505C25.3941 91.1771 29.8326 96.6078 34.2832 102.042L74.7061 151.508ZM7.2246 109.942C7.79928 110.616 8.25169 111.146 8.72855 111.7L61.9166 170.702L63.3594 172.292C63.501 172.486 63.6821 172.65 63.8911 172.772C64.1 172.894 64.3324 172.972 64.5736 173.002C64.8148 173.031 65.0596 173.011 65.2925 172.943C65.5255 172.874 65.7415 172.759 65.9271 172.605C66.4651 172.256 66.9664 171.846 67.4677 171.461L106.595 141.719C116.376 134.317 126.121 126.912 135.83 119.502C138.153 117.732 138.116 117.684 136.404 115.733C135.243 114.397 135.182 114.385 133.727 115.457C133.274 115.77 132.834 116.119 132.382 116.456L96.984 143.633L76.8092 159.118C74.2171 161.105 73.8869 161.057 71.7961 158.48L67.8834 153.664C66.0738 151.424 66.4528 151.617 64.2153 153.375C63.3349 154.085 62.4668 154.784 61.562 155.446C61.0851 155.807 60.486 155.964 60.0947 155.362C59.7035 154.76 60.1925 154.483 60.5716 154.157L64.2397 151.123C64.6799 150.762 65.0956 150.413 64.6188 149.75C64.1419 149.088 63.6039 149.172 63.0048 149.63C62.0761 150.388 61.1089 151.099 60.1069 151.761C59.3733 152.243 58.4807 153.592 57.6615 152.616C56.7567 151.412 58.4685 151.039 59.141 150.425C60.0562 149.645 61.0155 148.918 62.0144 148.245C62.5646 147.848 62.6991 147.438 62.2345 146.872C61.7698 146.306 61.3541 145.957 60.6449 146.523C59.7157 147.282 58.7864 148.04 57.796 148.727C57.1235 149.184 56.2921 150.328 55.5829 149.485C54.6414 148.378 56.2187 148.004 56.8056 147.426C57.8327 146.439 59.7279 145.861 59.9236 144.621C60.1192 143.38 58.3829 142.212 57.4781 141.008C56.1943 139.322 56.1454 139.359 54.348 140.707L51.9026 142.586C49.7139 144.235 49.3593 144.235 47.4886 142.333C46.8283 141.646 46.2658 140.9 45.6178 140.165C43.906 138.058 42.182 135.963 40.5313 133.808C39.6754 132.688 38.0859 131.845 38.0859 130.436C38.0859 129.027 39.9689 128.22 41.0571 127.233C44.3462 124.247 44.3462 124.319 41.4239 120.947C40.6169 120.02 40.0789 120.104 39.2841 120.851C38.1715 121.887 36.9854 122.838 35.8605 123.849C33.9042 125.607 32.8527 125.656 30.9697 123.849C28.6235 121.677 26.4067 119.374 24.3304 116.95C23.9104 116.468 23.5378 115.948 23.2177 115.396C22.7277 114.705 22.4986 113.867 22.57 113.027C22.6415 112.187 23.009 111.398 23.609 110.797C24.647 109.692 25.7938 108.692 27.0326 107.81C27.7662 107.22 28.7199 106.883 29.2334 105.872C27.3138 103.463 25.3452 101.055 23.4256 98.6468C22.802 97.8641 22.3129 97.7437 21.4814 98.418C16.8596 102.259 12.091 106.028 7.18792 109.942H7.2246ZM129.716 78.5497C129.606 66.978 120.595 58.0794 109.077 58.2239C105.015 58.2382 101.049 59.4364 97.6785 61.6674C94.3077 63.8983 91.683 67.0622 90.1355 70.7601C88.588 74.458 88.187 78.5243 88.9828 82.4464C89.7787 86.3685 91.7359 89.9707 94.6077 92.7988C97.4795 95.627 101.137 97.5545 105.12 98.3382C109.102 99.122 113.231 98.727 116.986 97.2031C120.741 95.6791 123.954 93.0944 126.219 89.7748C128.485 86.4552 129.702 82.5493 129.716 78.5497ZM18.4491 82.5354C19.9408 81.4878 21.3103 80.5366 22.6553 79.5733L87.5691 32.8648C91.8486 29.7822 96.1322 26.6917 100.42 23.593C101.728 22.6417 101.728 22.6056 100.762 21.4496C99.7962 20.2937 98.9648 19.4146 98.0966 18.3791C97.5464 17.7168 96.9717 17.5362 96.2626 18.1262C95.8835 18.4393 95.48 18.6922 95.0399 18.9691L16.2971 75.6478C15.8447 75.9729 15.3923 76.3221 14.9399 76.6352C14.812 76.6965 14.7011 76.7875 14.6167 76.9003C14.5322 77.0131 14.4768 77.1444 14.4552 77.2828C14.4336 77.4213 14.4464 77.5629 14.4924 77.6955C14.5385 77.8281 14.6166 77.9477 14.7198 78.044L18.4491 82.5354ZM33.7942 123.584C33.9898 123.428 34.2588 123.259 34.4911 123.055C35.885 121.85 37.2422 120.646 38.6606 119.442C39.4676 118.78 39.4431 118.238 38.7951 117.479C37.1566 115.529 35.6282 113.482 33.9654 111.555C32.8405 110.267 32.1068 107.943 30.4684 107.943C28.83 107.943 27.3138 109.905 25.8343 111.122L25.6631 111.29C24.1714 112.795 24.0247 113.566 25.2841 115.216C27.5145 118.005 29.9677 120.614 32.6204 123.019C32.9 123.333 33.2875 123.534 33.7086 123.584H33.7942ZM55.2528 137.902C52.2694 134.205 49.3226 130.568 46.4126 126.908C45.789 126.125 45.1899 125.981 44.444 126.703C43.3925 127.666 42.3165 128.63 41.1916 129.509C40.2623 130.219 40.3357 130.773 41.0571 131.628C43.368 134.361 45.5689 137.167 47.8309 139.937C48.2344 140.43 48.6746 140.9 49.0536 141.357C49.4327 141.815 50.0562 142.116 50.7043 141.574C52.2848 140.464 53.7768 139.236 55.1672 137.902H55.2528ZM21.3103 95.9255C20.8334 95.3234 20.2587 94.5768 19.6474 93.8423C18.4247 92.4334 18.4247 92.4094 17.0063 93.4208C12.5556 96.5395 8.28837 99.887 4.11892 103.355C2.49271 104.704 2.52939 104.74 3.8866 106.305C4.09446 106.546 4.30233 106.787 4.52241 107.016C5.84295 108.424 6.12417 108.557 7.7137 107.329C12.0666 103.969 16.346 100.513 20.6622 97.0814C20.8635 96.9614 21.0292 96.7915 21.1429 96.5886C21.2567 96.3858 21.3143 96.1571 21.3103 95.9255V95.9255ZM142.885 108.677C143.545 109.4 144.01 109.881 144.511 110.447C145.807 111.772 145.819 111.772 147.433 110.676C153.107 106.775 158.438 102.392 163.915 98.2614C165.138 97.3704 165.065 96.7202 163.915 95.2752C163.023 94.0711 162.693 94.1433 161.311 94.926C159.929 95.7087 158.963 97.0332 157.643 97.9243C152.593 101.236 147.812 104.848 142.836 108.677H142.885ZM113.014 6.18118C114.64 7.71043 115.691 9.62501 117.354 10.9977C119.335 10.2512 120.754 8.70988 122.502 7.62616C122.637 7.54187 122.747 7.42147 122.881 7.33718C123.492 6.90369 123.395 6.47021 122.967 5.95243C121.988 4.74829 121.035 3.62844 120.093 2.44839C119.996 2.30077 119.868 2.17581 119.717 2.08235C119.565 1.98888 119.395 1.92916 119.218 1.90736C119.041 1.88555 118.861 1.90222 118.691 1.95616C118.521 2.0101 118.366 2.10002 118.235 2.2196C116.416 3.4372 114.673 4.76004 113.014 6.18118V6.18118ZM109.101 17.0184C107.878 15.5253 106.656 14.1405 105.531 12.7197C105.453 12.5814 105.343 12.4635 105.21 12.3757C105.077 12.2879 104.924 12.2329 104.765 12.2152C104.606 12.1975 104.445 12.2177 104.295 12.274C104.145 12.3304 104.011 12.4213 103.905 12.5391C102.425 13.6469 100.933 14.7065 99.4294 15.7661C98.7814 16.2237 98.598 16.6331 99.2093 17.2833C100.236 18.3911 101.227 19.5471 102.205 20.7031C102.293 20.859 102.418 20.992 102.569 21.0913C102.72 21.1906 102.892 21.2534 103.072 21.2745C103.252 21.2957 103.435 21.2745 103.605 21.2129C103.775 21.1512 103.928 21.0508 104.051 20.9198C105.677 19.6314 107.365 18.3791 109.15 17.0064L109.101 17.0184ZM106.313 10.8532C107.347 12.3194 108.47 13.7228 109.676 15.0557C109.771 15.2391 109.908 15.3978 110.077 15.5186C110.247 15.6394 110.442 15.719 110.649 15.7507C110.856 15.7825 111.067 15.7655 111.265 15.7012C111.464 15.6369 111.644 15.5271 111.791 15.3808L115.912 12.3945C114.815 10.7753 113.588 9.2452 112.243 7.81882C112.175 7.69755 112.079 7.59351 111.962 7.51481C111.846 7.43612 111.713 7.38487 111.573 7.36507C111.434 7.34526 111.292 7.35745 111.157 7.40064C111.023 7.44383 110.901 7.51687 110.801 7.6141C109.346 8.6617 107.878 9.73341 106.362 10.8412L106.313 10.8532ZM121.732 38.3677C121.732 37.4526 121.279 36.7783 120.374 36.706C119.47 36.6338 119.054 37.2479 118.981 38.0185C118.957 38.2148 118.975 38.4138 119.033 38.6028C119.092 38.7918 119.19 38.9668 119.321 39.1164C119.452 39.266 119.614 39.3869 119.795 39.4716C119.977 39.5563 120.174 39.6027 120.374 39.608C121.34 39.7284 121.658 39.1023 121.781 38.3557L121.732 38.3677ZM97.522 34.8758C97.522 34.5564 97.3932 34.2501 97.1639 34.0243C96.9346 33.7985 96.6235 33.6716 96.2992 33.6716C96.1595 33.6522 96.0172 33.6631 95.8822 33.7037C95.7472 33.7443 95.6229 33.8135 95.518 33.9065C95.4131 33.9994 95.3301 34.1139 95.275 34.2419C95.2199 34.3698 95.1939 34.5081 95.1988 34.647C95.1708 34.7835 95.1717 34.9243 95.2015 35.0604C95.2313 35.1966 95.2894 35.3253 95.372 35.4383C95.4547 35.5514 95.5602 35.6464 95.6818 35.7174C95.8035 35.7884 95.9388 35.834 96.0792 35.8511C96.2434 35.8896 96.414 35.8943 96.5802 35.8647C96.7463 35.8351 96.9045 35.7719 97.0446 35.6791C97.1847 35.5864 97.3038 35.466 97.3944 35.3257C97.485 35.1854 97.5451 35.028 97.5709 34.8637L97.522 34.8758ZM135.194 35.9715C135.212 36.0959 135.255 36.2155 135.32 36.3235C135.385 36.4315 135.471 36.5257 135.573 36.6007C135.676 36.6757 135.792 36.73 135.916 36.7605C136.039 36.791 136.168 36.797 136.294 36.7783C136.448 36.7777 136.6 36.7451 136.74 36.6824C136.881 36.6197 137.006 36.5284 137.107 36.4146C137.209 36.3008 137.285 36.167 137.33 36.0222C137.376 35.8773 137.389 35.7246 137.37 35.5741C137.37 34.8998 136.734 34.7674 136.148 34.8396C136.011 34.8497 135.879 34.8873 135.758 34.9502C135.638 35.0131 135.532 35.0998 135.447 35.2049C135.362 35.3101 135.3 35.4314 135.265 35.5612C135.23 35.691 135.222 35.8266 135.243 35.9595L135.194 35.9715ZM110.666 30.6854C110.507 30.3 110.287 29.7822 109.59 29.8545C109.292 29.8848 109.018 30.0306 108.829 30.2599C108.64 30.4891 108.551 30.7829 108.581 31.0767C108.612 31.3705 108.76 31.6402 108.993 31.8265C109.226 32.0128 109.524 32.1004 109.822 32.0701C110.568 31.9979 110.703 31.4319 110.715 30.6733L110.666 30.6854ZM118.712 12.6233C118.465 12.6471 118.236 12.7599 118.069 12.94C117.902 13.1201 117.809 13.3547 117.807 13.5987C117.807 14.273 118.149 14.574 118.797 14.5981C119.445 14.6222 119.849 14.3091 119.849 13.6589C119.849 13.0087 119.604 12.5752 118.761 12.5631L118.712 12.6233ZM120.802 23.6532C120.802 23.1715 120.595 22.726 119.959 22.7742C119.838 22.7784 119.719 22.8073 119.609 22.8589C119.5 22.9106 119.403 22.9839 119.323 23.0744C119.244 23.1648 119.185 23.2704 119.149 23.3845C119.113 23.4986 119.102 23.6188 119.115 23.7375C119.112 23.8356 119.128 23.9333 119.163 24.0251C119.198 24.1169 119.252 24.201 119.32 24.2726C119.388 24.3441 119.47 24.4018 119.56 24.4422C119.651 24.4826 119.749 24.505 119.849 24.5081C120.497 24.5081 120.766 24.171 120.851 23.593L120.802 23.6532ZM100.334 26.4107C100.97 26.4107 101.361 26.0133 101.422 25.3029C101.422 25.0139 101.361 24.6286 100.921 24.6527C100.6 24.6594 100.291 24.776 100.048 24.9826C99.8048 25.1891 99.6423 25.4727 99.5883 25.7845C99.5639 26.0495 99.8451 26.2902 100.383 26.3505L100.334 26.4107ZM137.285 25.5437C137.199 25.1343 137.052 24.761 136.563 24.773C136.466 24.7648 136.369 24.776 136.277 24.8057C136.185 24.8355 136.099 24.8832 136.026 24.9462C135.953 25.0092 135.894 25.086 135.852 25.1721C135.809 25.2582 135.785 25.3518 135.781 25.4474C135.765 25.5627 135.777 25.68 135.814 25.7904C135.851 25.9008 135.913 26.0015 135.995 26.085C136.078 26.1684 136.178 26.2323 136.289 26.2721C136.4 26.3118 136.519 26.3262 136.637 26.3143C136.743 26.3217 136.85 26.3039 136.949 26.2623C137.047 26.2208 137.134 26.1567 137.202 26.0755C137.27 25.9942 137.318 25.8981 137.341 25.7952C137.363 25.6922 137.361 25.5854 137.334 25.4835L137.285 25.5437ZM130.132 14.8991C129.496 14.8991 129.19 15.2363 129.215 15.6337C129.215 15.7515 129.243 15.8678 129.295 15.9738C129.348 16.0798 129.424 16.1727 129.518 16.2456C129.612 16.3185 129.721 16.3696 129.838 16.395C129.955 16.4204 130.076 16.4195 130.193 16.3923C130.29 16.3785 130.383 16.3446 130.467 16.2928C130.55 16.241 130.621 16.1725 130.675 16.0917C130.729 16.011 130.766 15.9199 130.781 15.8243C130.797 15.7287 130.793 15.631 130.768 15.5373C130.765 15.3711 130.697 15.2122 130.579 15.0935C130.46 14.9748 130.3 14.9053 130.132 14.8991V14.8991Z" fill="#383838"/>
<path d="M89.0009 78.2916C89.0422 74.2294 90.2895 70.2711 92.5844 66.919C94.8794 63.567 98.1186 60.9723 101.891 59.4645C105.663 57.9566 109.798 57.6035 113.771 58.45C117.745 59.2964 121.377 61.3043 124.207 64.2187C127.037 67.1331 128.937 70.8227 129.667 74.8191C130.396 78.8154 129.922 82.9385 128.304 86.6647C126.686 90.391 123.997 93.5526 120.579 95.7482C117.161 97.9437 113.168 99.0742 109.106 98.9962C103.704 98.8868 98.5634 96.6513 94.7993 92.7751C91.0352 88.8988 88.9516 83.6945 89.0009 78.2916V78.2916ZM109.523 61.8697C107.106 61.859 104.717 62.3857 102.529 63.4117C100.599 64.3034 101.016 64.2376 101.966 65.5604C107.813 73.7214 113.686 81.8776 119.587 90.0288C120.588 91.4247 120.42 91.8121 121.896 90.1165C126.559 84.7522 127.743 78.6497 124.951 72.116C122.093 65.4508 116.7 62.2132 109.523 61.8697ZM117.511 93.5588C117.446 93.3627 117.365 93.1721 117.27 92.9887C111.102 84.3551 104.928 75.7263 98.7503 67.1025C98.1729 66.2985 98.1364 66.3205 97.3982 67.044C97.2521 67.1829 97.1205 67.3363 96.989 67.4825C95.2047 69.4635 93.9172 71.8405 93.2329 74.4172C92.5485 76.9939 92.4868 79.6965 93.053 82.3017C93.6192 84.907 94.7969 87.3402 96.489 89.4005C98.1811 91.4607 100.339 93.089 102.785 94.1508C107.718 96.2848 112.6 96.029 117.511 93.5588Z" fill="#CE1055" stroke="#CE1055"/>
<path d="M42.0968 41.1732C42.0112 41.6188 41.6811 41.7633 41.2287 41.679C40.7528 41.5532 40.3266 41.2888 40.006 40.9204C34.5649 36.0075 29.2217 30.9862 23.3771 26.543C23.126 26.3459 22.9002 26.1194 22.7046 25.8687C22.6064 25.7425 22.5532 25.5881 22.5532 25.4292C22.5532 25.2703 22.6064 25.1158 22.7046 24.9897C22.746 24.9214 22.8008 24.8618 22.8658 24.8145C22.9308 24.7672 23.0046 24.7331 23.0831 24.714C23.1615 24.695 23.243 24.6914 23.3229 24.7036C23.4027 24.7158 23.4793 24.7434 23.5483 24.7849C24.0401 25.045 24.5103 25.3429 24.9544 25.676C30.6644 30.047 35.9588 34.9599 41.2042 39.7764C41.6933 40.1377 42.158 40.4869 42.0968 41.1732Z" fill="#383838"/>
<path d="M38.1475 22.7377C38.3469 22.7791 38.5342 22.8645 38.6952 22.9876C38.8562 23.1107 38.9867 23.2682 39.0768 23.4482C41.1391 26.9161 43.1973 30.384 45.2515 33.8519C45.5327 34.3456 45.7283 34.9718 45.0558 35.2848C44.3833 35.5979 44.0288 35.0199 43.7353 34.5503C41.8646 31.4196 40.006 28.3008 38.1597 25.1581C37.8524 24.7013 37.6058 24.2076 37.4261 23.689C37.3819 23.5783 37.3672 23.4584 37.3833 23.3406C37.3993 23.2227 37.4457 23.1109 37.5179 23.0156C37.5902 22.9203 37.6859 22.8448 37.7961 22.7962C37.9063 22.7476 38.0272 22.7274 38.1475 22.7377V22.7377Z" fill="#383838"/>
<path d="M22.142 39.6318C22.2765 39.6318 22.6555 39.8125 23.0101 39.969C25.4555 41.0768 27.9866 42.1725 30.4687 43.2924C30.8283 43.4584 31.172 43.6559 31.4958 43.8824C31.633 43.9672 31.7323 44.1004 31.7732 44.2548C31.8141 44.4093 31.7936 44.5732 31.7158 44.7133C31.656 44.8625 31.5449 44.9864 31.402 45.0634C31.259 45.1404 31.0932 45.1656 30.9333 45.1347C30.616 45.0987 30.3064 45.0134 30.0163 44.8819C27.3752 43.6777 24.7464 42.5458 22.1175 41.3658C21.8271 41.2346 21.5589 41.06 21.3228 40.848C21.1933 40.751 21.1002 40.6144 21.0581 40.4597C21.0161 40.3049 21.0275 40.1408 21.0905 39.9931C21.2372 39.68 21.5306 39.5837 22.142 39.6318Z" fill="#383838"/>
<path d="M52.2942 29.5175C52.2942 30.24 52.2942 30.6494 51.8052 30.7939C51.7106 30.8273 51.61 30.8413 51.5098 30.835C51.4095 30.8286 51.3116 30.802 51.2222 30.7569C51.1327 30.7117 51.0537 30.6489 50.9899 30.5724C50.9261 30.496 50.879 30.4074 50.8514 30.3122C50.3501 28.8191 49.8855 27.326 49.4575 25.8087C49.4256 25.7147 49.4133 25.6153 49.4214 25.5165C49.4294 25.4177 49.4577 25.3215 49.5046 25.2337C49.5514 25.146 49.6158 25.0685 49.6939 25.0059C49.772 24.9433 49.8621 24.8969 49.9588 24.8695C50.0524 24.8318 50.1529 24.8138 50.2539 24.8167C50.3549 24.8197 50.4542 24.8435 50.5452 24.8866C50.6363 24.9298 50.7171 24.9913 50.7825 25.0672C50.8479 25.143 50.8964 25.2316 50.9248 25.3271C51.4506 26.8082 51.8785 28.3133 52.2942 29.5175Z" fill="#383838"/>
<path d="M40.7152 87.6289C39.2968 87.5326 35.5553 83.1736 35.8243 81.8611C35.9209 81.5652 36.0887 81.2967 36.3134 81.0784C36.5346 80.8446 36.7806 80.6347 37.047 80.4523C47.5012 72.4087 57.8332 64.2687 68.752 56.7549C69.2166 56.4298 69.7057 56.1528 70.1459 55.8157C70.5826 55.452 71.1458 55.27 71.7164 55.3082C72.287 55.3464 72.82 55.6018 73.2027 56.0204C73.3828 56.1757 73.5542 56.3405 73.7162 56.5141C76.614 59.5967 76.6263 60.2348 73.3983 62.9321C67.3703 67.9534 61 72.5652 54.7764 77.2854C50.6436 80.4403 46.519 83.6031 42.4025 86.774C41.8768 87.1593 41.4366 87.6289 40.7152 87.6289ZM40.8864 85.7505L42.1091 84.8956C50.1138 78.8026 58.1185 72.7017 66.1232 66.5927C68.4096 64.8467 70.5983 62.9803 72.8725 61.2343C73.0926 61.1295 73.2828 60.9727 73.4263 60.7778C73.5698 60.5829 73.662 60.3561 73.6947 60.1175C73.7274 59.879 73.6996 59.6362 73.6137 59.4108C73.5278 59.1854 73.3866 58.9845 73.2027 58.826C71.7477 56.8031 71.7232 56.7308 69.6935 58.1036C68.2262 59.0789 66.7712 60.0783 65.3529 61.1139C56.7083 67.4236 48.2349 73.9139 39.6759 80.4523C37.5117 82.114 37.4994 82.5234 39.3946 84.5343C39.6603 84.83 39.9419 85.1114 40.2383 85.3772C40.4317 85.5333 40.6455 85.6629 40.8741 85.7626L40.8864 85.7505Z" fill="#383838"/>
<path d="M105.188 110.676C98.4554 110.005 91.9617 107.853 86.1873 104.378C85.5396 104.058 84.9782 103.592 84.5488 103.017C84.4507 102.891 84.3975 102.737 84.3975 102.578C84.3975 102.419 84.4507 102.265 84.5488 102.138C84.6536 102.015 84.7992 101.931 84.9601 101.903C85.1211 101.874 85.2871 101.902 85.4292 101.982C85.7898 102.146 86.1338 102.344 86.4563 102.572C92.162 106.163 98.6378 108.397 105.372 109.098C105.531 109.098 105.69 109.098 105.849 109.098C106.521 109.207 107.56 109.014 107.45 110.026C107.34 111.037 106.35 110.664 105.665 110.676H105.188Z" fill="#383838"/>
<path d="M141.039 76.2494C141.039 77.4536 141.039 78.6577 141.039 79.8618C141.047 79.9609 141.035 80.0606 141.004 80.1551C140.973 80.2496 140.923 80.337 140.856 80.4121C140.79 80.4872 140.71 80.5486 140.619 80.5927C140.529 80.6367 140.43 80.6626 140.33 80.6686C140.125 80.6686 139.929 80.5887 139.785 80.4465C139.64 80.3042 139.559 80.1112 139.559 79.91C139.498 79.3561 139.486 78.8022 139.449 78.2483C139.4 75.6361 139.18 73.0297 138.789 70.4455C138.356 68.3373 137.597 66.3068 136.539 64.4248C136.209 63.8348 135.549 63.0642 136.478 62.6066C137.407 62.149 137.701 63.1244 138.031 63.6903C139.734 66.6704 140.725 69.9937 140.929 73.4077C141.014 74.359 141.039 75.3102 141.088 76.2615L141.039 76.2494Z" fill="#383838"/>
<path d="M95.8961 115.324C93.7563 114.65 91.3965 113.927 89.0489 113.156C88.5842 113 88.1807 112.651 88.3886 112.085C88.5965 111.519 89.1222 111.519 89.6113 111.663C91.9752 112.37 94.331 113.104 96.6786 113.867C97.1555 114.023 97.5712 114.336 97.3633 114.914C97.1555 115.492 96.6419 115.324 95.8961 115.324Z" fill="#383838"/>
<path d="M145.281 74.5283C145.281 75.2267 145.685 76.3947 144.67 76.5151C143.447 76.6717 143.643 75.3712 143.557 74.5885C143.386 73.0834 143.288 71.5782 143.203 70.085C143.203 69.5311 143.203 68.8809 143.961 68.8207C144.719 68.7605 144.817 69.4228 144.878 70.0249C145.024 71.4819 145.147 72.975 145.281 74.5283Z" fill="#383838"/>
</svg>
