<svg width="80" height="80" viewBox="0 0 80 80" fill="none" xmlns="http://www.w3.org/2000/svg">
<path d="M50.3162 20.6252C55.6115 20.5635 60.5459 20.6252 65.4803 20.5075C67.1964 20.4405 68.9117 20.6584 70.5557 21.1522C72.2815 21.6389 73.8684 22.5214 75.1887 23.7288C76.509 24.9362 77.5258 26.4347 78.1575 28.1039C78.918 30.1236 79.4035 32.2353 79.6011 34.3829C80.1651 39.3781 80.0297 44.3845 79.8098 49.3908C79.7026 51.8912 79.6181 54.3972 79.5222 56.8976C79.5222 57.419 79.4827 57.9404 79.4207 58.4562C79.4258 58.6659 79.3851 58.8742 79.3015 59.0668C79.2178 59.2594 79.0932 59.4316 78.9362 59.5718C78.7791 59.7119 78.5934 59.8165 78.3918 59.8785C78.1902 59.9404 77.9775 59.9582 77.7684 59.9306L67.1664 60.0035C66.7773 60.0035 66.3939 60.0035 66.0386 60.0035C65.1307 60.0035 65.1025 60.0035 65.1194 60.9453C65.1871 64.8361 65.2622 68.7305 65.345 72.6287C65.345 73.3632 65.3844 73.3856 66.1232 73.3688C68.291 73.2638 70.4638 73.3953 72.6027 73.7612C73.1218 73.843 73.6255 74.0018 74.0972 74.2321C74.9656 74.6974 74.9713 75.3534 74.0972 75.8804C73.6031 76.1426 73.073 76.3315 72.5238 76.441C70.8591 76.8533 69.1604 77.116 67.4484 77.2259C63.6137 77.5286 59.7677 77.7248 55.916 77.6519C54.5502 77.655 53.1871 77.5311 51.8444 77.2819C51.4623 77.2218 51.095 77.0905 50.7617 76.8951C50.6305 76.8389 50.5176 76.7476 50.4355 76.6314C50.3534 76.5152 50.3053 76.3787 50.2966 76.237C50.2878 76.0953 50.3187 75.9539 50.3859 75.8286C50.4531 75.7033 50.5539 75.5989 50.6771 75.5272C51.1244 75.187 51.6367 74.941 52.1828 74.804C53.8936 74.3027 55.6444 73.9482 57.4161 73.7444C57.98 73.6603 58.7357 73.7444 59.1079 73.3968C59.4801 73.0492 59.2658 72.2756 59.2827 71.7149C59.3786 68.2391 59.4857 64.7632 59.3334 61.2873C59.3334 61.1471 59.3334 61.007 59.3334 60.8668C59.2827 60.0988 59.2827 60.0988 58.4594 60.0932H58.3578L46.5999 60.1941C46.0754 60.1941 45.5171 60.0876 45.534 60.9229C45.534 61.2369 45.2352 61.4835 44.9419 61.6069C44.5991 61.7794 44.2426 61.9238 43.8761 62.0385C36.6296 64.1521 29.5015 66.6413 22.3621 69.0912C18.9365 70.3198 15.3991 71.2154 11.7997 71.7654C9.65556 72.1156 7.47276 72.1666 5.31447 71.9168C5.03619 71.898 4.76777 71.8068 4.53615 71.6523C4.30453 71.4978 4.11786 71.2854 3.99487 71.0366C3.63149 70.4859 3.36632 69.8772 3.211 69.237C3.13733 68.8221 3.17695 68.3952 3.32573 68.0008C3.47452 67.6064 3.72701 67.2589 4.0569 66.9945C4.84157 66.3533 5.71051 65.8214 6.6397 65.4135C9.19995 64.2026 11.873 63.2551 14.5347 62.2684C16.5649 61.5116 18.595 60.7547 20.6139 59.9754C21.4937 59.6391 21.4993 59.611 21.4429 58.6972C21.223 54.9124 21.223 51.1182 21.4429 47.3334C21.5444 45.5281 21.7361 43.7285 21.9053 41.9289C21.9843 41.1048 21.973 41.1048 21.1384 40.9983C21.0326 40.993 20.9271 40.9818 20.8226 40.9647C20.6026 40.9254 20.4165 40.8301 20.4504 40.5666C20.4842 40.3031 20.6816 40.348 20.8451 40.3031C21.2624 40.1966 21.8264 40.6003 22.0801 40.0901C22.2293 39.6642 22.3111 39.2179 22.3226 38.767C22.7002 35.7323 23.3225 32.7326 24.1836 29.797C24.7418 27.961 25.6157 26.2349 26.7664 24.6953C27.7526 23.3356 29.0698 22.2468 30.5946 21.531C32.1194 20.8153 33.802 20.4959 35.4848 20.6028C39.6804 20.7205 43.8874 20.6028 48.083 20.6028L50.3162 20.6252ZM70.7023 22.066C70.2823 21.8142 69.8168 21.6466 69.332 21.5727C69.1669 21.5195 68.9884 21.5257 68.8275 21.5903C68.6667 21.6549 68.5338 21.7737 68.4522 21.9259C65.5536 25.6316 62.3674 29.1243 59.5477 32.8861C59.4218 33.0523 59.2802 33.2063 59.1248 33.3458C59.072 33.3924 59.0048 33.4198 58.9342 33.4233C58.8636 33.4268 58.794 33.4063 58.7368 33.3651C58.6795 33.3239 58.6382 33.2645 58.6195 33.1968C58.6009 33.1291 58.606 33.057 58.6342 32.9926C58.7879 32.7189 58.9613 32.4566 59.153 32.2077C61.6681 28.844 64.4539 25.7325 67.0819 22.4809C67.3982 22.1861 67.6431 21.8238 67.7981 21.4213C67.0255 21.1578 66.3544 21.0849 65.7115 21.7745C65.3619 22.1501 64.9333 22.4641 64.5836 22.8565L58.7864 29.4663C58.6128 29.6773 58.4243 29.8759 58.2225 30.0605C58.1698 30.1074 58.1015 30.1333 58.0308 30.1333C57.96 30.1333 57.8918 30.1074 57.839 30.0605C57.7838 30.0155 57.7466 29.9523 57.7342 29.8824C57.7218 29.8124 57.735 29.7404 57.7714 29.6793C57.9399 29.415 58.1284 29.1639 58.3353 28.9281C60.3372 26.6407 62.3392 24.3646 64.3355 22.0772C64.5273 21.8586 64.8374 21.696 64.8092 21.2755C64.396 21.1989 63.9698 21.2321 63.5736 21.3719C63.1775 21.5117 62.8256 21.7531 62.5535 22.0716C61.1775 23.6414 59.7338 25.1382 58.2563 26.6519C58.0251 26.893 57.7544 27.4424 57.3653 27.05C56.9762 26.6575 57.5345 26.3884 57.7657 26.1305C59.0458 24.7514 60.3485 23.3891 61.6343 22.0156C61.7865 21.853 62.0629 21.7296 61.9275 21.4213C59.5421 21.2251 39.2688 21.3484 38.4172 21.5839C39.489 22.1471 40.4035 22.9657 41.079 23.9665C41.8705 25.1591 42.4628 26.4711 42.8328 27.8517C43.5339 30.5051 44.0316 33.2076 44.3216 35.9359C44.7727 39.5631 44.9645 43.224 45.066 46.8624C45.1788 50.7868 45.2013 54.7112 45.066 58.6356C45.066 59.4765 45.0209 59.4933 45.9006 59.4821C48.8782 59.4559 51.8538 59.4204 54.8276 59.3756C55.0194 59.3756 55.2449 59.426 55.3916 59.1625C54.8276 57.3573 54.6867 55.5353 55.5551 53.6965C56.2544 53.9712 56.886 54.2066 57.4499 53.5955C58.0138 52.9845 57.5683 52.3397 57.2356 51.7791C57.9684 51.2675 58.7417 50.8157 59.5477 50.428C59.977 50.1855 60.3263 49.8245 60.5535 49.3887C60.7807 48.9529 60.876 48.461 60.8279 47.9725C60.8279 47.5912 60.7433 47.21 60.7094 46.8512C60.6004 46.1994 60.5589 45.5381 60.5854 44.8778C60.7665 43.6844 61.2926 42.5691 62.0995 41.6673C62.9064 40.7656 63.9595 40.1164 65.1307 39.7986C65.9138 39.6092 66.7088 39.4724 67.5104 39.3893C68.8188 39.1819 69.2586 38.7726 69.5124 37.4944C69.5519 37.287 69.5857 37.0795 69.6083 36.8721C69.9748 33.8616 71.926 32.1685 74.5314 31.0192C74.6606 30.9329 74.8128 30.8868 74.9684 30.8868C75.1241 30.8868 75.2763 30.9329 75.4055 31.0192C75.4984 31.1028 75.609 31.1646 75.7291 31.2002C75.8493 31.2358 75.9759 31.2443 76.0997 31.2249C76.2235 31.2056 76.3414 31.1589 76.4447 31.0884C76.5481 31.0179 76.6342 30.9253 76.6969 30.8174C76.8385 30.5982 77.0294 30.4148 77.2545 30.2815C77.4795 30.1482 77.7327 30.0687 77.9939 30.0493C77.7715 29.0472 77.4089 28.081 76.9168 27.1789C75.9596 25.3012 74.4433 23.7624 72.5746 22.7724C71.582 22.2398 71.5764 22.2118 70.8207 23.0135C70.1835 23.6638 69.5688 24.3309 68.9372 24.9813C68.7746 25.1635 68.5973 25.3322 68.4071 25.4858C68.3741 25.5144 68.3356 25.5362 68.294 25.5497C68.2523 25.5633 68.2084 25.5684 68.1647 25.5647C68.1211 25.561 68.0786 25.5487 68.0398 25.5284C68.001 25.5081 67.9668 25.4803 67.939 25.4466C67.8936 25.3922 67.8688 25.3238 67.8688 25.2532C67.8688 25.1825 67.8936 25.1141 67.939 25.0597C68.0857 24.8635 68.2436 24.6785 68.4071 24.4991L70.7023 22.066ZM44.1581 53.7189L44.3216 53.6516C44.3216 51.6334 44.3554 49.6207 44.3216 47.6081C44.2771 42.1103 43.7906 36.6249 42.8667 31.2042C42.555 29.2092 41.9746 27.2651 41.141 25.4241C39.4831 21.9651 35.9641 21.0232 32.8681 21.4998C30.7782 21.8935 28.9106 23.0467 27.6292 24.7346C26.4427 26.2034 25.5402 27.878 24.9675 29.6737C23.8396 32.9197 23.4167 36.3059 22.9035 39.6696C22.8245 40.191 22.9655 40.4321 23.5238 40.4937C23.8791 40.5386 24.5502 40.3312 24.4938 40.9422C24.4487 41.402 23.8565 41.1777 23.5069 41.1777C22.7456 41.1777 22.7456 41.1777 22.6384 41.9682C22.379 43.8351 22.2324 45.7076 22.1365 47.5744C21.9269 51.2926 21.9401 55.0199 22.176 58.7365C22.2437 59.6783 22.2719 59.6839 23.2418 59.6783L43.3009 59.4933C44.2708 59.4933 44.2539 59.4597 44.3385 58.4898C44.4231 57.5199 44.1468 56.4884 44.3723 55.4904C44.4344 55.2045 44.2708 55.0027 44.0509 54.7785C43.4575 54.0501 42.9291 53.2716 42.4719 52.4519C42.3535 52.2781 42.2632 52.0426 42.4719 51.8912C42.6806 51.7399 42.9287 51.8912 43.0753 52.0818L44.1581 53.7189ZM41.8008 60.2389H40.7632C35.1239 60.295 29.4846 60.3847 23.8452 60.3847C22.3193 60.3612 20.8041 60.6434 19.3902 61.2144C15.9615 62.616 12.42 63.7485 8.99694 65.1388C7.7936 65.6139 6.6269 66.176 5.5062 66.8207C5.01155 67.0862 4.57003 67.4397 4.20352 67.8634C4.10552 67.9537 4.03217 68.0673 3.99035 68.1934C3.94852 68.3196 3.93959 68.4542 3.96438 68.5848C3.98918 68.7153 4.04689 68.8374 4.13211 68.9397C4.21733 69.042 4.32728 69.1211 4.45165 69.1697C4.87888 69.4116 5.35443 69.5571 5.84456 69.5958C7.35044 69.7311 8.86777 69.6651 10.356 69.3995C10.5809 69.3818 10.7975 69.3071 10.9851 69.1824C11.1727 69.0578 11.325 68.8874 11.4275 68.6876C11.9275 67.8242 12.4407 66.9702 12.967 66.1255C13.1418 65.8396 13.2546 65.2453 13.7452 65.5649C14.1174 65.8003 13.7452 66.1984 13.5986 66.4843C13.1418 67.3028 12.6681 68.1045 12.1831 68.951C13.8355 69.0015 14.1569 68.8333 14.8393 67.5383C15.2002 66.8599 15.5385 66.1703 15.8825 65.4864C15.9615 65.335 16.0292 65.1724 16.1194 65.0267C16.2096 64.8809 16.407 64.6959 16.6382 64.8248C16.7133 64.8733 16.7672 64.9482 16.7891 65.0344C16.8111 65.1207 16.7995 65.212 16.7566 65.2902C16.5367 65.8003 16.2886 66.2993 16.0574 66.8039C15.7757 67.2703 15.5432 67.7644 15.3637 68.2783C15.8328 68.3314 16.3061 68.2222 16.7036 67.9689C17.1011 67.7156 17.3987 67.3339 17.5461 66.8879C17.7695 66.3785 18.0296 65.8857 18.3244 65.4135C18.4428 65.2005 18.5894 64.9314 18.8883 65.0659C19.1872 65.2005 19.0744 65.5312 18.9503 65.7779C18.674 66.3385 18.3864 66.8992 18.0819 67.4598C19.0011 67.4318 40.2951 61.0799 41.8008 60.2389ZM60.0666 68.2278H59.9932C59.9932 70.2125 59.9932 72.1914 59.9932 74.1761C59.9932 74.9049 60.0553 75.6281 60.0891 76.3569C60.0891 76.7325 60.2808 76.9175 60.6812 76.9175C61.8091 76.8559 62.937 76.7998 64.0366 76.7549C64.4596 76.7549 64.516 76.4971 64.5555 76.1439C64.6259 74.9975 64.6259 73.848 64.5555 72.7016C64.484 68.7773 64.4088 64.8529 64.3299 60.9285C64.3299 60.0595 64.3299 60.0483 63.4614 60.0427C62.593 60.0371 61.7696 60.0427 60.9407 60.0708C60.1117 60.0988 60.0722 60.0708 60.0666 60.9397V68.2278ZM68.0913 54.2122C68.087 53.935 67.9747 53.6702 67.778 53.4737C67.5813 53.2771 67.3156 53.164 67.0367 53.1582C66.915 53.1602 66.795 53.1869 66.6839 53.2365C66.5729 53.2861 66.4732 53.3577 66.3909 53.4468C66.3085 53.536 66.2454 53.6409 66.2052 53.7552C66.165 53.8694 66.1486 53.9906 66.157 54.1113C66.1731 54.4058 66.3052 54.6821 66.5247 54.8804C66.7443 55.0788 67.0336 55.1831 67.33 55.1709C67.5571 55.1311 67.761 55.0085 67.9019 54.827C68.0427 54.6455 68.1103 54.4183 68.0913 54.1898V54.2122ZM78.1575 37.7635C78.1282 37.5069 78.0041 37.2702 77.8092 37.0993C77.6144 36.9284 77.3627 36.8354 77.1029 36.8385C76.8612 36.8696 76.6389 36.9867 76.4772 37.168C76.3155 37.3494 76.2253 37.5828 76.2232 37.8252C76.2201 37.9536 76.2432 38.0814 76.2911 38.2007C76.339 38.3201 76.4106 38.4286 76.5018 38.5197C76.5929 38.6108 76.7016 38.6827 76.8214 38.731C76.9412 38.7793 77.0696 38.803 77.1988 38.8007C77.4582 38.7734 77.6987 38.653 77.8752 38.4621C78.0517 38.2711 78.1521 38.0228 78.1575 37.7635V37.7635ZM66.8112 43.8239C66.8146 43.6951 66.791 43.5671 66.7418 43.448C66.6926 43.3289 66.6189 43.2213 66.5255 43.1321C66.4321 43.0429 66.3209 42.9741 66.1992 42.9301C66.0775 42.8861 65.9479 42.8678 65.8187 42.8764C65.5787 42.9023 65.3578 43.0183 65.201 43.2007C65.0442 43.383 64.9633 43.618 64.9748 43.8576C64.9863 44.0973 65.0894 44.3235 65.263 44.4902C65.4366 44.6568 65.6676 44.7514 65.9089 44.7545C66.1522 44.7472 66.3832 44.6459 66.5527 44.4722C66.7222 44.2984 66.8169 44.0659 66.8168 43.8239H66.8112ZM75.4675 48.7742C75.5872 48.7993 75.7109 48.7975 75.8298 48.7688C75.9486 48.7401 76.0594 48.6853 76.1541 48.6083C76.2488 48.5314 76.325 48.4343 76.3769 48.3243C76.4289 48.2143 76.4554 48.094 76.4544 47.9725C76.4737 47.8648 76.4698 47.7543 76.443 47.6482C76.4162 47.5421 76.3671 47.4429 76.2989 47.357C76.2307 47.2712 76.1449 47.2007 76.0473 47.1503C75.9497 47.0998 75.8424 47.0705 75.7326 47.0643C75.6119 47.0511 75.4898 47.0622 75.3736 47.0967C75.2573 47.1313 75.1492 47.1887 75.0556 47.2655C74.962 47.3424 74.8849 47.4371 74.8287 47.5441C74.7726 47.651 74.7386 47.7681 74.7288 47.8884C74.7079 47.9969 74.7115 48.1086 74.7393 48.2155C74.7672 48.3224 74.8186 48.4219 74.8898 48.5066C74.9611 48.5914 75.0503 48.6594 75.1512 48.7056C75.2521 48.7519 75.3621 48.7753 75.4732 48.7742H75.4675ZM74.475 59.3532C75.0389 59.3532 75.5352 59.0953 75.5295 58.7925C75.529 58.5687 75.4524 58.3517 75.3122 58.1767C75.1719 58.0016 74.9763 57.8788 74.757 57.8283C74.4977 57.8422 74.2512 57.9446 74.0591 58.1182C73.867 58.2918 73.741 58.5261 73.7024 58.7813C73.646 59.1289 73.9449 59.3419 74.4806 59.3532H74.475ZM60.3767 59.185C60.591 59.0224 61.1549 59.3475 61.1549 58.8598C61.1549 58.3721 60.6474 58.3665 60.2639 58.3552C59.8805 58.344 59.6323 58.5459 59.6605 58.9159C59.6887 59.2859 60.1117 59.1401 60.4049 59.185H60.3767Z" fill="#383838"/>
<path d="M46.4816 16.8185C44.8116 16.8052 43.1828 16.3007 41.8007 15.3686C40.4185 14.4366 39.3449 13.1186 38.715 11.5809C38.0851 10.0432 37.9272 8.35447 38.2612 6.72767C38.5952 5.10087 39.4061 3.60876 40.5918 2.43941C41.7774 1.27005 43.2848 0.475797 44.9238 0.156735C46.5628 -0.162327 48.2601 0.00808884 49.8018 0.646503C51.3436 1.28492 52.6607 2.36276 53.5872 3.74417C54.5138 5.12559 55.0082 6.74876 55.0083 8.4091C55.0046 9.51807 54.781 10.6154 54.3504 11.6384C53.9197 12.6614 53.2904 13.59 52.4985 14.371C51.7066 15.1521 50.7676 15.7702 49.7351 16.1902C48.7027 16.6101 47.5971 16.8236 46.4816 16.8185ZM38.8009 8.45396C38.8143 9.97271 39.2804 11.4534 40.1402 12.7089C41 13.9643 42.2149 14.9382 43.6313 15.5073C45.0478 16.0765 46.6021 16.2154 48.098 15.9064C49.5938 15.5975 50.9639 14.8546 52.0351 13.7716C53.1063 12.6887 53.8305 11.3144 54.1161 9.82233C54.4017 8.33029 54.2359 6.78757 53.6398 5.38919C53.0436 3.9908 52.0437 2.79953 50.7666 1.96597C49.4895 1.13241 47.9924 0.693983 46.4647 0.706119C45.4488 0.711225 44.4439 0.916061 43.5079 1.30883C42.572 1.70159 41.7234 2.27454 41.0111 2.99467C40.2988 3.7148 39.7368 4.56789 39.3574 5.50482C38.9781 6.44176 38.789 7.44405 38.8009 8.45396V8.45396Z" fill="#383838"/>
<path d="M1.93071 16.3755C2.56213 16.4495 3.17104 16.6538 3.71837 16.9754C4.08701 17.131 4.50157 17.1404 4.87698 17.0018C5.2524 16.8631 5.5602 16.5869 5.73724 16.2298C5.95582 15.5601 6.34426 14.9577 6.86511 14.4806C7.01215 14.3066 7.21035 14.1827 7.43186 14.1264C7.65338 14.07 7.88707 14.0841 8.10011 14.1667C8.59073 14.3909 8.66404 14.8394 8.66404 15.2879C8.65196 15.8495 8.45372 16.3915 8.10011 16.8296C7.94677 16.971 7.85153 17.1638 7.83279 17.3709C7.81404 17.5779 7.87311 17.7846 7.99861 17.9509C9.12647 19.9299 7.49107 21.9257 5.40452 21.78C4.85669 21.7634 4.3331 21.5516 3.92933 21.1831C3.52556 20.8147 3.26854 20.3141 3.20519 19.7729C3.0924 19.0161 3.09241 19.0217 2.30854 18.9712C1.81726 18.9673 1.33258 18.8583 0.887434 18.6517C0.593841 18.5773 0.340353 18.3933 0.179592 18.138C0.018831 17.8827 -0.0368534 17.5756 0.0241012 17.2806C0.0850557 16.9855 0.257967 16.7251 0.506935 16.5535C0.755904 16.3818 1.06181 16.3121 1.36114 16.3587C1.46264 16.3643 1.59799 16.3755 1.93071 16.3755ZM2.43261 18.2536H3.08113C3.29542 18.2536 3.51535 18.2536 3.56047 17.9733C3.60558 17.693 3.45332 17.6594 3.29542 17.5753C2.69682 17.208 1.99343 17.0465 1.29346 17.1156C1.09045 17.1156 0.859238 17.1772 0.791566 17.4239C0.723895 17.6706 0.932547 17.8668 1.13556 17.9845C1.52901 18.2067 1.9826 18.3009 2.43261 18.2536V18.2536ZM7.8971 15.3608C7.8971 15.2375 7.94786 15.0076 7.69409 14.9179C7.44032 14.8282 7.36701 14.9908 7.24858 15.1085C6.90421 15.4517 6.64541 15.8702 6.49291 16.3307C6.42524 16.5325 6.37449 16.7343 6.62262 16.8913C6.67318 16.9247 6.73008 16.9475 6.78983 16.9583C6.84958 16.9691 6.91091 16.9676 6.97006 16.9539C7.02921 16.9403 7.08493 16.9148 7.1338 16.8789C7.18266 16.8431 7.22364 16.7977 7.25422 16.7455C7.59313 16.3519 7.81566 15.8726 7.8971 15.3608V15.3608Z" fill="#383838"/>
<path d="M73.5724 79.0198C73.3694 79.0198 73.1157 79.0478 73.0536 78.7843C72.9916 78.5208 73.2341 78.3863 73.4935 78.3414C74.283 78.2069 75.0781 78.0835 75.8676 77.9434C76.4947 77.8554 77.0982 77.6459 77.644 77.3267C78.958 76.497 79.0031 75.1795 77.723 74.3049C76.7082 73.6826 75.6004 73.2246 74.4409 72.9482C74.0969 72.8473 73.4709 72.8866 73.5837 72.3876C73.6965 71.8886 74.283 72.169 74.6552 72.2587C75.7832 72.5113 76.8654 72.9348 77.864 73.5145C78.7381 74.0414 79.4712 74.6862 79.3922 75.8186C79.3457 76.3423 79.1488 76.8416 78.8248 77.2571C78.5009 77.6726 78.0636 77.9867 77.5651 78.162C76.2778 78.6207 74.9354 78.9091 73.5724 79.0198V79.0198Z" fill="#383838"/>
<path d="M66.9689 15.9441C68.5501 16.0861 70.0981 16.4798 71.5536 17.1102C72.6697 17.5972 73.7512 18.1591 74.7906 18.792C74.9823 18.9098 75.1233 19.0948 74.9993 19.3078C74.8752 19.5209 74.6327 19.4928 74.4353 19.3975C74.1534 19.2574 73.8714 19.1004 73.612 18.9378C71.4941 17.6362 69.1034 16.8363 66.6249 16.6C66.3034 16.6 65.8636 16.6841 65.7959 16.1851C65.7508 15.9833 66.0271 15.9104 66.9689 15.9441Z" fill="#383838"/>
<path d="M50.2317 78.2966C50.2317 78.448 50.1528 78.5769 50.0005 78.5825C49.8281 78.5927 49.6554 78.5679 49.493 78.5096C48.6774 78.2009 47.9029 77.7942 47.1865 77.2987C46.256 76.6035 46.1714 75.8298 46.9722 75.0169C47.9307 74.1449 49.0942 73.5261 50.3558 73.2173C50.4374 73.1813 50.5299 73.1787 50.6134 73.2102C50.6968 73.2417 50.7644 73.3047 50.8013 73.3855C50.9141 73.6378 50.7562 73.7892 50.5532 73.8733C50.2035 74.0303 49.837 74.148 49.4873 74.2938C48.7965 74.5442 48.1608 74.9249 47.6151 75.415C47.0512 75.9756 47.0512 76.312 47.694 76.7661C48.3331 77.1912 49.0155 77.5483 49.7298 77.8313C49.961 77.9322 50.1923 77.9995 50.2317 78.2966Z" fill="#383838"/>
<path d="M15.4367 54.7558C15.6566 52.8609 15.8314 50.966 16.1811 49.0935C16.2431 48.7683 16.2375 48.2582 16.6886 48.3367C17.1397 48.4151 16.9649 48.8973 16.9029 49.2112C16.5702 50.9492 16.4405 52.7095 16.198 54.4587C16.198 54.5988 16.198 54.739 16.1585 54.8735C16.1247 55.1538 16.0852 55.4958 15.7074 55.4342C15.3295 55.3725 15.4085 55.0305 15.4367 54.7558Z" fill="#383838"/>
<path d="M68.1139 79.1598C68.7343 79.1094 69.3602 79.0533 69.9806 79.0197C70.2512 79.0197 70.6122 78.9636 70.6178 79.3505C70.6234 79.7373 70.2682 79.7317 69.9975 79.7541C69.5463 79.7934 69.0952 79.8046 68.644 79.8326L66.1458 79.9896C65.9393 80.0035 65.732 80.0035 65.5255 79.9896C65.4555 79.9829 65.3894 79.9544 65.3367 79.9081C65.284 79.8617 65.2474 79.8 65.2323 79.7317C65.2251 79.6888 65.2268 79.645 65.2373 79.6028C65.2477 79.5606 65.2667 79.521 65.2931 79.4864C65.3195 79.4517 65.3527 79.4228 65.3907 79.4014C65.4288 79.3799 65.4708 79.3664 65.5142 79.3617C65.8208 79.2995 66.132 79.262 66.4447 79.2496C67.0086 79.2496 67.5726 79.2496 68.1365 79.2496L68.1139 79.1598Z" fill="#383838"/>
<path d="M13.2209 51.4761C13.266 50.9154 13.2942 50.3548 13.3562 49.8334C13.3562 49.6316 13.4465 49.4074 13.7115 49.3962C13.9766 49.3849 14.0612 49.598 14.0499 49.811C13.9991 50.8089 13.9314 51.8012 13.8638 52.7991C13.8653 52.8426 13.8582 52.8859 13.8428 52.9266C13.8275 52.9673 13.8042 53.0046 13.7744 53.0364C13.7445 53.0681 13.7087 53.0937 13.6688 53.1117C13.629 53.1297 13.586 53.1397 13.5423 53.1411C13.2829 53.1411 13.2096 52.9393 13.204 52.7151C13.204 52.3058 13.204 51.8909 13.204 51.4761H13.2209Z" fill="#383838"/>
<path d="M17.2979 40.2523C17.2302 40.4317 17.1005 40.5663 16.9088 40.5158C15.9978 40.2785 15.1091 39.9633 14.2527 39.5739C14.2108 39.5587 14.1728 39.5345 14.1414 39.5031C14.11 39.4716 14.0859 39.4337 14.0709 39.392C14.0558 39.3503 14.0502 39.3058 14.0543 39.2617C14.0584 39.2176 14.0722 39.1749 14.0948 39.1367C14.118 39.0701 14.166 39.0149 14.229 38.9826C14.292 38.9502 14.3651 38.9432 14.4331 38.9629C15.3241 39.2656 16.2095 39.5852 17.0892 39.9103C17.1529 39.942 17.2062 39.9909 17.2432 40.0514C17.2801 40.1119 17.299 40.1816 17.2979 40.2523V40.2523Z" fill="#383838"/>
<path d="M74.3563 15.9777C74.3112 16.2356 74.1251 16.3477 73.9052 16.2412C73.4653 16.0338 73.0424 15.7871 72.6194 15.5404C72.3205 15.3666 72.0273 15.1816 71.7453 14.9798C71.6898 14.9347 71.6533 14.8705 71.6428 14.8C71.6324 14.7295 71.6488 14.6576 71.6889 14.5985C71.7202 14.5578 71.7602 14.5246 71.8061 14.5013C71.8519 14.478 71.9025 14.4653 71.954 14.464C72.8104 14.7596 73.6054 15.2079 74.2999 15.7871C74.3394 15.8207 74.3394 15.9104 74.3563 15.9777Z" fill="#383838"/>
<path d="M9.02534 33.1998C9.02534 33.4465 8.96895 33.5754 8.81668 33.6315C8.75206 33.6585 8.67994 33.6621 8.61293 33.6416C8.54593 33.6211 8.4883 33.5778 8.45013 33.5193C8.04438 32.8421 7.72069 32.1195 7.48581 31.3666C7.46675 31.2999 7.47085 31.2287 7.49746 31.1647C7.52406 31.1006 7.57161 31.0473 7.63243 31.0134C7.69055 30.9725 7.76228 30.9556 7.83266 30.966C7.90305 30.9765 7.96666 31.0135 8.01026 31.0694C8.41097 31.7485 8.75065 32.4614 9.02534 33.1998V33.1998Z" fill="#383838"/>
<path d="M6.47571 25.5924C6.47571 25.2784 6.47571 24.9869 6.79715 24.9757C7.04528 24.9757 7.12423 25.1887 7.1637 25.4018C7.27085 26.0129 7.378 26.624 7.46823 27.235C7.48347 27.2851 7.48818 27.3378 7.48207 27.3897C7.47596 27.4417 7.45915 27.4918 7.4327 27.5371C7.40625 27.5823 7.37073 27.6216 7.32833 27.6526C7.28593 27.6836 7.23757 27.7056 7.18626 27.7172C6.93813 27.7564 6.80279 27.5658 6.76331 27.3528C6.65053 26.7417 6.53774 26.1306 6.47571 25.5924Z" fill="#383838"/>
<path d="M55.6902 71.894C56.068 71.9893 56.7391 71.6978 56.756 72.2136C56.756 72.8246 56.0849 72.606 55.6789 72.6396C55.3375 72.7153 54.9809 72.684 54.6582 72.5499C54.5731 72.4977 54.5107 72.4157 54.4834 72.3201C54.4659 72.2525 54.4755 72.1808 54.5103 72.1201C54.545 72.0594 54.6021 72.0145 54.6695 71.9949C55.0027 71.9109 55.3468 71.8769 55.6902 71.894V71.894Z" fill="#383838"/>
<path d="M10.6153 49.727C10.4722 50.3226 10.2523 50.8973 9.96118 51.437C9.92393 51.4966 9.867 51.5414 9.80014 51.5639C9.73328 51.5864 9.66063 51.5852 9.59462 51.5603C9.52917 51.5386 9.47349 51.4947 9.43739 51.4362C9.40129 51.3778 9.38708 51.3086 9.39725 51.2407C9.49925 50.6305 9.71131 50.0437 10.0232 49.5084C10.0587 49.4485 10.1149 49.4035 10.1813 49.3819C10.2478 49.3602 10.3199 49.3633 10.3841 49.3907C10.542 49.4411 10.5702 49.5757 10.6153 49.727Z" fill="#383838"/>
<path d="M11.23 37.7577C11.1382 37.7426 11.0502 37.7102 10.9706 37.6624C10.5815 37.3204 10.198 36.9728 9.84274 36.614C9.80781 36.5876 9.77847 36.5546 9.75643 36.5169C9.73439 36.4791 9.72008 36.4374 9.71431 36.3942C9.70854 36.3509 9.71144 36.307 9.72284 36.2648C9.73423 36.2227 9.7539 36.1832 9.78071 36.1487C9.81241 36.1036 9.8546 36.0668 9.90369 36.0413C9.95278 36.0159 10.0073 36.0026 10.0627 36.0026C10.118 36.0026 10.1726 36.0159 10.2217 36.0413C10.2707 36.0668 10.3129 36.1036 10.3446 36.1487C10.7337 36.4907 11.1229 36.8327 11.4725 37.2139C11.5179 37.2596 11.5484 37.3178 11.56 37.3809C11.5716 37.4441 11.5638 37.5092 11.5377 37.5679C11.5115 37.6266 11.4681 37.6761 11.4133 37.71C11.3584 37.7438 11.2945 37.7604 11.23 37.7577V37.7577Z" fill="#383838"/>
<path d="M41.0447 49.1328C41.0348 49.2017 40.9991 49.2643 40.9447 49.308C40.8903 49.3517 40.8212 49.3732 40.7514 49.3683C40.6639 49.3669 40.5777 49.3467 40.4988 49.3089C40.4199 49.2712 40.3503 49.2168 40.2946 49.1496C39.7307 48.6282 39.1668 48.1012 38.6028 47.5687C38.428 47.3949 38.2532 47.1762 38.5013 46.9464C38.7495 46.7165 38.9074 46.8903 39.0653 47.0305C39.6743 47.6023 40.2777 48.1779 40.8755 48.7572C40.9322 48.8015 40.9772 48.8588 41.0066 48.9243C41.0361 48.9897 41.0491 49.0613 41.0447 49.1328Z" fill="#383838"/>
<path d="M28.3563 41.3681C29.0443 41.497 29.862 41.6428 30.6797 41.8054C30.894 41.8446 31.097 41.9511 31.0462 42.209C30.9955 42.4669 30.753 42.4893 30.55 42.4557C29.7266 42.338 28.9089 42.1922 28.0856 42.0577C27.8431 42.0184 27.5217 41.9623 27.5668 41.6652C27.6006 41.2672 27.9672 41.3849 28.3563 41.3681Z" fill="#383838"/>
<path d="M33.7593 43.3694C34.4656 43.6147 35.1411 43.9401 35.7725 44.3392C35.8301 44.3799 35.8695 44.4414 35.8821 44.5105C35.8948 44.5797 35.8797 44.651 35.8402 44.7093C35.8087 44.7728 35.7563 44.8236 35.6916 44.8532C35.6269 44.8828 35.5539 44.8894 35.4849 44.8718C34.7972 44.6398 34.1372 44.3334 33.5168 43.958C33.458 43.9201 33.4145 43.8628 33.3938 43.7962C33.3732 43.7296 33.3768 43.6579 33.404 43.5936C33.4547 43.4422 33.607 43.3974 33.7593 43.3694Z" fill="#383838"/>
<path d="M49.7405 8.80159C49.7405 9.28372 49.7405 9.77147 49.7405 10.2592C49.7405 10.747 49.5769 11.1002 49.0694 11.1618C48.8775 11.1711 48.6951 11.2478 48.5547 11.3781C48.4143 11.5085 48.3249 11.6841 48.3025 11.8738C48.2385 12.1085 48.1272 12.3279 47.9754 12.5185C47.8457 12.7284 47.6599 12.8983 47.4388 13.0093C47.2176 13.1203 46.9697 13.168 46.7229 13.1471C46.476 13.1261 46.2399 13.0374 46.0408 12.8908C45.8418 12.7441 45.6876 12.5454 45.5956 12.3167C45.4938 12.1333 45.4233 11.9344 45.3869 11.728C45.3362 11.3805 45.1388 11.3076 44.823 11.2571C43.6951 11.0777 43.6162 10.9544 43.6218 9.84435C43.5553 8.51745 43.7233 7.18923 44.1181 5.91998C44.2671 5.41697 44.541 4.95929 44.9145 4.58899C45.2879 4.21869 45.749 3.94766 46.2554 3.80082C46.5536 3.69455 46.8701 3.64881 47.1864 3.66632C47.5027 3.68382 47.8122 3.76421 48.0966 3.90273C48.3811 4.04124 48.6347 4.23508 48.8425 4.47276C49.0502 4.71044 49.2079 4.98713 49.3063 5.28647C49.5474 5.97601 49.6806 6.69831 49.701 7.42806C49.7348 7.87656 49.701 8.33066 49.701 8.78477L49.7405 8.80159Z" fill="#383838"/>
<path d="M52.9831 7.85935C52.9436 8.30224 52.9154 8.75635 52.8534 9.19924C52.8139 9.46834 52.7518 9.81032 52.3796 9.75987C52.0075 9.70941 52.0921 9.40667 52.1146 9.16C52.1372 8.91332 52.1766 8.59937 52.2161 8.33588C52.3103 7.71714 52.2912 7.08658 52.1597 6.47461C52.1435 6.42475 52.1386 6.37192 52.1455 6.31997C52.1524 6.26801 52.1708 6.21822 52.1994 6.17421C52.228 6.1302 52.2661 6.09307 52.3109 6.06552C52.3558 6.03796 52.4062 6.02067 52.4586 6.01489C52.656 5.98686 52.78 6.14944 52.8364 6.31202C52.972 6.81601 53.0216 7.33905 52.9831 7.85935V7.85935Z" fill="#383838"/>
<path d="M40.9378 9.96202C40.9378 10.2816 40.9096 10.489 40.6614 10.5226C40.5727 10.5339 40.483 10.5104 40.4114 10.457C40.3398 10.4036 40.2919 10.3246 40.278 10.2367C40.1708 9.79943 40.0806 9.35654 40.0073 8.91365C39.9863 8.82824 39.9992 8.73807 40.0433 8.66186C40.0874 8.58565 40.1593 8.52926 40.2441 8.50439C40.5092 8.43151 40.6389 8.61651 40.6953 8.82394C40.7855 9.2332 40.8532 9.64246 40.9378 9.96202Z" fill="#383838"/>
<path d="M41.8569 4.52965C41.6372 5.13562 41.3457 5.7134 40.9884 6.25076C40.9489 6.30683 40.7967 6.31804 40.7065 6.30122C40.6385 6.28636 40.5788 6.24603 40.54 6.18861C40.5011 6.13119 40.486 6.06109 40.4978 5.99288C40.6068 5.35228 40.8962 4.7555 41.3324 4.27176C41.3562 4.24629 41.385 4.22596 41.417 4.21207C41.449 4.19817 41.4836 4.191 41.5185 4.191C41.5535 4.191 41.588 4.19817 41.62 4.21207C41.6521 4.22596 41.6809 4.24629 41.7046 4.27176C41.7686 4.34928 41.82 4.4363 41.8569 4.52965Z" fill="#383838"/>
</svg>
