<svg width="120" height="120" viewBox="0 0 120 120" fill="none" xmlns="http://www.w3.org/2000/svg">
<path d="M89.499 72.7177C91.9554 72.4089 94.4331 72.3088 96.9061 72.4184C102.958 72.5245 108.735 74.9849 113.036 79.2871C117.336 83.5893 119.828 89.4015 119.991 95.5132C120.155 101.625 117.978 107.565 113.914 112.096C109.85 116.626 104.213 119.399 98.1759 119.835C94.7688 120.184 91.3284 119.978 87.9859 119.226C84.9049 118.491 82.0077 117.12 79.4765 115.2C76.9452 113.279 74.8347 110.851 73.2774 108.066C73.0548 107.566 72.681 107.149 72.2095 106.877C71.7381 106.604 71.1933 106.489 70.6532 106.549C53.2465 106.805 35.8398 106.997 18.4331 107.222C14.9412 107.222 14.9412 107.297 14.9518 103.737C14.9518 101.813 14.8883 99.8893 14.9518 97.9759C14.9518 96.907 14.5497 96.597 13.555 96.6398C10.5393 96.7467 7.51292 96.8001 4.49717 96.8856C3.96809 96.8856 3.43902 96.9605 2.92053 96.8856C1.65074 96.7894 1.17456 96.3084 1.05816 95.0471C1.05816 94.6516 1.05816 94.2561 1.05816 93.85C0.698384 63.6142 0.345665 33.3712 0 3.1212C0 2.78984 0 2.44779 0 2.11643C0.0846526 0.780297 0.44445 0.416874 1.80947 0.309984C2.1375 0.309984 2.46553 0.309984 2.80414 0.309984L72.7695 0H73.1611C75.4361 0 75.4361 -9.17449e-06 75.2245 2.36227C75.0658 4.22217 75.2245 6.07138 75.2245 7.93128C75.2245 9.00019 75.7536 9.23534 76.6847 9.24603C80.3036 9.24603 83.9119 9.33155 87.5203 9.44913C89.7953 9.52395 89.8058 9.57739 89.7847 11.9824C89.6436 27.7025 89.499 43.4225 89.3509 59.1426C89.3509 62.9906 89.2662 66.8387 89.2451 70.6868C89.0889 71.3728 89.1789 72.0925 89.499 72.7177V72.7177ZM71.6373 104.881C71.4892 104.379 71.3939 104.005 71.2669 103.63C70.2944 100.665 69.9111 97.5341 70.1387 94.4183C70.3664 91.3026 71.2006 88.2628 72.5936 85.4734C73.9866 82.684 75.9109 80.1997 78.2563 78.163C80.6016 76.1264 83.3219 74.5774 86.2611 73.6049C87.9859 73.0277 87.7954 73.2842 87.8165 71.1892C87.9858 52.0985 88.1516 33.0043 88.3139 13.9065C88.3139 10.6997 88.8958 10.7532 85.3087 10.6997C72.833 10.6035 60.3573 10.4753 47.8816 10.8173C43.4268 10.9456 38.9508 10.9028 34.5065 11.3304C33.2223 11.4253 31.9847 11.8567 30.9159 12.5821C29.847 13.3075 28.9839 14.3019 28.4115 15.4671C27.6617 16.8753 27.2316 18.4344 27.1524 20.0313C27.0466 21.7843 26.856 21.966 25.1313 21.7415C23.7051 21.5064 22.2507 21.5064 20.8245 21.7415C17.3644 22.4256 15.8406 24.2428 15.8724 27.7702L16.3803 102.957C16.3803 103.609 16.4861 104.272 16.5284 104.935C16.5135 105.072 16.5322 105.212 16.5826 105.341C16.6331 105.47 16.7139 105.585 16.818 105.675C16.9222 105.766 17.0466 105.829 17.1805 105.861C17.3144 105.892 17.4538 105.889 17.5866 105.854H18.7717L69.7855 105.159C70.416 105.222 71.0523 105.127 71.6373 104.881ZM73.6055 1.75301C72.8398 1.46138 72.0136 1.36948 71.2034 1.48578L4.21145 1.6568C1.03697 1.6568 1.36503 1.272 1.39678 4.53217C1.70011 33.7489 2.01051 62.9942 2.32796 92.268C2.32796 95.6671 2.32796 95.6671 5.76697 95.4747C7.23781 95.3892 7.32245 95.3678 7.33303 93.85C7.33303 91.5946 7.33306 89.3392 7.23783 87.0945C7.08969 79.5266 6.67696 71.9801 6.72987 64.423C6.72987 63.7068 6.37011 62.5203 7.47059 62.5203C8.57108 62.5203 8.11605 63.6427 8.11605 64.3054C8.11605 70.2058 8.29599 76.0634 8.49704 82.0065C8.6346 85.9828 8.61342 89.9591 8.67691 93.9355C8.67691 94.3844 8.49699 95.0044 8.97316 95.2182C9.59191 95.4647 10.2803 95.4647 10.899 95.2182C11.5974 95.0151 11.3646 94.3523 11.3435 93.8606C11.2694 91.6159 11.1212 89.3606 11.0895 87.1052C10.9484 78.4898 10.8285 69.8708 10.7297 61.2483C10.7297 58.1912 10.6133 55.1449 10.8355 52.0985C10.8355 51.4358 10.6027 50.2707 11.4916 50.2707C12.6556 50.2707 12.1582 51.4999 12.1476 52.1733C12.0207 65.2353 12.4334 78.2974 12.5815 91.3594C12.5815 92.2894 12.7508 93.2086 12.8355 94.1279C12.8355 94.8227 13.1423 95.1968 13.8936 95.1968C14.6449 95.1968 14.9518 94.7585 14.8777 94.0531C14.8777 93.5186 14.8777 92.9841 14.8777 92.4604C14.7437 71.0395 14.6061 49.6186 14.465 28.1977C14.465 27.1288 14.2111 25.9637 14.2428 24.8414C14.2877 21.7658 15.2915 18.7829 17.1115 16.3169C18.9315 13.8509 21.4749 12.0275 24.3799 11.1059C27.1318 10.1808 30.0196 9.73615 32.9193 9.79118C36.6017 9.86601 40.2629 9.5774 43.9347 9.53464C53.3312 9.40637 62.717 9.06432 72.1135 9.21397C72.3145 9.21397 72.505 9.21397 72.7061 9.21397C73.3833 9.21397 73.8383 9.08569 73.7642 8.24126C73.6901 7.39682 73.4573 6.99064 72.6002 7.04409C72.0711 7.04409 71.5421 7.04409 71.0236 7.04409L47.5748 7.41821H46.1992C45.723 7.41821 45.141 7.4182 45.0881 6.87306C45.014 6.1462 45.6913 6.10345 46.1992 6.02863C46.7188 5.96465 47.2418 5.93253 47.7653 5.93243L55.257 5.8576C60.9711 5.7614 66.6851 5.6545 72.3991 5.56899C73.1081 5.56899 73.6901 5.56899 73.6478 4.50009C73.6054 3.43118 73.0235 3.73049 72.4415 3.73049C68.8332 3.73049 65.2143 3.73048 61.6165 4.07253C60.8864 4.13666 59.659 4.55354 59.5955 3.57014C59.5108 2.36228 60.8335 2.74709 61.5954 2.70433C64.8757 2.52262 68.1454 2.24471 71.4363 2.27678C71.8137 2.35577 72.2038 2.34978 72.5787 2.25926C72.9536 2.16873 73.3042 1.99589 73.6055 1.75301V1.75301ZM118.651 96.2871C118.67 91.8627 117.388 87.5324 114.968 83.845C112.547 80.1576 109.097 77.2793 105.055 75.5749C101.014 73.8705 96.5617 73.4169 92.2643 74.2715C87.9669 75.126 84.0175 77.2503 80.9167 80.3751C77.816 83.4998 75.7035 87.4843 74.8472 91.8233C73.9909 96.1623 74.4294 100.66 76.1069 104.747C77.7844 108.834 80.6256 112.326 84.27 114.78C87.9145 117.234 92.1982 118.539 96.5781 118.531C99.4755 118.542 102.346 117.975 105.026 116.862C107.706 115.749 110.141 114.111 112.192 112.044C114.244 109.977 115.87 107.521 116.979 104.817C118.087 102.113 118.655 99.2139 118.651 96.2871V96.2871ZM16.1687 22.4791C17.2531 21.593 18.5046 20.9389 19.847 20.5567C21.1895 20.1745 22.595 20.0721 23.9779 20.2558C25.3958 20.3733 25.7027 20.694 25.9461 18.7059C26.2158 16.3182 27.2877 14.096 28.983 12.41C29.2052 12.1855 29.512 12.0145 29.4697 11.619C23.0678 11.5228 16.6554 16.6001 16.1687 22.4791Z" fill="#383838"/>
<path d="M52.3462 33.5637H32.2412C29.0667 33.5637 28.7387 33.2109 29.0667 30.0149C29.2043 28.465 29.7228 27.9412 31.2994 27.8771C32.4211 27.8771 33.5321 27.8771 34.6432 27.8771C46.2829 27.8771 57.8698 27.9519 69.4672 27.7061C70.9169 27.7061 72.3559 27.7809 73.795 27.7916C73.9756 27.7688 74.1589 27.787 74.3316 27.8446C74.5044 27.9022 74.6624 27.9979 74.794 28.1248C74.9257 28.2516 75.0278 28.4065 75.0929 28.5781C75.1581 28.7497 75.1845 28.9338 75.1706 29.117C75.1654 29.181 75.1654 29.2454 75.1706 29.3094C75.6468 33.072 75.3505 33.414 71.6258 33.4247H52.3462V33.5637Z" fill="#383838"/>
<path d="M52.5264 45.3322C45.3204 45.3322 38.1037 45.3322 30.8977 45.3322C30.1675 45.3322 28.7814 45.8559 28.866 44.5839C28.866 43.6753 30.1569 44.0281 30.8765 44.0174C44.4421 43.8179 58.0112 43.7537 71.5838 43.825C72.8325 43.825 74.0705 43.9319 75.3191 44.0281C75.7106 44.0281 76.1445 44.2098 76.1339 44.7122C76.1233 45.2146 75.626 45.3749 75.1498 45.3642C74.6737 45.3535 73.9646 45.3642 73.3827 45.3001C66.4306 45.0115 59.4785 45.1398 52.5264 45.3322Z" fill="#383838"/>
<path d="M51.4586 50.9761C59.1302 50.7196 65.8813 50.4096 72.6217 50.5486C73.2129 50.5537 73.8031 50.5965 74.3888 50.6769C74.5178 50.7003 74.6335 50.7712 74.7136 50.8758C74.7938 50.9805 74.8327 51.1114 74.8227 51.2434C74.8281 51.3771 74.7864 51.5084 74.7051 51.6141C74.6237 51.7198 74.5079 51.7929 74.3783 51.8206C73.9341 51.9237 73.4796 51.9739 73.0238 51.9702C66.3892 51.7351 59.7652 52.0771 53.1411 52.2588C46.0514 52.4512 38.9617 52.4512 31.8721 52.4192C31.3487 52.4286 30.8253 52.4 30.306 52.3336C29.9145 52.2802 29.4912 52.1412 29.4912 51.6389C29.4912 51.1365 29.8827 51.0082 30.2848 50.9868C30.6869 50.9655 31.343 50.9868 31.8615 50.9868L51.4586 50.9761Z" fill="#383838"/>
<path d="M40.1359 59.26H31.6706C31.2156 59.26 30.75 59.26 30.295 59.1959C30.1629 59.18 30.04 59.1198 29.9459 59.0247C29.8519 58.9297 29.7922 58.8055 29.7765 58.6721C29.7611 58.5897 29.7637 58.5048 29.7841 58.4235C29.8045 58.3421 29.8421 58.2663 29.8945 58.2011C29.9469 58.136 30.0127 58.0832 30.0874 58.0464C30.162 58.0096 30.2437 57.9897 30.3268 57.988C30.7833 57.9326 31.2426 57.904 31.7024 57.9025L48.4424 57.7742C48.9641 57.7721 49.4847 57.8186 49.9979 57.9132C50.13 57.9368 50.248 58.0113 50.327 58.1209C50.4059 58.2305 50.4397 58.3668 50.4212 58.5011C50.4265 58.6348 50.3849 58.7662 50.3035 58.8718C50.2222 58.9775 50.1064 59.0506 49.9767 59.0783C49.4626 59.164 48.9423 59.2069 48.4212 59.2066H40.1464L40.1359 59.26Z" fill="#383838"/>
<path d="M8.18966 58.2867C8.09442 59.0349 8.46482 59.9863 7.56538 60.0504C6.66595 60.1145 6.81408 59.1525 6.76117 58.5433C6.72414 57.8811 6.72414 57.2173 6.76117 56.5551C6.77037 56.4205 6.82132 56.2923 6.90681 56.1887C6.9923 56.085 7.10798 56.0113 7.23735 55.9779C7.31745 55.9558 7.40124 55.951 7.48329 55.9637C7.56535 55.9765 7.64383 56.0065 7.71367 56.0519C7.7835 56.0972 7.84315 56.1569 7.88869 56.227C7.93424 56.2971 7.96463 56.3761 7.97801 56.4589C8.07325 57.1109 8.12617 57.7736 8.18966 58.2867Z" fill="#383838"/>
<path d="M54.9818 4.03988C54.3575 3.81541 53.1406 4.44607 53.1406 3.30234C53.1406 2.37239 54.294 2.76789 54.95 2.70375C55.5379 2.65051 56.1293 2.65051 56.7171 2.70375C56.7991 2.7019 56.8806 2.71757 56.9562 2.74973C57.0317 2.78189 57.0997 2.82982 57.1557 2.89037C57.2116 2.95093 57.2542 3.02274 57.2808 3.1011C57.3073 3.17947 57.3172 3.26262 57.3098 3.3451C57.2976 3.47883 57.2387 3.60382 57.1437 3.69779C57.0488 3.79177 56.9238 3.8486 56.7912 3.85817C56.2092 4.03989 55.6167 4.03988 54.9818 4.03988Z" fill="#383838"/>
<path d="M39.9878 7.16144C39.7546 7.15099 39.5236 7.1115 39.3 7.04386C39.2146 7.00638 39.1382 6.95068 39.0761 6.88056C39.014 6.81045 38.9676 6.72759 38.9402 6.63767C38.8997 6.51006 38.9103 6.37154 38.9697 6.25169C39.029 6.13184 39.1323 6.0402 39.2577 5.99634C40.1123 5.68925 41.0183 5.55487 41.9242 5.60085C42.0043 5.59505 42.0848 5.60546 42.1608 5.63148C42.2369 5.65749 42.307 5.69859 42.3671 5.75235C42.4272 5.80611 42.4761 5.87147 42.5109 5.94457C42.5457 6.01767 42.5657 6.09704 42.5697 6.17805C42.5724 6.30908 42.5339 6.4376 42.4598 6.54514C42.3856 6.65269 42.2796 6.73373 42.1571 6.77663C41.4579 7.01692 40.7262 7.14672 39.9878 7.16144V7.16144Z" fill="#383838"/>
<path d="M11.7563 46.3043C11.7367 46.5409 11.705 46.7764 11.6611 47.0097C11.6308 47.1373 11.5542 47.2488 11.4464 47.322C11.3386 47.3952 11.2076 47.4249 11.0792 47.4053C10.988 47.3938 10.8999 47.3644 10.82 47.3185C10.7401 47.2726 10.67 47.2113 10.6136 47.138C10.4675 46.9263 10.3798 46.6791 10.3596 46.4218C10.3596 45.7271 9.98924 44.9895 10.5924 44.3802C10.6649 44.3235 10.7503 44.2859 10.8409 44.2709C10.9314 44.256 11.0243 44.2642 11.1109 44.2947C11.841 44.7544 11.6294 45.556 11.7563 46.3043Z" fill="#383838"/>
<path d="M105.159 92.5347C105.533 93.0896 106.069 93.512 106.693 93.7425C107.307 93.9136 107.508 93.176 107.963 92.9515C108.418 92.7271 108.587 92.7378 108.841 93.0584C108.928 93.1594 108.975 93.2884 108.975 93.4219C108.975 93.5553 108.928 93.6843 108.841 93.7853C108.657 93.9199 108.506 94.0951 108.398 94.2975C108.291 94.4999 108.23 94.7243 108.221 94.9538C108.212 95.1833 108.254 95.4119 108.345 95.6224C108.436 95.8329 108.573 96.0198 108.746 96.169C109.296 96.821 108.852 97.4089 108.461 97.954C106.449 100.882 103.432 102.95 99.9953 103.758C97.2818 104.445 94.4352 104.382 91.7542 103.576C89.0731 102.769 86.6565 101.248 84.7578 99.1726C84.017 98.4243 83.4563 97.6441 84.2181 96.5751C84.5779 96.0728 84.3345 95.72 83.9536 95.3887C83.754 95.2207 83.5665 95.0385 83.3928 94.8435C83.1176 94.5228 82.9166 94.1487 83.2129 93.7746C83.5092 93.4005 83.9007 93.5608 84.271 93.7746C84.3767 93.8516 84.4758 93.9374 84.5673 94.0311C85.2974 94.897 85.9323 94.7473 86.6836 94.0311C87.6148 93.0584 87.6466 93.1119 86.8635 91.9895C86.5038 91.4765 85.8054 90.8565 86.4085 90.29C87.0117 89.7235 87.4667 90.6534 87.8793 91.0596C88.292 91.4658 88.5142 92.1285 89.0857 91.904C89.8728 91.5927 90.622 91.191 91.3183 90.7068C91.5723 90.5572 91.4453 90.2365 91.3183 89.9907C91.1914 89.7448 90.9692 89.2745 90.8316 88.9218C90.6941 88.569 90.7152 88.1201 91.1808 87.9384C91.6464 87.7567 91.8051 88.0346 91.9956 88.3232C92.1861 88.6118 92.3025 88.9111 92.4718 89.189C92.8244 89.5889 93.2996 89.8578 93.8213 89.9527C94.3431 90.0477 94.8813 89.9632 95.3499 89.7128C95.678 89.4776 95.6357 89.1569 95.5722 88.8256C95.4663 88.3722 95.4663 87.9001 95.5722 87.4467C95.6054 87.3199 95.6756 87.2062 95.7738 87.1204C95.872 87.0346 95.9935 86.9807 96.1224 86.9657C96.255 86.9539 96.3877 86.9876 96.499 87.0613C96.6104 87.135 96.6938 87.2444 96.7361 87.3719C96.8268 87.6171 96.8907 87.8715 96.9266 88.1308C97.2652 89.7555 97.2758 89.6593 98.8524 89.9907C99.8471 90.1938 100.323 89.9265 100.556 88.9859C100.643 88.7341 100.772 88.4991 100.937 88.2911C101.004 88.1769 101.108 88.0886 101.23 88.0403C101.353 87.9919 101.488 87.9861 101.614 88.0239C101.995 88.1415 102.059 88.4621 102.037 88.8149C102.016 88.9455 101.984 89.0741 101.942 89.1997C101.593 90.8244 101.635 90.8244 103.064 91.4765C103.741 91.7758 104.122 91.6795 104.535 91.0703C104.64 90.9026 104.76 90.7451 104.895 90.5999C105.254 90.2258 105.614 89.6379 106.175 90.1189C106.736 90.6 106.228 91.0703 105.953 91.4978C105.678 91.9254 105.434 92.1499 105.159 92.5347ZM100.334 96.3507C100.27 95.9231 100.207 95.2818 100.101 94.7473C100.035 94.015 99.7429 93.322 99.2665 92.766C98.7901 92.21 98.1531 91.8188 97.4451 91.6475C96.662 91.5281 95.8613 91.6438 95.1427 91.9802C94.424 92.3165 93.8191 92.8587 93.403 93.5394C92.8081 94.5715 92.4947 95.7444 92.4947 96.9386C92.4947 98.1328 92.8081 99.3057 93.403 100.338C93.7087 100.851 94.1408 101.276 94.6572 101.571C95.1736 101.866 95.7567 102.021 96.3499 102.021C96.9431 102.021 97.5263 101.866 98.0427 101.571C98.559 101.276 98.9911 100.851 99.2969 100.338C99.9853 99.1241 100.347 97.7494 100.344 96.3507H100.334ZM99.8365 102.144C102.754 101.515 105.352 99.85 107.159 97.4516C107.25 97.3342 107.316 97.1989 107.352 97.0543C107.388 96.9097 107.394 96.7591 107.369 96.6122C107.344 96.4652 107.289 96.3251 107.207 96.2009C107.125 96.0767 107.019 95.9711 106.894 95.891C105.937 94.9686 104.871 94.1681 103.72 93.5074C102.819 92.8233 101.778 92.3521 100.672 92.1285C102.154 95.7521 102.059 99.0229 99.8683 102.144H99.8365ZM92.7892 102.144C90.4718 98.8198 90.6729 95.4635 92.641 91.7758C89.9496 92.8807 87.5769 94.6526 85.7419 96.9279C85.653 97.0031 85.5814 97.0971 85.5323 97.2033C85.4832 97.3095 85.4578 97.4253 85.4578 97.5425C85.4578 97.6597 85.4832 97.7755 85.5323 97.8817C85.5814 97.9879 85.653 98.0819 85.7419 98.1571C87.5874 100.251 90.0706 101.665 92.7998 102.176L92.7892 102.144Z" fill="#383838"/>
<path d="M114.471 89.4345C114.471 89.8727 114.386 90.1079 114.132 90.2362C114.06 90.2777 113.98 90.3035 113.898 90.312C113.815 90.3204 113.732 90.3112 113.653 90.285C113.574 90.2588 113.502 90.2162 113.44 90.1599C113.379 90.1036 113.33 90.0349 113.296 89.9583C113.156 89.6592 113.032 89.3523 112.926 89.039C110.545 82.9355 105.921 79.6112 99.7096 78.3499C95.4845 77.4409 91.0752 78.2062 87.3927 80.4877L87.2234 80.5946C86.726 80.8405 86.1652 81.4284 85.7102 80.6588C85.2552 79.8891 86.0277 79.7395 86.4509 79.4616C88.4812 78.09 90.7932 77.2019 93.2126 76.8642C96.2419 76.3326 99.3524 76.5278 102.293 77.4338C105.234 78.3399 107.923 79.9316 110.143 82.0804C111.925 83.767 113.295 85.8492 114.143 88.1625C114.27 88.6862 114.376 89.1352 114.471 89.4345Z" fill="#383838"/>
<path d="M93.8689 114.073C90.8842 113.624 88.0519 112.451 85.6152 110.653C85.2872 110.407 85.0121 110.043 85.3189 109.648C85.6258 109.252 86.0279 109.381 86.3771 109.584C87.2871 110.107 88.176 110.653 89.1177 111.155C90.6399 111.933 92.2825 112.443 93.9746 112.662C94.4297 112.662 94.9587 112.79 94.9164 113.41C94.8741 114.03 94.3662 114.052 93.8689 114.073Z" fill="#383838"/>
<path d="M114.958 94.0744C114.747 94.7158 115.36 96.0519 114.143 96.0199C113.085 96.0199 113.583 94.7479 113.53 94.0317C113.477 93.3155 113.096 92.3108 114.059 92.2252C115.223 92.1184 114.884 93.2621 114.958 94.0744Z" fill="#383838"/>
<path d="M82.5465 106.43C82.7266 106.482 82.8979 106.561 83.0544 106.665C83.5623 107.125 84.3559 107.392 84.2713 108.29C84.263 108.355 84.2409 108.418 84.2066 108.474C84.1723 108.53 84.1265 108.578 84.0723 108.614C84.0182 108.65 83.9569 108.675 83.8927 108.685C83.8284 108.696 83.7626 108.692 83.6998 108.675C83.3184 108.59 82.9623 108.415 82.6607 108.164C82.3591 107.913 82.1206 107.594 81.9645 107.232C81.774 106.836 82.028 106.484 82.5465 106.43Z" fill="#383838"/>
<path d="M98.5569 96.7567C98.5569 98.6701 97.594 99.9634 96.2819 99.8459C94.9698 99.7283 94.1656 98.2211 94.3349 96.4574C94.5042 94.6937 95.5306 93.5179 96.7792 93.6355C97.8586 93.7317 98.5569 94.9717 98.5569 96.7567Z" fill="#383838"/>
</svg>
