<svg width="120" height="120" viewBox="0 0 120 120" fill="none" xmlns="http://www.w3.org/2000/svg">
<path d="M89.4946 72.7302C91.951 72.4095 94.4305 72.3058 96.9048 72.4202C102.958 72.5285 108.737 74.9906 113.038 79.2938C117.338 83.597 119.829 89.4095 119.992 95.5208C120.154 101.632 117.975 107.571 113.909 112.101C109.843 116.631 104.204 119.402 98.1646 119.838C94.6903 120.191 91.1823 119.967 87.7796 119.175C84.7361 118.423 81.8778 117.048 79.3815 115.136C76.8851 113.224 74.8037 110.815 73.2661 108.058C73.0417 107.56 72.6671 107.146 72.1956 106.875C71.724 106.604 71.1799 106.491 70.6408 106.551C53.1632 106.808 35.7068 107 18.1974 107.225C14.9581 107.225 14.9158 107.225 14.9475 103.932C14.9475 101.944 14.8734 99.9559 14.9475 97.9677C14.9475 96.8988 14.5452 96.5888 13.529 96.6316C10.5119 96.7598 7.48432 96.8026 4.46729 96.8881C3.93799 96.8881 3.40869 96.9736 2.88998 96.8881C2.64208 96.9097 2.39245 96.8775 2.15785 96.7938C1.92326 96.7101 1.70911 96.5767 1.52969 96.4027C1.35028 96.2286 1.20973 96.0178 1.11753 95.7844C1.02533 95.5511 0.983617 95.3005 0.995093 95.0495C0.995093 94.4509 0.995093 93.8523 0.995093 93.2537C0.670453 63.2025 0.338754 33.1547 0 3.1106C0 2.77923 0 2.44785 0 2.11648C0.0846885 0.769627 0.433987 0.416893 1.81018 0.31C2.13834 0.31 2.4665 0.31 2.79467 0.31L72.7897 0H72.9909C75.5209 0 75.4892 1.12136e-05 75.1928 2.53338C75.0569 4.38505 75.0853 6.24527 75.2775 8.09183C75.3304 8.9256 75.6797 9.25697 76.4949 9.24628C78.3368 9.24628 80.1788 9.24628 82.0208 9.24628C84.138 9.24628 86.3505 9.42799 88.5207 9.43868C89.484 9.43868 89.8015 9.89832 89.7909 10.7748C89.7909 11.2345 89.7909 11.7048 89.7909 12.1645C89.6145 31.5335 89.4452 50.9026 89.2828 70.2717C89.1126 71.0944 89.1862 71.9495 89.4946 72.7302ZM71.4983 105.108C71.4924 104.342 71.3302 103.585 71.0219 102.885C69.3669 97.2251 69.8598 91.1458 72.4043 85.8332C74.9488 80.5206 79.3624 76.3559 84.7838 74.1519C85.4511 73.875 86.1332 73.6359 86.8269 73.4357C87.1205 73.3907 87.3849 73.2311 87.5631 72.9911C87.7413 72.7512 87.8191 72.4502 87.7796 72.153C87.7585 71.7542 87.7585 71.3546 87.7796 70.9558C87.9702 51.9288 88.1642 32.9018 88.3619 13.8747C88.3619 10.7428 89.0288 10.7535 85.3131 10.7321C73.0226 10.6359 60.7428 10.5076 48.4524 10.839C43.858 10.9566 39.2637 10.9459 34.6905 11.3414C33.2049 11.4177 31.7744 11.9338 30.5771 12.8252C29.3799 13.7167 28.469 14.9441 27.9578 16.3547C27.4737 17.5181 27.2012 18.7601 27.1532 20.0211C27.0791 21.7421 26.825 21.9131 25.0995 21.7528C24.1879 21.6161 23.2686 21.5376 22.3472 21.5176C17.8163 21.6566 15.8049 23.7838 15.8261 28.316C15.9531 47.8063 16.0837 67.3 16.2178 86.7974C16.2178 92.3024 16.2178 97.7967 16.2919 103.302C16.2919 105.782 16.419 105.835 18.8432 105.814L64.5644 105.236C66.8933 105.247 69.1799 105.162 71.53 105.076L71.4983 105.108ZM1.85256 48.3158H2.11721C2.11721 56.9955 2.11721 65.6859 2.11721 74.3764C2.11721 80.79 2.27599 87.1074 2.37127 93.4675C2.37127 95.3916 2.54062 95.5092 4.39318 95.5092C5.11303 95.5092 5.84347 95.5092 6.51039 95.5092C8.05596 95.4343 8.05596 95.4343 8.03479 93.9485C7.97127 88.4435 7.9501 82.9385 7.83365 77.4335C7.68544 69.7479 7.72783 62.0516 7.14559 54.3766C7.06091 53.3825 6.95504 52.3884 6.88094 51.405C6.88094 50.924 6.88093 50.3361 7.39965 50.2612C8.1195 50.1437 8.19361 50.785 8.26771 51.3302C8.26771 51.5226 8.26771 51.7257 8.26771 51.9288C8.66998 56.0869 8.88167 60.2558 8.95577 64.4353C9.12515 73.7136 9.22042 83.0026 9.34745 92.281C9.34745 93.0827 9.41101 93.8737 9.46394 94.6647C9.46394 95.274 9.90853 95.4236 10.4272 95.3809C10.946 95.3381 11.0624 94.9961 11.0519 94.5471C11.0519 94.2799 11.0519 94.0234 11.0519 93.7561C11.0307 87.763 11.0201 81.7769 11.0201 75.798C11.0074 75.2721 11.0428 74.7461 11.1259 74.2267C11.1537 74.0948 11.2282 73.9775 11.3353 73.8969C11.4424 73.8162 11.575 73.7777 11.7082 73.7884C11.8413 73.7886 11.9702 73.8357 12.0726 73.9216C12.175 74.0074 12.2446 74.1267 12.2692 74.2588C12.3501 74.8467 12.389 75.4397 12.3856 76.0332C12.4633 82.0121 12.5339 87.9803 12.5974 93.9378C12.5974 94.6219 12.5127 95.2847 13.5607 95.2419C14.6088 95.1992 14.8522 95.0816 14.9051 93.8523C14.9051 93.5958 14.9051 93.3286 14.9051 93.0613C14.8063 75.9584 14.704 58.8554 14.5982 41.7525C14.5452 36.4079 14.5135 31.0632 14.3441 25.6437C14.1536 19.337 17.0753 14.7513 22.6435 11.8865C24.2563 11.1375 25.962 10.6126 27.7143 10.3259C30.8901 9.68454 34.0659 9.90902 37.337 9.81281C48.7594 9.44938 60.1923 9.17145 71.6253 9.25696C72.1546 9.25696 72.6839 9.25696 73.2026 9.25696C73.4461 9.25696 73.7425 9.17144 73.7743 8.85076C73.806 8.53008 73.4567 8.32699 73.1391 8.28423C72.7455 8.23977 72.3494 8.22192 71.9535 8.23078C65.7183 8.23078 59.4725 8.23078 53.2373 8.53008C52.528 8.53008 51.3741 9.03249 51.3635 7.85666C51.3635 6.89462 52.4962 7.24737 53.142 7.20461C59.2502 6.86256 65.3583 6.77704 71.4665 6.8198C71.9958 6.8198 72.5251 6.8198 73.0438 6.8198C73.3614 6.8198 73.7214 6.8198 73.7743 6.34946C73.8272 5.87913 73.679 5.53707 73.2026 5.46225C72.6205 5.37528 72.0336 5.3253 71.4453 5.3126C69.2117 5.3126 66.978 5.3126 64.7443 5.3126C64.2786 5.3126 63.8234 5.3126 63.3682 5.3126C63.2011 5.31587 63.039 5.25465 62.9151 5.14143C62.7912 5.02821 62.7147 4.87152 62.7012 4.70332C62.7026 4.62049 62.7201 4.53875 62.7528 4.46277C62.7855 4.38678 62.8327 4.31804 62.8917 4.26047C62.9506 4.20289 63.0202 4.15762 63.0965 4.12722C63.1729 4.09683 63.2544 4.08192 63.3364 4.08333C63.7916 4.08333 64.2574 4.08333 64.7126 4.08333H72.5992C73.0332 4.08333 73.5308 4.2116 73.7213 3.58093C74.0601 2.43717 73.552 1.66754 72.3769 1.62478C71.9852 1.62478 71.583 1.62478 71.1913 1.62478L4.17091 1.79582C3.6522 1.79582 3.11225 1.79582 2.59353 1.79582C1.65137 1.73168 1.27029 2.16994 1.35498 3.09992C1.35498 3.35646 1.35498 3.62368 1.35498 3.89092C1.51025 18.6564 1.67613 33.4647 1.85256 48.3158ZM74.4729 96.1505C74.4626 100.58 75.756 104.913 78.189 108.599C80.622 112.285 84.0848 115.158 88.1378 116.854C92.1909 118.549 96.6514 118.989 100.953 118.12C105.255 117.251 109.203 115.11 112.298 111.97C115.393 108.83 117.493 104.833 118.334 100.485C119.174 96.1374 118.716 91.6355 117.018 87.5511C115.32 83.4667 112.458 79.984 108.796 77.545C105.134 75.106 100.836 73.8208 96.4496 73.8526C93.5567 73.8596 90.6934 74.4419 88.0233 75.5663C85.3532 76.6907 82.9286 78.3351 80.8878 80.4056C78.8471 82.4762 77.2303 84.9323 76.1296 87.6339C75.0289 90.3354 74.466 93.2293 74.4729 96.1505V96.1505ZM16.0908 22.2552C16.1437 22.2552 16.2072 22.3193 16.2496 22.2552C16.4287 22.182 16.5991 22.0887 16.7577 21.9773C18.4654 20.7133 20.5494 20.076 22.6647 20.1708C23.3188 20.1655 23.9726 20.1976 24.6231 20.267C25.47 20.3846 25.7453 20.0211 25.8406 19.198C26.1204 16.4039 27.3867 13.8048 29.4081 11.8758C29.4081 11.8758 29.4081 11.6514 29.4081 11.5445C22.6647 11.801 17.0012 16.3547 16.0908 22.2552V22.2552Z" fill="#383838"/>
<path d="M52.168 33.5649C45.5412 33.5649 38.9037 33.5649 32.2768 33.5649C28.4659 33.5649 28.8999 32.7846 29.0481 29.8237C29.1116 28.5089 29.7574 27.9637 31.0806 27.8675C31.9275 27.8141 32.7849 27.8675 33.6318 27.8675C45.774 27.8675 57.9163 27.9423 70.0585 27.6858C71.3712 27.6858 72.6838 27.7606 73.9965 27.8141C74.4835 27.8141 74.9387 27.9744 75.0551 28.5302C75.3502 29.7548 75.4042 31.026 75.2139 32.2715C75.1981 32.4375 75.1498 32.5986 75.0718 32.7456C74.9939 32.8926 74.8879 33.0226 74.7599 33.1279C74.6319 33.2333 74.4845 33.312 74.3262 33.3595C74.1679 33.407 74.0019 33.4223 73.8378 33.4046C73.372 33.4046 72.9168 33.4046 72.451 33.4046H52.168V33.5649Z" fill="#383838"/>
<path d="M52.5385 45.3336C45.3188 45.3336 38.0991 45.3336 30.89 45.3336C30.149 45.3336 28.8258 45.836 28.8469 44.5854C28.8469 43.6554 30.1278 44.0188 30.8476 44.0081C44.3555 43.8086 57.8704 43.7445 71.3923 43.8157C72.705 43.8157 74.007 43.9226 75.3197 44.0188C75.7114 44.0188 76.1455 44.1898 76.1455 44.6922C76.1455 45.1946 75.6373 45.355 75.1715 45.355C74.7057 45.355 73.9859 45.355 73.4036 45.2909C66.4486 45.0129 59.4935 45.1412 52.5385 45.3336Z" fill="#383838"/>
<path d="M51.3741 50.9781C58.9749 50.7429 65.7923 50.4115 72.6203 50.5505C73.1496 50.5505 73.6789 50.5505 74.1977 50.5505C74.3625 50.5428 74.5243 50.5962 74.653 50.7005C74.7816 50.8048 74.8682 50.9529 74.8964 51.117C74.8964 51.6087 74.5576 51.8118 74.1553 51.876C73.7645 51.9135 73.3711 51.9135 72.9803 51.876C66.3534 51.6408 59.7265 51.9829 53.0996 52.1646C46.0176 52.3677 38.9249 52.357 31.8428 52.3249C31.2542 52.3175 30.667 52.2675 30.0855 52.1753C29.9188 52.1671 29.7615 52.0952 29.6455 51.9741C29.5294 51.8529 29.4634 51.6917 29.4609 51.5232C29.4637 51.4404 29.4826 51.3589 29.5165 51.2834C29.5504 51.208 29.5988 51.14 29.6588 51.0834C29.7188 51.0268 29.7892 50.9827 29.8661 50.9537C29.9429 50.9246 30.0247 50.9111 30.1067 50.9139C30.6255 50.9139 31.1653 50.9139 31.684 50.9139L51.3741 50.9781Z" fill="#383838"/>
<path d="M40.0786 59.2614C37.2627 59.2614 34.4468 59.2614 31.6097 59.2614C31.1531 59.2649 30.6968 59.2363 30.2441 59.1759C30.1127 59.1589 29.9912 59.0962 29.9005 58.9987C29.8097 58.9013 29.7553 58.775 29.7466 58.6414C29.6937 58.2352 29.9795 58.0428 30.3182 57.9894C30.7076 57.9343 31.1002 57.9058 31.4933 57.9039C37.1886 57.9039 42.8839 57.8077 48.5898 57.7863C49.2461 57.7863 50.347 57.4763 50.3682 58.4277C50.3682 59.5714 49.2037 59.1866 48.5157 59.1973C45.6998 59.1973 42.8839 59.1973 40.0468 59.1973L40.0786 59.2614Z" fill="#383838"/>
<path d="M47.1612 8.80824C46.4519 8.64791 45.3192 9.06479 45.3086 8.1562C45.3086 7.03382 46.4731 7.49345 47.1506 7.46138C47.8281 7.42931 48.9184 7.16208 48.929 8.0493C48.9502 9.23581 47.7434 8.56239 47.1612 8.80824Z" fill="#383838"/>
<path d="M59.1438 3.96582C59.446 3.99052 59.7464 4.03335 60.0436 4.09409C60.1073 4.10791 60.1677 4.13451 60.221 4.17233C60.2744 4.21014 60.3197 4.2584 60.3543 4.31423C60.3888 4.37006 60.4119 4.43232 60.4222 4.49733C60.4325 4.56235 60.4297 4.62877 60.414 4.69269C60.374 4.87435 60.2683 5.03442 60.1177 5.14164C59.5332 5.43471 58.8621 5.49942 58.2333 5.32335C57.9051 5.24853 57.6299 5.04544 57.6723 4.64994C57.6901 4.48822 57.7654 4.3385 57.8841 4.22845C58.0028 4.11841 58.1569 4.0555 58.318 4.05134C58.5721 3.99789 58.8262 3.99789 59.1438 3.96582Z" fill="#383838"/>
<path d="M12.4177 69.2986C12.4177 69.491 12.4177 69.6193 12.4177 69.7475C12.3436 70.1965 12.3224 70.7417 11.6872 70.6775C11.0521 70.6134 11.1685 70.1858 11.1261 69.7903C11.1103 69.659 11.1103 69.5261 11.1261 69.3948C11.2002 68.7855 10.925 67.8128 11.7825 67.8021C12.6399 67.7914 12.333 68.7321 12.4177 69.2986Z" fill="#383838"/>
<path d="M8.20467 45.7394C8.13057 46.2953 8.20463 47.0435 7.43184 47.0542C6.84961 47.0542 6.79667 46.4877 6.82843 45.9853C6.86019 45.4829 6.63791 44.6598 7.45304 44.5743C8.26816 44.4888 8.1094 45.2157 8.20467 45.7394Z" fill="#383838"/>
<path d="M97.3814 82.5213C103.976 82.4358 109.873 88.379 110.021 95.263C110.076 97.86 109.359 100.414 107.965 102.597C106.57 104.779 104.561 106.491 102.195 107.511C99.8294 108.532 97.2156 108.814 94.6896 108.323C92.1637 107.831 89.841 106.588 88.0205 104.752C86.1999 102.917 84.9647 100.574 84.4735 98.0242C83.9824 95.4744 84.2578 92.8346 85.2643 90.4441C86.2709 88.0537 87.9626 86.0218 90.1219 84.6099C92.2812 83.1981 94.8094 82.4707 97.3814 82.5213V82.5213ZM104.474 92.0134C104.423 91.7722 104.316 91.5464 104.164 91.3538C104.011 91.1611 103.816 91.0069 103.595 90.9032C103.373 90.7996 103.13 90.7493 102.886 90.7565C102.642 90.7637 102.403 90.828 102.187 90.9445C101.645 91.314 101.128 91.7211 100.642 92.1631C99.0433 93.6168 97.4661 95.1133 95.8676 96.5777C94.9572 97.4115 94.6078 97.4222 93.6762 96.6526C93.0623 96.1502 92.5012 95.5837 91.9189 95.0706C91.3367 94.5575 91.0086 94.3437 90.4369 95.0064C89.4948 96.0753 89.3042 96.6633 89.9605 97.3367C91.0191 98.4698 92.2154 99.5387 93.3481 100.65C93.4636 100.811 93.6141 100.943 93.7881 101.035C93.9621 101.128 94.1547 101.178 94.3513 101.183C94.5478 101.189 94.7428 101.148 94.9213 101.065C95.0998 100.982 95.257 100.858 95.3806 100.704C98.2177 97.9674 101.076 95.2523 104.072 92.6868C104.191 92.6198 104.291 92.5223 104.362 92.4042C104.432 92.286 104.471 92.1513 104.474 92.0134V92.0134Z" fill="#383838"/>
<path d="M112.646 96.0653C112.705 93.9412 112.345 91.8265 111.587 89.8441C111.481 89.6037 111.39 89.3574 111.312 89.1065C111.227 88.7644 111.238 88.3903 111.555 88.2193C111.873 88.0483 112.328 88.2193 112.508 88.6362C112.807 89.2225 113.055 89.8341 113.249 90.464C114.42 94.2249 114.375 98.2642 113.122 101.998C112.412 104.124 111.279 106.08 109.791 107.746C108.304 109.413 106.494 110.753 104.473 111.686C102.452 112.618 100.264 113.123 98.0426 113.168C95.8214 113.214 93.6145 112.799 91.5582 111.95C91.0688 111.758 90.5976 111.522 90.1503 111.244C89.748 111.009 89.3245 110.656 89.5892 110.175C89.8538 109.694 90.3726 109.865 90.7749 110.09C92.0387 110.796 93.4139 111.277 94.8399 111.511C104.367 113.115 112.254 106.605 112.614 96.9097C112.646 96.5997 112.646 96.3325 112.646 96.0653Z" fill="#383838"/>
<path d="M79.2051 95.7119C79.2786 93.241 79.7691 90.8009 80.6554 88.4966C80.7711 88.1944 80.9396 87.9156 81.1529 87.6736C81.2266 87.6138 81.3114 87.5697 81.4024 87.544C81.4934 87.5182 81.5886 87.5114 81.6822 87.5239C81.7479 87.529 81.8119 87.5478 81.87 87.5791C81.9281 87.6103 81.9792 87.6535 82.02 87.7057C82.0608 87.7579 82.0904 87.8181 82.107 87.8825C82.1236 87.9469 82.1267 88.0141 82.1162 88.0798C82.0699 88.4697 81.9812 88.8532 81.8516 89.2235C80.929 91.63 80.5073 94.2026 80.613 96.7809C80.6445 97.04 80.6445 97.3021 80.613 97.5612C80.5973 97.6934 80.5332 97.8149 80.4333 97.9019C80.3334 97.9889 80.205 98.0351 80.0731 98.0315C79.9417 98.0396 79.8117 97.9998 79.7069 97.9194C79.602 97.839 79.5291 97.7233 79.5015 97.5933C79.3216 96.8129 79.2474 96.0326 79.2051 95.7119Z" fill="#383838"/>
<path d="M85.2599 83.9215C84.8788 83.9215 84.6036 83.6756 84.6882 83.3015C84.7698 82.9829 84.9386 82.694 85.1752 82.4677C86.9846 80.6191 89.2565 79.3002 91.7491 78.6516C91.9353 78.5954 92.127 78.5596 92.3208 78.5447C92.4854 78.5216 92.6526 78.5615 92.7897 78.6564C92.9268 78.7513 93.0238 78.8945 93.0618 79.0578C93.0853 79.1891 93.0648 79.3245 93.0034 79.4427C92.9421 79.5608 92.8434 79.6548 92.723 79.7099C92.5549 79.8109 92.373 79.8866 92.1831 79.9344C89.8938 80.5698 87.8025 81.7838 86.1067 83.4618C85.895 83.7212 85.5909 83.8862 85.2599 83.9215V83.9215Z" fill="#383838"/>
<path d="M81.7556 102.511C81.7734 102.64 81.7489 102.772 81.6858 102.886C81.6228 102.999 81.5246 103.089 81.4063 103.142C81.2878 103.192 81.1567 103.204 81.0314 103.175C80.906 103.146 80.7928 103.078 80.7076 102.981C80.0936 102.447 79.5325 100.747 79.8395 100.33C79.9011 100.262 79.9763 100.207 80.0603 100.171C80.1442 100.134 80.2349 100.115 80.3265 100.117C80.824 100.17 81.7344 101.741 81.7556 102.511Z" fill="#383838"/>
<path d="M111.303 86.21C111.258 86.3623 111.19 86.5066 111.102 86.6376C111.006 86.7254 110.881 86.7741 110.752 86.7741C110.623 86.7741 110.498 86.7254 110.403 86.6376C110.234 86.5486 110.089 86.4204 109.979 86.2634C109.641 85.6328 108.677 85.2693 109.122 84.3073C109.183 84.2398 109.259 84.1873 109.343 84.1539C109.428 84.1206 109.519 84.1072 109.609 84.1149C110.033 84.3075 110.407 84.597 110.701 84.9607C110.995 85.3243 111.201 85.752 111.303 86.21V86.21Z" fill="#383838"/>
<path d="M96.2793 79.6672C95.6442 79.5924 94.9773 79.6672 94.9456 78.951C94.9138 78.2348 95.5066 78.299 96.0042 78.3417C96.5017 78.3845 97.338 78.2562 97.3062 79.122C97.2427 79.742 96.5863 79.571 96.2793 79.6672Z" fill="#383838"/>
</svg>
