<svg width="80" height="80" viewBox="0 0 80 80" fill="none" xmlns="http://www.w3.org/2000/svg">
<path d="M37.9761 14.0036C38.2448 14.1127 38.3811 13.9764 38.5194 13.8849C42.6261 11.1587 48.6705 11.6221 52.4365 15.5108C54.2131 17.3439 55.307 19.731 55.5356 22.2735C55.7642 24.816 55.1136 27.3599 53.6925 29.4805C53.0168 30.4892 53.0187 30.4872 53.856 31.3499C54.8667 32.3897 55.8831 33.4257 56.8762 34.4811C57.2337 34.8743 57.7145 35.1339 58.2393 35.2171C63.3609 36.1511 68.0022 38.8269 71.3766 42.7913C74.7511 46.7557 76.6512 51.7648 76.755 56.9698C76.8588 62.1748 75.16 67.2557 71.9463 71.3515C68.7326 75.4472 64.2017 78.306 59.1214 79.4434C46.3006 82.3643 33.5441 73.4595 31.8597 60.4459C31.6875 58.9694 31.6328 57.4816 31.6961 55.9964C31.7195 55.2487 31.6961 55.2506 30.9426 55.2662C24.3997 55.4142 17.855 55.4298 11.3102 55.4784C9.89067 55.4882 8.47891 55.5096 7.10219 55.1143C3.71979 54.1407 1.45513 52.0162 0.403604 48.626C0.276169 48.1833 0.218357 47.7234 0.232244 47.2629C0.285469 31.9444 0.333505 16.626 0.376345 1.30747C0.376345 0.505201 0.376343 0.503258 1.31687 0.489627C10.5859 0.368896 19.8542 0.247518 29.1219 0.125489C31.5968 0.0923857 34.0738 0.0378613 36.5487 0.00281056C37.7853 -0.0147148 37.8125 0.0125427 37.8222 1.22764C37.8495 5.12217 37.8761 9.01345 37.9021 12.9015C37.904 13.287 37.8378 13.6785 37.9761 14.0036ZM1.03062 24.3631H0.878737V46.0186C0.878737 46.338 0.900157 46.6573 0.878737 46.9728C0.826161 47.5764 1.10657 47.9815 1.58365 48.3008C2.08269 48.6384 2.6389 48.8825 3.22519 49.0213C4.02391 49.184 4.84292 49.2228 5.65343 49.1362C6.6368 49.0622 6.66601 49.0856 6.80037 50.0397C6.9632 51.0539 7.28591 52.0359 7.75647 52.9489C8.34065 54.1582 9.29871 54.7015 10.6423 54.7326C13.2594 54.7969 15.8766 54.7988 18.4937 54.7794C22.5985 54.7482 26.7034 54.7677 30.8062 54.6002C31.8091 54.5593 31.8208 54.5418 31.9999 53.5468C32.6781 49.6555 34.376 46.0136 36.9207 42.9926C37.2438 42.6211 37.4143 42.141 37.3977 41.649C37.3977 38.7125 37.427 35.776 37.4834 32.8395C37.4992 32.5446 37.4472 32.25 37.3314 31.9782C37.2157 31.7065 37.0392 31.4649 36.8155 31.272C32.3193 26.8829 32.2278 19.9486 36.6208 15.4641C36.8462 15.2472 37.0219 14.9838 37.1355 14.6923C37.2492 14.4008 37.2981 14.0881 37.279 13.7758C37.2381 9.77808 37.2283 5.7784 37.2069 1.78066C37.2069 1.56841 37.1952 1.35616 37.1952 1.1439C37.2011 1.08192 37.1931 1.01941 37.1718 0.960915C37.1505 0.902419 37.1164 0.849411 37.072 0.80576C37.0276 0.762109 36.974 0.72891 36.9151 0.708581C36.8563 0.688252 36.7937 0.681306 36.7318 0.688246C36.5195 0.688246 36.3073 0.688246 36.095 0.688246C26.6469 0.807678 17.2001 0.92776 7.75453 1.04849C5.87932 1.07186 4.0041 1.11275 2.12888 1.1478C1.05594 1.16922 1.05594 1.17117 1.04426 2.28501C1.04426 2.42521 1.04426 2.56736 1.04426 2.70951L1.03062 24.3631ZM39.0276 73.0447C39.3177 72.5735 39.5904 72.1217 39.8727 71.6816C40.3899 70.8321 41.0764 70.0981 41.8894 69.5252C42.7025 68.9524 43.6247 68.553 44.5987 68.3518C45.3582 68.1843 46.1254 68.05 46.8887 67.9C47.9305 67.7053 48.9762 67.5106 49.9498 67.0647C50.4248 66.8664 50.8476 66.5611 51.1853 66.1727C51.5231 65.7843 51.7666 65.3232 51.8971 64.8253C52.0295 64.3385 51.9613 64.0347 51.455 63.8166C50.5963 63.4466 49.8096 62.9034 49.3501 62.0933C48.8496 61.2092 48.2421 60.7127 47.2081 60.5238C46.1137 60.3291 45.6035 59.4781 45.6191 58.4344C45.6347 57.3244 46.2812 56.2924 47.2782 56.1152C47.913 55.9984 48.0668 55.7063 48.1544 55.1688C48.2407 54.681 48.3711 54.2019 48.5439 53.7376C49.278 51.691 50.5281 50.0689 52.5358 49.1381C53.4201 48.6901 54.4012 48.4667 55.3924 48.4878C57.4117 48.5773 58.7456 49.6561 59.727 51.2938C60.4695 52.547 60.9108 53.9555 61.0161 55.4083C61.0512 55.8523 61.1115 56.1522 61.6899 56.2807C62.8096 56.53 63.4054 57.5737 63.2282 58.707C63.051 59.8403 62.3811 60.444 61.0998 60.5219C60.4709 60.5589 60.0834 60.7516 59.7699 61.3202C59.1917 62.3439 58.333 63.181 57.2949 63.7329C56.6348 64.1009 56.6231 64.1613 56.8568 64.9013C57.3397 66.4591 58.3308 67.534 59.8731 68.087C60.8117 68.4239 61.797 68.5504 62.7706 68.7198C65.3624 69.1716 67.6388 70.19 69.2569 72.3612C69.6698 72.9123 69.6892 72.8987 70.1994 72.3885C70.3007 72.2892 70.3941 72.184 70.4896 72.0769C81.7564 59.3165 75.1046 39.7523 59.1662 36.1616C58.9968 36.1246 58.7884 35.9376 58.582 36.2706C59.9101 37.6746 61.2498 39.0786 62.5778 40.4923C63.4502 41.4192 64.3596 42.3091 65.1813 43.2866C65.637 43.8299 65.6078 44.2914 65.2826 44.8172C64.5193 46.0498 63.3782 46.7839 62.0345 47.2415C61.6237 47.3817 61.4114 47.15 61.1661 46.8404C58.3562 43.2905 55.519 39.7601 52.711 36.2103C52.3644 35.7721 52.0178 35.5988 51.4473 35.6903C42.815 37.0729 36.6773 41.7463 33.6863 49.9521C30.6816 58.2027 32.4069 65.7542 38.1922 72.3632C38.4027 72.6629 38.6917 72.8987 39.0276 73.0447ZM54.1345 79.3519C55.5507 79.3591 56.9639 79.2221 58.3523 78.943C62.1583 78.2213 65.7021 76.4948 68.6163 73.9424C69.2258 73.4147 69.2102 73.4108 68.7526 72.7877C67.6154 71.2415 66.081 70.303 64.2622 69.7675C63.0043 69.3955 61.6977 69.2631 60.428 68.9516C58.2997 68.4297 56.8626 67.1601 56.2122 65.0414C56.1762 64.9416 56.147 64.8395 56.1246 64.7357C56.0662 64.3755 55.8481 64.2781 55.5151 64.3463C54.8225 64.5057 54.1044 64.5196 53.4062 64.3872C52.8727 64.2762 52.6409 64.432 52.5202 64.9597C52.1814 66.4376 51.1727 67.3256 49.794 67.8319C49.2287 68.0344 48.6504 68.1983 48.0629 68.3226C47.062 68.5407 46.0553 68.7315 45.0466 68.9068C42.8053 69.3177 41.1988 70.5795 40.0869 72.5365C39.4696 73.625 39.4599 73.6873 40.4121 74.4526C44.4274 77.6675 49.0132 79.2604 54.1345 79.3519ZM44.4254 31.8484C45.552 31.8636 46.6703 31.6549 47.7155 31.2344C48.7608 30.8139 49.7121 30.19 50.5142 29.3989C51.3164 28.6078 51.9534 27.6652 52.3884 26.6259C52.8233 25.5866 53.0475 24.4713 53.0479 23.3447C53.0479 18.6985 49.2838 14.8488 44.6552 14.8118C40.0266 14.7748 36.0522 18.2915 35.984 23.2726C35.9727 24.3907 36.1824 25.4999 36.6009 26.5367C37.0195 27.5735 37.6387 28.5174 38.4231 29.3142C39.2074 30.1111 40.1414 30.7451 41.1715 31.18C42.2015 31.6149 43.3073 31.842 44.4254 31.8484ZM60.4105 56.2807C60.3618 54.1387 59.7991 52.1661 58.3542 50.5168C57.8557 49.9521 57.2774 49.4536 56.516 49.329C55.2503 49.1206 53.9845 49.1089 52.7909 49.7087C51.414 50.3833 50.2983 51.4936 49.6168 52.8672C48.6618 54.742 48.3491 56.8786 48.7269 58.9485C49.0735 60.9872 50.0764 62.586 52.084 63.3785C54.8374 64.467 57.7311 63.4836 59.2597 60.9483C60.1145 59.5171 60.4475 57.9437 60.4105 56.2807ZM38.276 32.6604C37.9858 33.8171 37.9663 40.7532 38.276 41.4718C41.9758 37.8226 46.4545 35.7234 51.6206 35.0127C51.3616 34.3896 50.9741 34.0176 50.6722 33.5892C50.0433 32.6954 50.0335 32.933 49.3092 33.2621C45.83 34.8627 42.399 34.7569 39.0159 32.9447C38.7959 32.822 38.6012 32.5767 38.276 32.6604ZM7.92005 54.4698C7.02133 53.1896 6.41628 51.7268 6.14804 50.1858C6.08962 49.8138 5.80531 49.7788 5.50543 49.7963C4.08198 49.9112 2.70917 49.7301 1.39282 48.9843C1.75501 51.5781 5.33213 54.4931 7.92005 54.4698ZM48.2051 60.0428C48.1213 59.1257 47.913 58.2689 47.9227 57.3965C47.9227 57.1531 47.9694 56.8493 47.6988 56.7422C47.4281 56.6351 47.1516 56.8084 46.9199 56.9895C46.3707 57.4296 46.0884 58.3526 46.3357 59.0088C46.6687 59.8014 47.3327 60.0273 48.2051 60.037V60.0428ZM60.6052 59.7274C60.9947 59.9669 61.3394 59.8773 61.6646 59.7741C62.2741 59.5794 62.533 59.0984 62.5953 58.4967C62.6363 58.1991 62.5873 57.896 62.4548 57.6264C62.3222 57.3568 62.1122 57.133 61.8515 56.9837C61.3861 56.7519 61.0999 56.8629 61.0492 57.3887C60.9635 58.1929 60.7377 58.9621 60.6052 59.7274Z" fill="#383838"/>
<path d="M37.1718 27.5194C36.3524 26.0662 35.9832 24.4024 36.1111 22.7391C36.239 21.0757 36.8583 19.4879 37.8902 18.1771C38.9221 16.8663 40.3203 15.8917 41.9071 15.3769C43.4939 14.8621 45.1979 14.8304 46.8028 15.2858C48.4077 15.7412 49.8411 16.6631 50.9211 17.9346C52.0011 19.2061 52.6789 20.7698 52.8686 22.4272C53.0583 24.0846 52.7513 25.7611 51.9866 27.2437C51.2218 28.7263 50.0337 29.9483 48.5733 30.7545C46.6296 31.8248 44.3423 32.0853 42.2078 31.4797C40.0732 30.874 38.2636 29.451 37.1718 27.5194V27.5194ZM41.0983 17.4654C40.2366 17.9578 39.4951 18.6357 38.9276 19.4499C38.4245 20.1632 38.5591 20.0542 39.1686 20.3296C42.9236 22.0315 46.6871 23.7261 50.4592 25.4135C51.1019 25.7044 51.1216 25.8766 51.2985 24.9705C51.8553 22.1053 51.0234 19.692 48.689 17.9416C46.3041 16.1579 43.7212 16.114 41.0983 17.4654ZM50.4458 27.0951C50.3823 27.0388 50.3145 26.9875 50.243 26.9418C46.2766 25.1379 42.3095 23.3367 38.3416 21.5383C37.9712 21.3709 37.9627 21.3862 37.8488 21.7951C37.8253 21.8745 37.81 21.9561 37.7933 22.0351C37.5655 23.106 37.5956 24.2157 37.8813 25.2726C38.167 26.3295 38.7 27.3032 39.4363 28.1135C40.1726 28.9238 41.091 29.5473 42.1158 29.9326C43.1406 30.3179 44.2424 30.4539 45.3301 30.3293C47.5227 30.0754 49.2064 28.982 50.4458 27.0951Z" fill="#CE1055" stroke="#CE1055"/>
<path d="M79.7956 16.2429C79.7956 17.9059 79.8092 19.5669 79.7956 21.2279C79.7839 22.1665 79.6982 22.2425 78.748 22.2639C74.9664 22.3535 71.1848 22.4411 67.4032 22.5054C66.6964 22.5056 66.0016 22.688 65.3858 23.035C64.4648 23.5588 63.5087 24.0203 62.5623 24.4994C62.2766 24.6399 61.9834 24.7647 61.6841 24.8732C61.3511 24.9959 60.985 25.1322 60.691 24.8382C60.3502 24.4974 60.5216 24.0963 60.7046 23.7574C61.209 22.8247 61.7172 21.8939 62.278 20.9943C62.6385 20.428 62.816 19.7644 62.7862 19.0937C62.722 16.6207 62.6947 14.1457 62.6597 11.6708C62.6421 10.4304 62.6752 10.3934 63.8611 10.3856C68.8111 10.3544 73.7604 10.3265 78.709 10.3018H78.8161C79.8521 10.3135 79.9105 10.3622 79.9085 11.3651C79.9085 12.5685 79.8832 13.7699 79.8715 14.9714C79.8715 15.3959 79.8715 15.8204 79.8715 16.2429H79.7956ZM61.2479 24.1644C61.7717 24.254 62.0638 24.0184 62.3676 23.8665C63.3198 23.3972 64.2739 22.9299 65.1911 22.4002C65.8382 22.0368 66.5696 21.8501 67.3117 21.8589C70.955 21.8063 74.5964 21.7206 78.2378 21.6388C79.1199 21.6193 79.1413 21.6077 79.153 20.7567C79.1984 17.7852 79.2328 14.8143 79.2562 11.8441C79.2562 10.96 79.2562 10.9405 78.3877 10.9444C73.6481 10.9613 68.9097 10.9866 64.1727 11.0204C63.3139 11.0204 63.2925 11.0476 63.3042 11.9356C63.3373 14.4807 63.3763 17.0277 63.4444 19.5728C63.4666 20.0286 63.349 20.4804 63.1075 20.8677C62.4649 21.9212 61.7737 22.9474 61.2479 24.1644Z" fill="#383838"/>
<path d="M58.2685 20.4997C58.2549 20.6691 58.2685 20.8697 58.0407 20.9047C57.8129 20.9398 57.7311 20.7665 57.6707 20.601C57.5733 20.3361 57.5032 20.0616 57.4117 19.7928C56.7711 17.8923 55.8539 16.1534 54.4343 14.7105C53.9636 14.2296 53.4266 13.8185 52.8395 13.4895C52.6584 13.3883 52.4248 13.2559 52.5455 13.0066C52.7032 12.6814 52.9836 12.845 53.1823 12.9599C53.5543 13.1639 53.9074 13.4004 54.2377 13.6667C56.2862 15.3959 57.4546 17.6645 58.2081 20.1842C58.2344 20.2881 58.2546 20.3935 58.2685 20.4997Z" fill="#383838"/>
<path d="M58.1477 16.1436C58.1486 16.1969 58.131 16.2488 58.098 16.2907C58.0651 16.3325 58.0187 16.3617 57.9667 16.3734C57.9173 16.3824 57.8666 16.3809 57.8179 16.3688C57.7692 16.3567 57.7237 16.3344 57.6843 16.3033C57.2092 15.6542 56.7451 14.9921 56.292 14.317C56.2782 14.2939 56.2694 14.2682 56.2661 14.2415C56.2628 14.2147 56.265 14.1876 56.2727 14.1618C56.2804 14.136 56.2933 14.1121 56.3107 14.0916C56.3281 14.071 56.3496 14.0543 56.3738 14.0425C56.4646 14.0004 56.5672 13.9915 56.6639 14.0172C57.0748 14.1768 58.1614 15.7483 58.1477 16.1436Z" fill="#383838"/>
<path d="M19.3368 34.333C16.2971 34.333 13.2594 34.333 10.2217 34.333C9.24804 34.333 9.11368 34.2687 9.10589 33.2756C9.09226 31.4043 9.1312 29.531 9.14094 27.6578C9.14094 26.9178 9.14093 26.1739 9.11951 25.434C9.10588 24.9491 9.29477 24.6979 9.79912 24.7271C9.93932 24.7369 10.0815 24.7271 10.2236 24.7271C15.1327 24.8147 20.0437 24.7933 24.9547 24.7038C26.1892 24.6804 27.4277 24.7037 28.6642 24.7291C29.5561 24.7446 29.6846 24.844 29.6904 25.6793C29.7021 28.2244 29.7021 30.7675 29.6729 33.3107C29.6729 34.183 29.523 34.2843 28.6623 34.2454C25.5544 34.1207 22.4388 34.257 19.3368 34.333ZM19.2979 33.6787V33.558C22.2304 33.558 25.1637 33.558 28.0976 33.558C29.0147 33.558 29.0283 33.558 29.0342 32.6252C29.0459 30.5053 29.0459 28.3841 29.0342 26.2616C29.0342 25.4028 29.0147 25.3853 28.1365 25.3794C22.2694 25.3288 16.4023 25.5274 10.5352 25.3892C9.79716 25.3717 9.78159 25.4087 9.7738 26.1817C9.75433 28.3724 9.73875 30.5631 9.73875 32.7557C9.73875 33.6748 9.75627 33.6767 10.7026 33.6767L19.2979 33.6787Z" fill="#383838"/>
<path d="M20.2443 9.92993C17.0255 9.95329 14.5855 9.99029 12.1476 9.8384C11.283 9.78583 10.9909 9.50542 10.9558 8.80636C10.9149 8.00798 11.1506 7.68084 11.9587 7.638C13.5827 7.54842 15.2054 7.49065 16.8268 7.46469C19.4771 7.42379 22.1292 7.43354 24.7814 7.40238C25.5934 7.40238 26.4035 7.3206 27.2155 7.27581C27.6965 7.25049 27.8931 7.45301 27.9165 7.96124C27.9847 9.54826 27.9165 9.67094 26.347 9.73326C24.059 9.82088 21.7612 9.87735 20.2443 9.92993ZM19.518 9.25617V9.29317L25.9887 9.09845C26.236 9.09845 26.4833 9.06534 26.7306 9.05366C27.1376 9.03613 27.2642 8.8122 27.2505 8.42664C27.2369 8.04108 27.0032 7.98266 26.6858 7.9924C25.9069 8.01382 25.128 8.0255 24.3491 8.03718C20.5286 8.09301 16.7081 8.15078 12.8875 8.21049C12.5697 8.21186 12.2528 8.24381 11.9412 8.30591C11.8367 8.33354 11.7468 8.40033 11.6903 8.49242C11.6337 8.58451 11.6148 8.69483 11.6374 8.80051C11.6418 8.88973 11.6802 8.97389 11.7446 9.03578C11.809 9.09766 11.8947 9.13261 11.984 9.13349C12.4045 9.19044 12.8276 9.22619 13.2517 9.2406C15.3411 9.26397 17.4285 9.25617 19.518 9.25617Z" fill="#383838"/>
<path d="M19.7925 43.9331C16.0927 43.9331 12.3754 43.9331 8.66776 43.9195C8.30557 43.9195 7.64545 44.1823 7.64545 43.5865C7.64545 43.1191 8.2822 43.3061 8.63855 43.3022C16.0901 43.2243 23.5423 43.1594 30.9951 43.1075C31.3845 43.1075 32.105 42.7998 32.1109 43.4502C32.1109 43.9136 31.4099 43.7286 31.0243 43.7306C27.2817 43.7462 23.5371 43.7306 19.7925 43.7306V43.9331Z" fill="#383838"/>
<path d="M19.5608 40.7336C15.8512 40.7336 12.1417 40.7336 8.43215 40.7336C8.0797 40.7336 7.44489 40.9284 7.44489 40.461C7.44489 39.8768 8.1089 40.1222 8.47498 40.1163C15.8915 40.0229 23.3099 39.9417 30.7303 39.8729C31.0126 39.8729 31.295 39.8729 31.5773 39.8729C31.7915 39.8846 32.0466 39.9236 32.0252 40.1962C32.0038 40.4688 31.7526 40.4863 31.5364 40.4961C31.3203 40.5058 31.1119 40.5077 30.8997 40.5077H19.5608V40.7336Z" fill="#383838"/>
<path d="M19.4654 37.5441C15.7169 37.5441 11.9664 37.5441 8.21795 37.5343C7.8616 37.5343 7.2268 37.729 7.21317 37.2753C7.19564 36.6503 7.86355 36.9229 8.2199 36.919C15.7896 36.8671 23.3586 36.8288 30.927 36.8041C31.2093 36.8044 31.4913 36.8193 31.7721 36.8489C31.8073 36.8489 31.8421 36.8559 31.8745 36.8696C31.9069 36.8833 31.9363 36.9034 31.9608 36.9286C31.9853 36.9538 32.0045 36.9838 32.0172 37.0166C32.03 37.0494 32.036 37.0844 32.035 37.1195C32.0333 37.191 32.0054 37.2593 31.9565 37.3114C31.9077 37.3634 31.8413 37.3957 31.7701 37.4019C31.4547 37.4382 31.1374 37.4571 30.8199 37.4584H19.4654V37.5441Z" fill="#383838"/>
<path d="M30.5434 20.5872C30.7498 17.6195 32.0214 15.0881 34.0933 12.9247C34.2201 12.8034 34.3662 12.7041 34.5256 12.6307C34.5482 12.6162 34.5735 12.6066 34.6 12.6024C34.6265 12.5982 34.6536 12.5995 34.6796 12.6063C34.7055 12.613 34.7298 12.6251 34.7509 12.6417C34.772 12.6583 34.7894 12.6791 34.8021 12.7027C34.8449 12.7884 34.8858 12.9325 34.8449 12.9928C34.7003 13.1922 34.5409 13.3804 34.3678 13.5556C33.1335 14.8783 32.2031 16.4547 31.6417 18.1745C31.3024 19.1439 31.1633 20.172 31.2327 21.1967C31.2522 21.444 31.2736 21.6913 31.2756 21.9366C31.2756 22.1314 31.1996 22.2988 30.9796 22.2891C30.908 22.2833 30.8407 22.2531 30.7889 22.2034C30.7371 22.1537 30.704 22.0877 30.6953 22.0165C30.6408 21.5608 30.5999 21.1071 30.5434 20.5872Z" fill="#383838"/>
<path d="M31.4936 13.2442C31.4695 13.3384 31.4286 13.4275 31.3728 13.5071C30.3466 14.5041 29.928 15.8244 29.4256 17.1076C29.3107 17.4114 29.262 17.9878 28.8589 17.8417C28.3526 17.6567 28.7401 17.1719 28.8589 16.8467C29.2231 15.7796 29.5989 14.7047 30.2804 13.7914C30.5102 13.4798 30.738 13.1546 31.11 12.9969C31.3183 12.9093 31.441 13.0164 31.4936 13.2442Z" fill="#383838"/>
<path d="M35.4037 54.197C35.6157 52.2581 36.1343 50.3651 36.9401 48.5888C38.2077 45.7575 40.1433 43.4539 42.5482 41.53C42.8208 41.3139 43.1986 40.829 43.5102 41.2613C43.7536 41.6001 43.2044 41.8143 42.9474 42.0207C39.16 45.076 36.794 48.953 36.1047 53.8056C36.0895 53.9459 36.0655 54.085 36.0327 54.2223C35.9781 54.417 35.9431 54.6546 35.6705 54.6721C35.4855 54.6818 35.3901 54.4482 35.4037 54.197Z" fill="#383838"/>
<path d="M35.7912 59.2852C35.8068 59.5988 35.8321 59.9123 35.834 60.2238C35.8341 60.295 35.8065 60.3634 35.7571 60.4146C35.7077 60.4658 35.6403 60.4959 35.5692 60.4984C35.4985 60.5023 35.4289 60.48 35.3736 60.4358C35.3183 60.3916 35.2812 60.3287 35.2693 60.2589C35.1071 59.5777 35.0558 58.8748 35.1174 58.1772C35.1311 57.9962 35.2401 57.8326 35.4465 57.8521C35.6529 57.8715 35.7036 58.0585 35.7152 58.2415C35.7347 58.5901 35.7483 58.9406 35.7659 59.2891L35.7912 59.2852Z" fill="#383838"/>
<path d="M51.5972 56.3449C51.6556 55.9554 51.6322 55.5874 51.8523 55.2895C51.884 55.2514 51.924 55.2211 51.9692 55.2008C52.0144 55.1806 52.0637 55.1709 52.1132 55.1726C52.193 55.1863 52.3196 55.3011 52.3177 55.3674C52.3008 55.7161 52.2664 56.0638 52.2144 56.4091C52.1872 56.5922 52.0762 56.7713 51.8873 56.7694C51.5913 56.7655 51.6322 56.4987 51.5972 56.3449Z" fill="#383838"/>
<path d="M57.7701 56.3117C57.7701 56.5065 57.735 56.6895 57.5189 56.7129C57.3027 56.7362 57.1976 56.5785 57.1645 56.3935C57.1061 56.0605 56.8665 55.7237 57.1333 55.3907C57.1736 55.3616 57.2203 55.3426 57.2695 55.3355C57.3186 55.3284 57.3688 55.3333 57.4157 55.3498C57.5948 55.4316 57.7701 55.9573 57.7701 56.3117Z" fill="#383838"/>
<path d="M71.4886 13.7407H75.0968C75.3033 13.7407 75.57 13.6998 75.5934 13.988C75.6187 14.3229 75.3403 14.3599 75.0871 14.3775C74.98 14.3872 74.8749 14.3775 74.7678 14.3775C72.431 14.3775 70.0943 14.3775 67.7576 14.356C67.4655 14.356 66.9787 14.4729 66.9904 14.0425C67.0021 13.6122 67.4733 13.7271 67.7693 13.7251C69.0077 13.7096 70.2462 13.7251 71.4847 13.7251L71.4886 13.7407Z" fill="#383838"/>
<path d="M71.3152 16.7025C70.2228 16.7025 69.1324 16.7025 68.0399 16.7025C67.7985 16.7025 67.5375 16.7629 67.3253 16.5974C67.1598 16.4669 67.1442 16.3053 67.3253 16.1748C67.5132 16.0748 67.7278 16.0366 67.9387 16.0657C70.1566 16.0482 72.3765 16.0249 74.5944 16.0249C74.9157 16.0249 75.4785 15.8886 75.4941 16.2994C75.5135 16.8836 74.9099 16.6441 74.5866 16.6538C73.4962 16.683 72.4038 16.6655 71.3113 16.6655L71.3152 16.7025Z" fill="#383838"/>
<path d="M69.1537 18.6146C69.6444 18.5912 70.1273 18.5698 70.6258 18.5406C70.8439 18.5289 71.0873 18.5172 71.1165 18.7898C71.1457 19.0625 70.8887 19.1033 70.692 19.1793C70.6588 19.1912 70.624 19.1985 70.5888 19.2007C69.5375 19.2741 68.4816 19.2441 67.4362 19.1111C67.2298 19.0858 66.9883 19.0177 67.0467 18.7314C67.0876 18.5367 67.2804 18.4822 67.4673 18.4919C68.0281 18.5192 68.5889 18.5562 69.1498 18.5893L69.1537 18.6146Z" fill="#383838"/>
</svg>
