<svg width="180" height="180" viewBox="0 0 180 180" fill="none" xmlns="http://www.w3.org/2000/svg">
<path d="M153.099 106.987C155.815 109.429 158.273 111.678 160.859 113.941C162.994 115.882 165.141 117.797 167.198 119.815C169.254 121.833 169.047 122.784 167.198 124.648C166.329 125.483 165.414 126.268 164.455 127C162.774 128.285 162.037 128.285 160.433 126.897C159.514 126.126 158.622 125.316 157.768 124.481C154.871 121.602 151.986 118.709 149.089 115.843C148.617 115.186 147.997 114.649 147.278 114.275C146.433 114.882 145.709 115.641 145.144 116.511C136.607 126.794 128.091 137.077 119.598 147.36C119.113 147.99 118.488 148.5 117.773 148.85C117.057 149.2 116.269 149.381 115.471 149.378C111.619 149.366 107.772 149.082 103.959 148.53C97.2593 147.849 90.572 146.923 83.82 146.756C82.4342 146.634 81.0422 146.91 79.8104 147.553C78.5787 148.196 77.5593 149.178 76.8741 150.381C76.1885 151.461 75.4512 152.515 74.8045 153.607C71.5018 159.083 68.2164 164.563 64.9482 170.047C63.2796 172.862 61.7145 175.741 60.0589 178.569C59.0112 180.382 57.8988 180.459 56.5665 178.878C56.3664 178.63 56.1849 178.368 56.0232 178.094C52.2592 172.335 48.2624 166.744 44.2397 161.165C36.2115 150.025 28.6403 138.56 21.5262 126.769C14.8519 115.779 8.0482 104.917 0.998751 94.1075C0.436744 93.4028 0.0954607 92.5496 0.017275 91.6538C-0.0609107 90.758 0.127452 89.8591 0.558973 89.0688C5.79755 77.8604 11.0749 66.6776 16.7274 55.6492C17.6411 53.786 18.6737 51.9828 19.8189 50.2506C20.3953 49.2787 21.2405 48.4918 22.2541 47.9837C23.2677 47.4755 24.4068 47.2674 25.536 47.3842C28.8861 47.6927 32.2362 48.1297 35.5863 48.4896C40.8507 49.0552 46.1152 49.5694 51.3797 50.1735C51.929 50.2569 52.4907 50.191 53.0054 49.9828C53.5201 49.7746 53.9684 49.4319 54.3029 48.991C56.256 46.7801 58.2997 44.6335 60.2917 42.4356C70.9241 30.6873 81.9962 19.3632 93.3271 8.27044C95.72 5.93106 98.0741 3.51454 100.441 1.13661C101.942 -0.367275 102.705 -0.328694 104.322 0.956677C106.095 2.5656 107.956 4.07605 109.897 5.48117C110.854 6.31134 111.741 7.21843 112.548 8.19328C134.106 28.1251 155.431 48.3226 176.523 68.7857C177.859 69.9388 178.942 71.3518 179.705 72.9374C179.933 73.3526 180.032 73.8252 179.991 74.2962C179.949 74.7672 179.769 75.2156 179.473 75.5853C178.179 77.3719 176.886 79.2229 175.476 80.971C169.202 88.7603 162.399 96.0998 155.893 103.683L153.099 106.987ZM89.7183 75.2382C89.825 75.0461 89.9118 74.8437 89.977 74.6341C89.977 74.2356 90.0546 73.8372 90.1063 73.4387C91.3222 63.0529 96.716 55.4435 106.288 51.356C115.859 47.2686 124.901 48.5925 133.14 54.7494C138.602 58.8847 142.249 64.9529 143.323 71.6919C144.398 78.4309 142.817 85.3222 138.909 90.9326C137.719 92.6807 137.693 92.7064 139.258 94.1717C143.001 97.6679 146.756 101.147 150.525 104.609C151.818 105.894 151.883 105.804 153.112 104.416C158.906 97.7836 164.684 91.1468 170.444 84.5057C172.902 81.6694 175.247 78.7344 177.481 75.701C177.913 75.2278 178.153 74.6114 178.153 73.9721C178.153 73.3328 177.913 72.7165 177.481 72.2433C176.554 71.1428 175.565 70.0956 174.519 69.107C158.648 53.5155 142.363 38.3481 126.194 23.065C121.253 18.3863 116.222 13.7975 111.229 9.18304C109.457 7.55062 109.638 7.56345 107.956 9.04163C106.517 10.3231 104.838 11.3102 103.015 11.9466C100.351 12.8463 97.6991 13.7589 95.0216 14.5944C93.8833 14.9543 92.5769 15.5713 91.5033 15.0829C89.6407 14.2474 88.7223 15.2885 87.6229 16.3683C77.5208 26.4199 67.7551 36.7799 58.2092 47.3457C57.252 48.4125 56.2819 49.4794 55.2471 50.4948C55.0862 50.6137 54.9528 50.7657 54.8562 50.9404C54.7596 51.115 54.7019 51.3083 54.6872 51.5071C54.6725 51.7059 54.701 51.9055 54.7709 52.0924C54.8407 52.2793 54.9502 52.4489 55.0919 52.59C55.4282 53.027 55.7128 53.5155 56.0232 53.9782C63.672 65.4951 71.3251 77.0077 78.9824 88.5161C79.7068 89.6087 80.1724 90.9968 81.7505 91.3053C81.8303 91.3233 81.9056 91.3571 81.9719 91.4047C82.0382 91.4523 82.0942 91.5127 82.1365 91.5823C82.1787 91.652 82.2065 91.7294 82.218 91.8099C82.2294 91.8904 82.2244 91.9723 82.2032 92.0509C81.6211 93.3362 82.63 94.0046 83.1603 94.8144C90.0589 105.277 96.9963 115.727 103.972 126.165C104.244 126.563 104.516 126.962 104.761 127.36C105.266 128.157 105.796 128.478 106.702 127.797C108.788 126.253 111.384 125.546 113.971 125.818C115.983 125.951 117.997 125.584 119.83 124.751C123.853 122.964 127.475 123.748 130.877 126.319C131.559 127.053 132.393 127.632 133.321 128.016C137.344 123.195 141.367 118.337 145.415 113.504C146.204 112.565 145.415 112.09 144.95 111.524C141.25 107.527 137.564 103.542 133.852 99.5574C132.222 97.7965 132.222 97.8222 130.139 98.9533C126.447 101.037 122.31 102.219 118.068 102.403C113.826 102.586 109.601 101.765 105.741 100.008C101.881 98.2508 98.496 95.6072 95.8655 92.2952C93.2349 88.9832 91.4339 85.0974 90.6108 80.9581C90.5038 79.933 90.1911 78.9397 89.6912 78.0367C89.1913 77.1338 88.5144 76.3396 87.7005 75.701C86.9448 75.1129 86.2474 74.4544 85.618 73.7343C85.2688 73.3744 85.0488 72.886 85.4886 72.449C85.9284 72.0119 86.3811 72.2947 86.7821 72.6032C87.6228 73.413 88.5154 74.2485 89.6795 75.2382H89.7183ZM20.3103 120.83C20.2579 121.057 20.2623 121.292 20.3232 121.516C20.3841 121.741 20.4997 121.946 20.6596 122.116C27.127 132.759 33.7237 143.35 40.9284 153.543C41.0545 153.744 41.1928 153.937 41.3423 154.121C42.2736 155.33 42.4806 155.407 43.4636 154.121C44.1491 153.247 44.7571 152.283 45.3909 151.384C45.4302 151.272 45.4945 151.171 45.5789 151.087C45.6633 151.004 45.7656 150.94 45.8782 150.902C45.9907 150.863 46.1106 150.85 46.2288 150.864C46.347 150.878 46.4605 150.919 46.5608 150.983C46.6611 151.046 46.7455 151.132 46.8078 151.233C46.8701 151.333 46.9087 151.447 46.9206 151.565C46.9324 151.682 46.9174 151.801 46.8765 151.912C46.8356 152.023 46.7699 152.124 46.6843 152.206C46.0436 153.308 45.3396 154.372 44.576 155.394C43.3472 157.013 43.2825 156.988 44.576 158.697C48.922 164.816 53.3328 170.908 57.5107 177.181C57.7048 177.489 57.847 177.914 58.442 177.914C59.0356 177.306 59.5055 176.59 59.8261 175.806C64.1851 168.093 68.7381 160.471 73.3817 152.926C74.3717 151.089 75.5601 149.365 76.9258 147.785C77.7148 146.962 77.5726 146.409 77.0552 145.522C71.3639 135.715 65.7373 125.869 60.0718 116.049C59.7614 115.535 59.6062 114.879 58.9724 114.571C58.2998 115.072 58.6878 115.766 58.5843 116.344C58.4808 116.923 58.3774 117.154 57.9117 117.206C57.7924 117.228 57.6695 117.222 57.5527 117.189C57.4358 117.157 57.3281 117.098 57.238 117.017C57.1479 116.936 57.0778 116.836 57.0331 116.723C56.9884 116.611 56.9704 116.49 56.9804 116.37C56.8768 115.336 56.8768 114.294 56.9804 113.259C57.1884 111.761 56.8488 110.238 56.0232 108.966C49.7628 98.1821 43.58 87.3721 37.3584 76.575C36.9703 75.8938 36.7375 75.084 35.9097 74.6341C34.6162 75.8295 33.4521 77.3719 31.6542 78.0275C30.5935 78.4002 29.5328 78.773 28.4981 79.2229C26.2345 80.1997 25.6136 81.3052 25.9111 83.7345C26.2248 85.5426 26.7144 87.3161 27.3728 89.0302C28.8599 93.3681 28.8599 98.0731 27.3728 102.411C26.5511 104.913 26.0216 107.501 25.7947 110.123C25.7073 112.281 25.4565 114.429 25.0445 116.55C24.2684 119.391 23.2465 120.355 20.2715 120.83H20.3103ZM78.271 91.164C78.2268 90.6121 78.0045 90.0891 77.6372 89.6729L53.4751 53.3355C53.294 53.0784 53.1258 52.8085 52.9318 52.5514C52.621 52.1895 52.2109 51.9251 51.7517 51.7905C51.2924 51.6558 50.8036 51.6567 50.3449 51.7931C49.3748 51.9345 49.6593 52.9113 49.5817 53.5669C49.4006 55.0708 49.323 56.5875 49.1549 58.0914C48.6504 62.6287 47.1371 64.4411 42.6875 65.5722C41.9002 65.7388 41.1657 66.0941 40.548 66.6071C39.9303 67.1201 39.4481 67.7753 39.1434 68.5157C38.8401 69.5888 38.378 70.6111 37.7723 71.5492C36.8927 72.5518 37.2937 73.2202 37.7723 74.1199C44.0068 84.9428 50.263 95.7913 56.5406 106.666C56.7864 107.09 56.8769 107.771 57.7177 107.72C57.9376 106.807 58.1316 105.881 58.4032 104.969C58.5455 104.493 58.8689 104.095 59.4639 104.3C59.6557 104.368 59.8151 104.504 59.9108 104.683C60.0066 104.861 60.0317 105.069 59.9813 105.264C59.8502 106.209 59.6601 107.145 59.4121 108.067C59.1577 108.901 59.093 109.782 59.2227 110.644C59.3525 111.507 59.6734 112.33 60.1623 113.054C64.8835 121.113 69.5012 129.237 74.1578 137.334C75.5547 139.751 76.9474 142.172 78.3357 144.597C78.6979 145.24 78.9566 145.882 79.9526 145.561C82.7014 144.953 85.5413 144.87 88.3213 145.317C89.8993 145.458 91.4775 145.497 92.9908 145.574C93.1694 144.804 93.1694 144.004 92.9908 143.234C92.6273 140.383 92.7983 137.489 93.4952 134.699C93.7061 133.547 94.3153 132.505 95.2174 131.751C96.1195 130.998 97.258 130.581 98.4363 130.573C99.5629 130.529 100.672 130.281 101.709 129.841C103.662 128.98 103.714 128.89 102.562 127.154C99.2124 122.09 95.8365 117.038 92.4863 111.974C88.6059 106.126 84.7255 100.29 80.8451 94.4031C80.5853 93.821 80.1173 93.3554 79.5318 93.0966C78.9463 92.8378 78.2851 92.8041 77.676 93.002C77.0546 93.1637 76.4167 93.2542 75.7746 93.2719C75.6947 93.2808 75.6138 93.2739 75.5366 93.2515C75.4594 93.2292 75.3874 93.1918 75.3249 93.1416C75.2623 93.0913 75.2104 93.0293 75.1722 92.959C75.1339 92.8887 75.1101 92.8116 75.102 92.7321C75.0772 92.5772 75.0996 92.4185 75.1665 92.2764C75.2333 92.1343 75.3416 92.0155 75.4771 91.9352C76.2532 91.3825 77.275 91.511 78.2322 91.164H78.271ZM21.8755 50.5077C20.6308 51.994 19.5951 53.6415 18.797 55.4049C13.0022 66.6005 7.6084 77.976 2.31808 89.4158C1.96377 90.0675 1.80584 90.8069 1.86319 91.5454C1.92053 92.284 2.19072 92.9905 2.64145 93.5805C7.68601 101.421 12.64 109.339 17.6199 117.231C17.7493 117.437 17.8657 117.655 18.008 117.848C18.2871 118.289 18.6857 118.642 19.1578 118.867C19.63 119.092 20.1565 119.18 20.6768 119.121C21.1971 119.062 21.6901 118.858 22.0989 118.533C22.5078 118.208 22.8159 117.774 22.9878 117.283C23.382 116.235 23.6175 115.134 23.6863 114.018C24.1132 110.303 24.1002 106.511 25.4066 102.951C27.1984 98.1171 27.1201 92.7943 25.1868 88.0148C24.6826 86.6723 24.3227 85.2807 24.1132 83.8631C23.8046 82.6034 23.9864 81.2744 24.622 80.1422C25.2576 79.0101 26.3002 78.1583 27.5409 77.7576C28.498 77.3334 29.494 77.012 30.4641 76.6521C31.7466 76.1727 32.8641 75.3387 33.6849 74.2485C34.1463 73.7616 34.4201 73.1285 34.4579 72.4607C34.4958 71.793 34.2953 71.1333 33.8918 70.598C30.2572 64.5054 26.7777 58.3099 23.2336 52.1658C22.9784 51.4788 22.5006 50.8955 21.8755 50.5077V50.5077ZM136.477 75.7266C136.462 71.8994 135.306 68.1624 133.156 64.9874C131.005 61.8124 127.956 59.3416 124.394 57.8869C120.831 56.4322 116.915 56.0589 113.139 56.814C109.364 57.569 105.898 59.4187 103.179 62.1294C100.46 64.8402 98.6101 68.2906 97.8628 72.0452C97.1154 75.7997 97.5041 79.6901 98.9797 83.2254C100.455 86.7606 102.952 89.7822 106.154 91.9088C109.356 94.0354 113.12 95.1717 116.972 95.1743C119.548 95.2003 122.104 94.7137 124.488 93.7432C126.872 92.7726 129.037 91.3377 130.855 89.523C132.673 87.7084 134.107 85.5506 135.072 83.1768C136.038 80.8029 136.516 78.2611 136.477 75.701V75.7266ZM35.9097 70.3924C36.2291 70.2233 36.5093 69.9895 36.7321 69.7061C36.9549 69.4227 37.1153 69.096 37.2031 68.7471C37.6046 67.442 38.3776 66.2803 39.4288 65.4022C40.48 64.5241 41.7645 63.9671 43.1273 63.7984C45.4943 63.4128 46.6326 61.7418 47.1759 59.5695C47.5374 57.609 47.745 55.6236 47.7967 53.6311C47.9649 51.4331 47.9778 51.4332 45.7401 51.2275C40.1393 50.7005 34.5515 50.1735 28.9896 49.3894C27.3404 49.0743 25.6459 49.0743 23.9968 49.3894C24.5141 51.099 34.1893 68.143 35.9097 70.3667V70.3924ZM106.495 130.136L117.412 146.563C118.285 146.157 119.015 145.498 119.507 144.674C122.327 141.319 125.121 137.926 127.928 134.545L131.122 130.689C131.549 130.188 131.911 129.751 131.329 129.044C130.138 127.575 128.522 126.506 126.698 125.981C124.875 125.457 122.933 125.503 121.137 126.113C118.607 127.123 115.894 127.6 113.169 127.514C111.934 127.446 110.699 127.642 109.547 128.09C108.396 128.538 107.354 129.227 106.495 130.111V130.136ZM115.782 147.643C115.2 146.358 105.9 132.154 105.188 131.19C104.477 130.226 104.05 130.509 103.339 130.908C101.998 131.625 100.523 132.063 99.0054 132.193C96.2891 132.463 95.4614 133.273 94.8534 135.972C94.2844 138.789 94.2844 141.69 94.8534 144.507C94.8567 144.721 94.903 144.933 94.9898 145.129C95.0767 145.325 95.2022 145.502 95.3589 145.65C95.5155 145.797 95.7003 145.912 95.9023 145.987C96.1043 146.062 96.3194 146.096 96.5349 146.088C100.752 146.499 104.955 147.013 109.172 147.463C111.354 147.85 113.584 147.902 115.782 147.617V147.643ZM90.7531 13.142C95.2802 13.7075 105.343 9.62007 107.892 6.4195C106.435 4.96294 104.888 3.59779 103.261 2.33199C102.524 1.70216 101.968 1.95927 101.437 2.56339C100.144 3.96444 98.7597 5.31409 97.4015 6.66372C95.3061 8.73317 93.1848 10.7769 90.7531 13.142Z" fill="#383838"/>
<path d="M97.0008 75.7967C97.0411 71.8336 98.258 67.9718 100.497 64.7015C102.736 61.4312 105.896 58.8998 109.576 57.4287C113.257 55.9577 117.291 55.6132 121.167 56.439C125.044 57.2648 128.587 59.2237 131.348 62.067C134.109 64.9104 135.963 68.5099 136.675 72.4088C137.387 76.3078 136.924 80.3302 135.345 83.9656C133.767 87.601 131.144 90.6855 127.809 92.8275C124.474 94.9695 120.579 96.0724 116.616 95.9963C111.346 95.8895 106.33 93.7086 102.658 89.9269C98.9855 86.1452 96.9528 81.0678 97.0008 75.7967V75.7967ZM117.022 59.7753C114.664 59.7648 112.334 60.2787 110.199 61.2797C108.316 62.1496 108.723 62.0854 109.65 63.376C115.354 71.338 121.084 79.2952 126.841 87.2476C127.817 88.6095 127.653 88.9874 129.094 87.3332C133.643 82.0997 134.798 76.146 132.074 69.7717C129.286 63.269 124.024 60.1104 117.022 59.7753ZM124.816 90.6915C124.752 90.5002 124.673 90.3143 124.58 90.1353C118.562 81.7123 112.54 73.294 106.512 64.8805C105.949 64.0961 105.914 64.1175 105.193 64.8234C105.051 64.9589 104.922 65.1086 104.794 65.2512C103.053 67.1839 101.797 69.5029 101.13 72.0168C100.462 74.5307 100.402 77.1673 100.954 79.709C101.507 82.2507 102.656 84.6246 104.306 86.6346C105.957 88.6446 108.062 90.2332 110.448 91.269C115.261 93.351 120.024 93.1015 124.816 90.6915Z" fill="#CE1055" stroke="#CE1055"/>
<path d="M46.4133 12.2161C46.7014 12.2606 46.9759 12.3678 47.2174 12.53C47.4589 12.6922 47.6613 12.9054 47.8103 13.1544C49.4142 15.1467 51.0181 17.1262 52.5962 19.1314C54.6882 21.9534 56.9883 24.6172 59.4774 27.1007C59.6552 27.2624 59.8237 27.4341 59.9819 27.6148C60.2794 27.9876 60.6545 28.3989 60.2406 28.9002C59.8267 29.4015 59.2058 29.1316 58.766 28.7459C58.3262 28.3603 57.8347 27.8719 57.382 27.4606C54.655 24.545 52.0983 21.4765 49.7246 18.2702C48.5346 16.7792 47.3317 15.2881 46.1417 13.7842C45.9919 13.6498 45.8888 13.4717 45.8469 13.2755C45.8051 13.0793 45.8268 12.8749 45.9089 12.6916C46.0124 12.4346 46.2711 12.3317 46.4133 12.2161Z" fill="#383838"/>
<path d="M65.8935 24.5296C65.8935 25.0951 65.8159 25.3908 65.4925 25.545C65.402 25.5873 65.3038 25.6108 65.2039 25.6142C65.104 25.6176 65.0044 25.6007 64.9112 25.5646C64.8181 25.5285 64.7333 25.474 64.662 25.4044C64.5907 25.3347 64.5344 25.2514 64.4965 25.1594C64.2299 24.6743 63.9966 24.1718 63.7981 23.6555C62.2976 19.7994 61.2111 15.8405 60.047 11.8687C59.9302 11.4925 59.8565 11.1044 59.8271 10.7119C59.8188 10.5496 59.867 10.3894 59.9636 10.2583C60.0601 10.1272 60.1992 10.0332 60.3574 9.99205C60.508 9.93891 60.6727 9.94074 60.822 9.99727C60.9713 10.0538 61.0955 10.1613 61.1723 10.3005C61.3876 10.7123 61.5651 11.1425 61.7026 11.5859C62.9961 15.6991 64.0697 19.8251 65.6606 23.8226C65.7507 24.054 65.8284 24.29 65.8935 24.5296V24.5296Z" fill="#383838"/>
<path d="M51.8969 28.7333C51.8969 29.2089 51.5089 29.5302 51.1208 29.4274C49.4341 29.0288 47.843 28.3037 46.4385 27.2937C46.3424 27.2211 46.2721 27.1201 46.2376 27.0052C46.2031 26.8904 46.2063 26.7676 46.2466 26.6546C46.2869 26.5416 46.3622 26.4443 46.4618 26.3766C46.5614 26.309 46.6801 26.2745 46.8006 26.2782C48.6003 26.4997 50.3046 27.2065 51.7288 28.322C51.8322 28.3862 51.8452 28.6562 51.8969 28.7333Z" fill="#383838"/>
<path d="M67.0573 13.874C67.8334 13.9768 68.0144 14.6452 68.1826 15.1593C68.3507 15.6735 69.1915 16.7789 68.1826 17.2159C66.9667 17.7429 66.9667 16.3804 66.5916 15.712C66.3513 15.3052 66.2729 14.8238 66.3717 14.3624C66.4128 14.2155 66.5032 14.087 66.6279 13.9981C66.7526 13.9093 66.9041 13.8655 67.0573 13.874V13.874Z" fill="#383838"/>
<path d="M119.469 120.496C117.878 120.341 116.287 120.2 114.709 120.007C114.14 119.93 113.558 119.686 113.687 118.966C113.817 118.246 114.308 118.259 114.812 118.375C117.104 118.698 119.42 118.81 121.733 118.709H121.978C122.535 118.709 123.272 118.709 123.272 119.467C123.272 120.226 122.522 120.367 121.901 120.406C121.28 120.444 120.297 120.406 119.508 120.406L119.469 120.496Z" fill="#383838"/>
<path d="M81.8163 57.0882C82.3467 55.173 83.0063 52.7179 83.6789 50.2757C83.8212 49.8001 84.0929 49.3374 84.6749 49.4402C85.257 49.5431 85.3475 50.1086 85.244 50.5585C84.6102 53.1293 83.9506 55.6229 83.265 58.1551C83.1227 58.6564 82.7735 59.0291 82.2044 58.8363C81.6352 58.6435 81.6611 58.1293 81.8163 57.0882Z" fill="#383838"/>
<path d="M103.236 111.035C103.448 111.048 103.655 111.106 103.843 111.206C104.03 111.306 104.194 111.445 104.322 111.613C105.821 113.265 107.433 114.811 109.147 116.241C109.381 116.452 109.589 116.689 109.768 116.948C109.869 117.071 109.924 117.226 109.924 117.385C109.924 117.544 109.869 117.698 109.768 117.822C109.662 117.941 109.521 118.023 109.365 118.055C109.208 118.088 109.046 118.069 108.901 118.002C108.748 117.955 108.607 117.876 108.487 117.77C106.469 116.212 104.621 114.445 102.977 112.5C102.836 112.357 102.742 112.175 102.707 111.977C102.673 111.78 102.699 111.577 102.783 111.395C102.835 111.215 103.093 111.125 103.236 111.035Z" fill="#383838"/>
<path d="M155.078 69.4543C155.078 69.7756 154.949 70.0712 154.587 70.1869C154.435 70.2415 154.269 70.2432 154.117 70.1918C153.964 70.1405 153.833 70.039 153.746 69.9041C153.332 69.2358 152.957 68.5417 152.608 67.8347C151.819 66.2023 151.03 64.557 150.279 62.8989C150.085 62.4619 150.085 61.9349 150.68 61.7292C150.871 61.6622 151.08 61.6718 151.264 61.7558C151.447 61.8398 151.591 61.9916 151.664 62.1791C152.789 64.4413 153.888 66.7164 155.001 68.9915C155.046 69.1419 155.072 69.2974 155.078 69.4543V69.4543Z" fill="#383838"/>
<path d="M154.625 86.4978C154.832 84.4283 155.001 82.526 155.207 80.6365C155.265 80.2479 155.382 79.8706 155.557 79.5182C155.687 79.3278 155.886 79.1943 156.113 79.1454C156.475 79.0683 156.708 79.3511 156.837 79.6339C156.936 79.8512 156.972 80.0916 156.941 80.328C156.721 82.5388 156.514 84.7625 156.255 86.9733C156.255 87.5261 155.984 88.1302 155.22 87.9631C154.457 87.796 154.651 87.2818 154.625 86.8062V86.4978Z" fill="#383838"/>
<path d="M130.709 118.156C130.011 118.156 129.674 118.156 129.532 117.822C129.442 117.639 129.428 117.429 129.494 117.236C129.559 117.044 129.698 116.885 129.881 116.794C131.86 115.585 133.839 114.364 135.818 113.169C135.974 113.039 136.171 112.968 136.375 112.968C136.578 112.968 136.775 113.039 136.931 113.169C136.997 113.215 137.053 113.275 137.095 113.345C137.136 113.414 137.162 113.492 137.17 113.572C137.179 113.653 137.17 113.734 137.144 113.811C137.119 113.888 137.077 113.958 137.021 114.017C135.147 115.715 133.017 117.112 130.709 118.156Z" fill="#383838"/>
<path d="M132.415 38.3476C132.079 39.1059 131.536 39.0545 131.005 38.7588C129.324 37.8334 127.668 36.8565 126.026 35.8925C125.747 35.739 125.498 35.539 125.288 35.3012C125.177 35.1839 125.108 35.0334 125.092 34.873C125.075 34.7127 125.113 34.5515 125.198 34.4143C125.275 34.2722 125.401 34.1626 125.553 34.1059C125.706 34.0492 125.873 34.0492 126.026 34.1058C128.187 35.1393 130.251 36.3609 132.196 37.7563C132.351 37.8591 132.351 38.1676 132.415 38.3476Z" fill="#383838"/>
<path d="M93.8966 39.0554C93.7661 39.3062 93.6101 39.5431 93.431 39.7623C92.1375 41.0477 90.844 42.3331 89.6152 43.6827C89.455 43.856 89.2724 44.0073 89.072 44.1326C88.9957 44.1955 88.9077 44.2427 88.8129 44.2716C88.7182 44.3004 88.6187 44.3104 88.5201 44.3008C88.4215 44.2913 88.3258 44.2624 88.2384 44.2159C88.1511 44.1693 88.0739 44.1061 88.0113 44.0297C87.9057 43.9083 87.8477 43.7532 87.8477 43.5927C87.8477 43.4322 87.9057 43.2771 88.0113 43.1557C89.3187 41.366 90.8832 39.7767 92.6549 38.4384C93.1335 38.0785 93.6897 38.207 93.8966 39.0554Z" fill="#383838"/>
<path d="M113.739 31.9461C112.938 31.9461 112.446 31.9461 111.825 31.9461C111.623 31.9545 111.426 31.8881 111.27 31.7599C111.115 31.6316 111.013 31.4506 110.984 31.252C110.984 30.7893 111.295 30.5193 111.696 30.4551C112.484 30.3243 113.278 30.2385 114.076 30.198C115.369 30.1337 116.663 30.108 117.956 30.108C118.435 30.108 118.952 30.2494 118.913 30.8793C118.875 31.5091 118.499 31.5476 118.086 31.5862C116.533 31.7276 115.02 31.8433 113.739 31.9461Z" fill="#383838"/>
<path d="M105.33 31.8049C106.106 31.8049 106.624 31.882 106.624 32.4604C106.643 32.662 106.584 32.8633 106.459 33.0232C106.334 33.1832 106.152 33.2899 105.951 33.3217C103.959 33.8358 101.954 34.3371 99.9364 34.7998C99.8217 34.8388 99.6997 34.8523 99.5792 34.8393C99.4587 34.8263 99.3425 34.7872 99.2389 34.7247C99.1352 34.6621 99.0466 34.5778 98.9794 34.4775C98.9122 34.3772 98.868 34.2634 98.8499 34.1443C98.8315 33.9422 98.8927 33.7409 99.0205 33.5827C99.1483 33.4245 99.3329 33.3217 99.5355 33.2959C101.579 32.7561 103.584 32.2548 105.33 31.8049Z" fill="#383838"/>
<path d="M81.9063 63.8117C81.9063 62.9762 81.9062 62.5263 82.5271 62.3849C82.7303 62.3715 82.9315 62.432 83.0932 62.5549C83.255 62.6778 83.3664 62.8549 83.4066 63.0533C84.0016 65.0071 84.5967 66.9737 85.1529 68.9531C85.1913 69.0547 85.208 69.1632 85.2021 69.2715C85.1961 69.3799 85.1676 69.4859 85.1183 69.5828C85.069 69.6796 85.0001 69.7653 84.9157 69.8342C84.8314 69.9032 84.7336 69.9541 84.6284 69.9835C84.5233 70.013 84.4132 70.0205 84.305 70.0054C84.1968 69.9904 84.093 69.9532 84 69.8962C83.9071 69.8392 83.827 69.7637 83.7649 69.6744C83.7029 69.585 83.6601 69.4839 83.6395 69.3773C82.9927 67.4364 82.4107 65.4698 81.9063 63.8117Z" fill="#383838"/>
<path d="M151.987 94.5701C152.66 94.6729 152.931 95.1356 152.66 95.5983C151.513 97.5163 150.156 99.3011 148.611 100.92C148.498 101.036 148.348 101.112 148.187 101.135C148.025 101.159 147.861 101.128 147.719 101.048C147.629 101.001 147.55 100.935 147.487 100.855C147.425 100.775 147.38 100.683 147.355 100.585C147.331 100.487 147.327 100.385 147.345 100.285C147.364 100.185 147.402 100.091 147.46 100.007C148.753 98.2719 150.047 96.5753 151.34 94.8657C151.521 94.7115 151.806 94.66 151.987 94.5701Z" fill="#383838"/>
<path d="M95.6302 100.071C95.863 100.238 96.1993 100.354 96.3675 100.585C97.5963 102.346 98.7992 104.107 99.9762 105.894C100.248 106.305 100.338 106.845 99.821 107.179C99.3036 107.514 98.8897 107.179 98.6051 106.781C97.3893 105.007 96.1863 103.246 95.0351 101.434C94.6859 100.855 94.8799 100.341 95.6302 100.071Z" fill="#383838"/>
<path d="M146.334 52.4874C146.165 53.0529 145.842 53.2586 145.415 53.1301C145.118 53.0329 144.856 52.8493 144.665 52.603C143.578 51.0477 142.505 49.4925 141.444 47.9115C141.173 47.513 140.979 47.0245 141.444 46.6261C141.91 46.2276 142.505 46.5618 142.828 47.0245C143.915 48.567 144.975 50.1351 146.036 51.7033C146.166 51.9521 146.266 52.2153 146.334 52.4874V52.4874Z" fill="#383838"/>
<path d="M87.0147 93.375C88.3655 93.7169 89.5986 94.414 90.5846 95.393C90.6338 95.4931 90.6594 95.603 90.6594 95.7144C90.6594 95.8257 90.6338 95.9356 90.5846 96.0357C90.5639 96.1125 90.5278 96.1842 90.4784 96.2468C90.4291 96.3094 90.3675 96.3614 90.2975 96.3998C90.2275 96.4382 90.1504 96.4622 90.0708 96.4703C89.9913 96.4784 89.9109 96.4705 89.8345 96.447C88.5798 95.9868 87.3956 95.3552 86.3162 94.5704C86.1739 94.4804 86.148 94.1334 86.1739 93.9277C86.1998 93.722 86.5879 93.465 87.0147 93.375Z" fill="#383838"/>
<path d="M58.2619 127.155C57.6984 129.798 56.8798 132.38 55.8173 134.867C55.5715 135.368 55.2482 135.934 54.5238 135.625C53.7995 135.317 54.0452 134.726 54.278 134.199C55.1773 132 55.887 129.73 56.3994 127.412C56.4609 127.181 56.5343 126.954 56.6192 126.731C56.7874 126.268 57.0202 125.779 57.5893 125.869C58.4042 125.972 58.2231 126.654 58.2619 127.155Z" fill="#383838"/>
<path d="M50.6818 145.534C50.1256 145.444 49.8669 145.123 50.0092 144.699C50.4666 143.419 51.2095 142.259 52.1822 141.306C52.302 141.201 52.4531 141.139 52.6121 141.128C52.7711 141.118 52.9292 141.16 53.0618 141.248C53.1944 141.335 53.2942 141.464 53.3456 141.614C53.3971 141.764 53.3973 141.927 53.3463 142.077C52.8124 143.239 52.1109 144.317 51.2638 145.277C51.1345 145.432 50.8499 145.47 50.6818 145.534Z" fill="#383838"/>
<path d="M63.396 98.9529C63.1997 98.8875 63.0191 98.7825 62.8657 98.6444C62.8028 98.5653 62.7574 98.4739 62.7324 98.3762C62.7073 98.2785 62.7032 98.1767 62.7203 98.0773C62.7374 97.978 62.7752 97.8833 62.8315 97.7994C62.8877 97.7155 62.9611 97.6443 63.0467 97.5904C64.5472 96.395 66.0735 95.2253 67.5998 94.0685C67.9799 93.7852 68.3871 93.5398 68.8156 93.3358C68.9643 93.2718 69.1309 93.2611 69.2866 93.3056C69.4423 93.3502 69.5777 93.4472 69.6693 93.58C69.7759 93.7035 69.8345 93.8608 69.8345 94.0235C69.8345 94.1862 69.7759 94.3435 69.6693 94.4669C67.8384 96.1185 65.8647 97.6067 63.7711 98.9143C63.6547 98.9529 63.5641 98.94 63.396 98.9529Z" fill="#383838"/>
</svg>
